<svg xmlns="http://www.w3.org/2000/svg" viewBox="0 0 1234.99 876.62"><defs><style>.cls-1{isolation:isolate;}.cls-2{fill:#2045ed;}.cls-19,.cls-2,.cls-3,.cls-4{mix-blend-mode:screen;}.cls-4{fill:none;}.cls-5{fill:#9c9c9c;}.cls-6{fill:#e5e5e5;}.cls-7{fill:#858585;}.cls-8{fill:#cfcfcf;}.cls-9{fill:#f4f4f4;}.cls-10{fill:#777;}.cls-11{fill:#8d8d8d;}.cls-12{fill:#747474;}.cls-13{fill:#828282;}.cls-14,.cls-19{fill:#fff;}.cls-15{fill:#4c4c4c;}.cls-16,.cls-17{fill:#ffee71;}.cls-17{opacity:0.5;}.cls-18{fill:#94a6f6;}.cls-20{fill:#848484;}.cls-21{fill:#4f4f4f;}</style></defs><title>illustration</title><g class="cls-1"><g id="Layer_2" data-name="Layer 2"><g id="illustration"><g id="Layer_6" data-name="Layer 6"><polygon class="cls-2" points="378.77 80 378.77 0 394.77 0 394.77 8 386.77 8 386.77 72 394.77 72 394.77 80 378.77 80"/><polygon class="cls-2" points="402.75 70 402.75 10 414.75 10 414.75 16 408.75 16 408.75 64 414.75 64 414.75 70 402.75 70"/><polygon class="cls-2" points="426.73 60 426.73 20 434.73 20 434.73 24 430.73 24 430.73 56 434.73 56 434.73 60 426.73 60"/><polygon class="cls-2" points="504.77 60 504.77 56 508.77 56 508.77 24 504.77 24 504.77 20 512.77 20 512.77 60 504.77 60"/><polygon class="cls-2" points="524.75 70 524.75 64 530.75 64 530.75 16 524.75 16 524.75 10 536.75 10 536.75 70 524.75 70"/><polygon class="cls-2" points="544.73 80 544.73 72 552.73 72 552.73 8 544.73 8 544.73 0 560.73 0 560.73 80 544.73 80"/><polygon class="cls-2" points="851.99 202.24 851.99 154.24 861.59 154.24 861.59 159.04 856.79 159.04 856.79 197.44 861.59 197.44 861.59 202.24 851.99 202.24"/><polygon class="cls-2" points="866.38 196.24 866.38 160.24 873.58 160.24 873.58 163.84 869.98 163.84 869.98 192.64 873.58 192.64 873.58 196.24 866.38 196.24"/><polygon class="cls-2" points="880.76 190.24 880.76 166.24 885.56 166.24 885.56 168.64 883.16 168.64 883.16 187.84 885.56 187.84 885.56 190.24 880.76 190.24"/><polygon class="cls-2" points="927.59 190.24 927.59 187.84 929.99 187.84 929.99 168.64 927.59 168.64 927.59 166.24 932.39 166.24 932.39 190.24 927.59 190.24"/><polygon class="cls-2" points="939.58 196.24 939.58 192.64 943.18 192.64 943.18 163.84 939.58 163.84 939.58 160.24 946.78 160.24 946.78 196.24 939.58 196.24"/><polygon class="cls-2" points="951.56 202.24 951.56 197.44 956.36 197.44 956.36 159.04 951.56 159.04 951.56 154.24 961.16 154.24 961.16 202.24 951.56 202.24"/><path class="cls-2" d="M733.48,735.78v-7.54H695.77v7.54h3.77V732h30.17v3.77Zm-4.72,9.41v-5.65H700.48v5.65h2.83v-2.82h22.62v2.82Zm-91.65-9.27H566.54v12.22H324.38v89.65h779.75L1152,790l41.83-41.82H637.11Zm-128.8-.14v-7.54h-37.7v7.54h3.77V732h30.16v3.77Zm-4.71,9.41v-5.65H475.32v5.65h2.83v-2.82h22.62v2.82ZM359.68,656.31V586.63H350V551h-7.43V527.62h43.22V694.49h95.53V723H651V694.49H809.6v13.28H949.14V661.2h-6.4V642h82v38.15h104.61V642.3h-4.8V642h48.25l62.2-62.22h-90V552l8.69-8.69-10.61-10.6-10.6,10.6,8.69,8.7v27.69H1055V552l5.29-5.29h27.23V511.6h-4.9v-18h-18v18h-4.91V500.78h-6.41V477.26h-23.53v23.52h-6.41V473.49h11.05v-5h9.53v-8.37h8.65V438h101l10-10h.1l19.9-20,10-10H1077.73v-1.28l-.23.23-25-25H922.28V322h15.13v-8h-7.87v-8H944v-8h26.31V234H937.41v-8h-12v-8H932v-8H908.79V189.33h12.94v-2.95H908.79v-6.66h10.35v-3H908.79v-6.65H916v-3h-7.24v-15.9h-4.43v15.9h-7.24v3h7.24v6.65H894v3h10.35v6.66H891.42v2.95h12.94V210H879.25v8h6.52v8h-12v8H842.28v6h-4V221.54H819.8V240h-5.05v4.32h-3.86v-10H796.73v10H784v-20H749.86V171H697.73V123H639.86v48H587.73V325h-1.48V308.13H569.43V325h-4.59v7.73h-3.51V319.83h-7.58V242.49H508.1v-8h-9.49v-8H516v-8h63.64v-104h-85.4v-8H485v-8h5v-8H473.15v-32h8.25v-4h-8.25v-9h14v-4h-14v-9h6.58v-4h-6.58V7h-6v21.5h-6.57v4h6.57v9h-14v4h14v9h-8.24v4h8.24v32H449.44v8h5v8h-9.21v8h-85.6v104h63.84v8h17.4v8H431.4v8H385.75v81.34H372.68v14.51h-4v-8.73h-5.18v-19h-19v19h-5.17v-22h8.92v-4H356v-6.75h7V277.3h-7v-8.62h-7.68v-6.62H328.77v6.62h-7.68v8.62h-7.41v19.55h7.41v6.75h7.68v4h8.92V337.7h-3.92V322.87H319.39V337.7h-3.92V351h-2.39v-8h-7.76v8h-1.84v15.65h82.27v26.63H373V398H220V371.58H104.27v149H0v356H116.27v0h92.26v0H324.27V656.31ZM875,579.75V552l8.69-8.69-10.61-10.6-10.6,10.6,8.69,8.7v27.69H854V530.49H762.13V512.42H755.8V489.23H732.61v23.19h-6.33v18.07h-.05V516.27h-4.89V495H700.76v21.22h-6.34V473.2h12.76v-5.74h11V457.8h10.61V438h114.8v14.68h-5.7v9.61h-4.36v-16h-16v16h-4.36v31.24h77.09v86.22ZM553.75,438H658.21v19.8h10v9.66h11v5.74H692v31.5h-7.4V477.55H657.4V504.7H650v12.48h-5.67V496.42H623.57v20.76h-5.66v13.31H582V590h-28.2Zm336.53,27h-1.85V450.44H874.29V465h-4.1V452.68h-5.7V438h25.79ZM322.53,487.61v-40H220V438H332.21v38.24h53.54v11.37Zm678.1-27.46v8.37h9.53v5h11.06v37.32h-5.49V492.42H997.9v18.39h-4.24v16.55h-3v-9.92h-9.63v9.92h-2.28v19.4h67.08l5.29,5.3v27.69H965V552.06l8.69-8.7-10.61-10.6-10.6,10.6,8.69,8.7v27.69H922.28V438h69.16v22.15ZM608.43,357.84V349h37.43v0H692v0h57.87V324.37H814v-20h20.33v-20H784v-20h8.83v11.86h49.41V298h25v8h14.42v8h-7.87v8h16.47v50H757.73v26h-6.32V372H553.75V357.84Z"/></g><g id="Layer_5" data-name="Layer 5" class="cls-3"><polygon class="cls-4" points="378.77 80 378.77 0 394.77 0 394.77 8 386.77 8 386.77 72 394.77 72 394.77 80 378.77 80"/><polygon class="cls-4" points="402.75 70 402.75 10 414.75 10 414.75 16 408.75 16 408.75 64 414.75 64 414.75 70 402.75 70"/><polygon class="cls-4" points="426.73 60 426.73 20 434.73 20 434.73 24 430.73 24 430.73 56 434.73 56 434.73 60 426.73 60"/><polygon class="cls-4" points="504.77 60 504.77 56 508.77 56 508.77 24 504.77 24 504.77 20 512.77 20 512.77 60 504.77 60"/><polygon class="cls-4" points="524.75 70 524.75 64 530.75 64 530.75 16 524.75 16 524.75 10 536.75 10 536.75 70 524.75 70"/><polygon class="cls-4" points="544.73 80 544.73 72 552.73 72 552.73 8 544.73 8 544.73 0 560.73 0 560.73 80 544.73 80"/><polygon class="cls-4" points="851.99 202.24 851.99 154.24 861.59 154.24 861.59 159.04 856.79 159.04 856.79 197.44 861.59 197.44 861.59 202.24 851.99 202.24"/><polygon class="cls-4" points="866.38 196.24 866.38 160.24 873.58 160.24 873.58 163.84 869.98 163.84 869.98 192.64 873.58 192.64 873.58 196.24 866.38 196.24"/><polygon class="cls-4" points="880.76 190.24 880.76 166.24 885.56 166.24 885.56 168.64 883.16 168.64 883.16 187.84 885.56 187.84 885.56 190.24 880.76 190.24"/><polygon class="cls-4" points="927.59 190.24 927.59 187.84 929.99 187.84 929.99 168.64 927.59 168.64 927.59 166.24 932.39 166.24 932.39 190.24 927.59 190.24"/><polygon class="cls-4" points="939.58 196.24 939.58 192.64 943.18 192.64 943.18 163.84 939.58 163.84 939.58 160.24 946.78 160.24 946.78 196.24 939.58 196.24"/><polygon class="cls-4" points="951.56 202.24 951.56 197.44 956.36 197.44 956.36 159.04 951.56 159.04 951.56 154.24 961.16 154.24 961.16 202.24 951.56 202.24"/><path class="cls-4" d="M733.48,735.78v-7.54H695.77v7.54h3.77V732h30.17v3.77Zm-4.72,9.41v-5.65H700.48v5.65h2.83v-2.82h22.62v2.82Zm-91.65-9.27H566.54v12.22H324.38v89.65h779.75L1152,790l41.83-41.82H637.11Zm-128.8-.14v-7.54h-37.7v7.54h3.77V732h30.16v3.77Zm-4.71,9.41v-5.65H475.32v5.65h2.83v-2.82h22.62v2.82ZM359.68,656.31V586.63H350V551h-7.43V527.62h43.22V694.49h95.53V723H651V694.49H809.6v13.28H949.14V661.2h-6.4V642h82v38.15h104.61V642.3h-4.8V642h48.25l62.2-62.22h-90V552l8.69-8.69-10.61-10.6-10.6,10.6,8.69,8.7v27.69H1055V552l5.29-5.29h27.23V511.6h-4.9v-18h-18v18h-4.91V500.78h-6.41V477.26h-23.53v23.52h-6.41V473.49h11.05v-5h9.53v-8.37h8.65V438h101l10-10h.1l19.9-20,10-10H1077.73v-1.28l-.23.23-25-25H922.28V322h15.13v-8h-7.87v-8H944v-8h26.31V234H937.41v-8h-12v-8H932v-8H908.79V189.33h12.94v-2.95H908.79v-6.66h10.35v-3H908.79v-6.65H916v-3h-7.24v-15.9h-4.43v15.9h-7.24v3h7.24v6.65H894v3h10.35v6.66H891.42v2.95h12.94V210H879.25v8h6.52v8h-12v8H842.28v6h-4V221.54H819.8V240h-5.05v4.32h-3.86v-10H796.73v10H784v-20H749.86V171H697.73V123H639.86v48H587.73V325h-1.48V308.13H569.43V325h-4.59v7.73h-3.51V319.83h-7.58V242.49H508.1v-8h-9.49v-8H516v-8h63.64v-104h-85.4v-8H485v-8h5v-8H473.15v-32h8.25v-4h-8.25v-9h14v-4h-14v-9h6.58v-4h-6.58V7h-6v21.5h-6.57v4h6.57v9h-14v4h14v9h-8.24v4h8.24v32H449.44v8h5v8h-9.21v8h-85.6v104h63.84v8h17.4v8H431.4v8H385.75v81.34H372.68v14.51h-4v-8.73h-5.18v-19h-19v19h-5.17v-22h8.92v-4H356v-6.75h7V277.3h-7v-8.62h-7.68v-6.62H328.77v6.62h-7.68v8.62h-7.41v19.55h7.41v6.75h7.68v4h8.92V337.7h-3.92V322.87H319.39V337.7h-3.92V351h-2.39v-8h-7.76v8h-1.84v15.65h82.27v26.63H373V398H220V371.58H104.27v149H0v356H116.27v0h92.26v0H324.27V656.31ZM875,579.75V552l8.69-8.69-10.61-10.6-10.6,10.6,8.69,8.7v27.69H854V530.49H762.13V512.42H755.8V489.23H732.61v23.19h-6.33v18.07h-.05V516.27h-4.89V495H700.76v21.22h-6.34V473.2h12.76v-5.74h11V457.8h10.61V438h114.8v14.68h-5.7v9.61h-4.36v-16h-16v16h-4.36v31.24h77.09v86.22ZM553.75,438H658.21v19.8h10v9.66h11v5.74H692v31.5h-7.4V477.55H657.4V504.7H650v12.48h-5.67V496.42H623.57v20.76h-5.66v13.31H582V590h-28.2Zm336.53,27h-1.85V450.44H874.29V465h-4.1V452.68h-5.7V438h25.79ZM322.53,487.61v-40H220V438H332.21v38.24h53.54v11.37Zm678.1-27.46v8.37h9.53v5h11.06v37.32h-5.49V492.42H997.9v18.39h-4.24v16.55h-3v-9.92h-9.63v9.92h-2.28v19.4h67.08l5.29,5.3v27.69H965V552.06l8.69-8.7-10.61-10.6-10.6,10.6,8.69,8.7v27.69H922.28V438h69.16v22.15ZM608.43,357.84V349h37.43v0H692v0h57.87V324.37H814v-20h20.33v-20H784v-20h8.83v11.86h49.41V298h25v8h14.42v8h-7.87v8h16.47v50H757.73v26h-6.32V372H553.75V357.84Z"/><g id="Layer_10" data-name="Layer 10"><polygon class="cls-5" points="1193.62 398 1153.62 438 169.62 438 169.62 398 1193.62 398"/><polygon class="cls-6" points="1183.62 408 1163.72 428 169.62 428 169.62 408 1183.62 408"/><polygon class="cls-6" points="1183.62 408 1163.72 428 169.62 428 169.62 408 1183.62 408"/></g><path class="cls-7" d="M1077.5,397l-25-25H757.73v56h320V396.72Z"/><rect class="cls-7" x="423.41" y="371.99" width="328" height="56"/><rect class="cls-8" x="765.5" y="378.99" width="37.71" height="32"/><rect class="cls-8" x="811.21" y="378.99" width="37.71" height="32"/><rect class="cls-8" x="856.93" y="378.99" width="37.71" height="32"/><rect class="cls-8" x="902.64" y="378.99" width="37.71" height="32"/><rect class="cls-8" x="948.35" y="378.99" width="37.71" height="32"/><rect class="cls-8" x="994.07" y="378.99" width="37.71" height="32"/><polygon class="cls-8" points="1077.5 396.95 1077.5 410.99 1039.78 410.99 1039.78 378.99 1059.54 378.99 1077.5 396.95"/><rect class="cls-8" x="431.41" y="378.99" width="37.71" height="32"/><rect class="cls-8" x="477.12" y="378.99" width="37.71" height="32"/><rect class="cls-8" x="522.84" y="378.99" width="37.71" height="32"/><rect class="cls-8" x="568.55" y="378.99" width="37.71" height="32"/><rect class="cls-8" x="614.27" y="378.99" width="37.71" height="32"/><rect class="cls-8" x="659.98" y="378.99" width="37.71" height="32"/><rect class="cls-8" x="705.7" y="378.99" width="37.71" height="32"/><rect class="cls-7" x="704.04" y="224.37" width="80" height="20"/><polygon class="cls-7" points="834.37 284.37 834.37 304.37 814.04 304.37 814.04 324.37 674.04 324.37 674.04 304.37 694.04 304.37 694.04 284.37 704.04 284.37 704.04 264.37 690.79 264.37 690.79 244.37 817.99 244.37 817.99 264.37 784.04 264.37 784.04 284.37 834.37 284.37"/><path class="cls-9" d="M799.27,316.23c-.9-.38-1.79-.79-2.68-1.2l-1.33-.62c-.43-.24-.82-.51-1.25-.75h.51l-5,3-.26.15-.26-.15-5-3h.51l-5,3-.26.15-.26-.15-5-3h.51c-.42.24-.82.52-1.25.75l-1.33.61c-.89.41-1.77.82-2.68,1.21.77-.61,1.55-1.2,2.33-1.79l1.17-.89c.41-.27.84-.49,1.25-.75l.25-.16.26.16,5,3H779l5-3,.26-.15.26.15,5,3H789l5-3,.26-.16.25.16c.41.26.84.48,1.25.75l1.17.88C797.73,315,798.51,315.61,799.27,316.23Z"/><path class="cls-9" d="M716.32,316.23c-.9-.38-1.79-.79-2.68-1.2l-1.33-.62c-.43-.24-.82-.51-1.25-.75h.51l-5,3-.26.15-.26-.15-5-3h.51l-5,3-.26.15-.26-.15-5-3h.51c-.42.24-.82.52-1.25.75L689,315c-.89.41-1.77.82-2.68,1.21.77-.61,1.55-1.2,2.33-1.79l1.17-.89c.41-.27.84-.49,1.25-.75l.25-.16.26.16,5,3h-.51l5-3,.26-.15.26.15,5,3h-.51l5-3,.27-.16.25.16c.41.26.84.48,1.25.75l1.17.88C714.77,315,715.55,315.61,716.32,316.23Z"/><path class="cls-9" d="M759,316.23c-.9-.38-1.79-.79-2.68-1.2l-1.33-.62c-.43-.24-.82-.51-1.25-.75h.51l-5,3-.26.15-.26-.15-5-3h.51l-5,3-.26.15-.26-.15-5-3h.51c-.42.24-.82.52-1.25.75l-1.33.61c-.89.41-1.77.82-2.68,1.21.77-.61,1.55-1.2,2.33-1.79l1.17-.89c.41-.27.84-.49,1.25-.75l.25-.16.26.16,5,3h-.51l5-3,.26-.15.26.15,5,3h-.51l5-3,.26-.16.25.16c.41.26.84.48,1.25.75l1.17.88C757.5,315,758.28,315.61,759,316.23Z"/><path class="cls-9" d="M769.41,235.87c-.9-.38-1.79-.79-2.68-1.2l-1.33-.62c-.43-.24-.82-.51-1.25-.75h.51l-5,3-.26.15-.26-.15-5-3h.51l-5,3-.26.15-.26-.15-5-3h.51c-.42.24-.82.52-1.25.75l-1.33.61c-.89.41-1.77.82-2.68,1.21.77-.61,1.55-1.2,2.33-1.79l1.17-.89c.41-.27.84-.49,1.25-.75l.25-.16.26.16,5,3h-.51l5-3,.26-.15.26.15,5,3h-.51l5-3,.27-.16.25.16c.41.26.84.48,1.25.75l1.17.88C767.86,234.66,768.65,235.25,769.41,235.87Z"/><path class="cls-9" d="M718.08,235.87c-.9-.38-1.79-.79-2.68-1.2l-1.33-.62c-.43-.24-.82-.51-1.25-.75h.51l-5,3-.26.15-.26-.15-5-3h.51l-5,3-.26.15-.26-.15-5-3h.51c-.42.24-.82.52-1.25.75l-1.33.61c-.89.41-1.77.82-2.68,1.21.77-.61,1.55-1.2,2.33-1.79l1.17-.89c.41-.27.84-.49,1.25-.75l.25-.16.26.16,5,3h-.51l5-3,.26-.15.26.15,5,3h-.51l5-3,.27-.16.25.16c.41.26.84.48,1.25.75l1.17.88C716.54,234.66,717.32,235.25,718.08,235.87Z"/><path class="cls-9" d="M744.23,255.87c-.9-.38-1.79-.79-2.68-1.2l-1.33-.62c-.43-.24-.82-.51-1.25-.75h.51l-5,3-.26.15-.26-.15-5-3h.51l-5,3-.26.15-.26-.15-5-3h.51c-.42.24-.82.52-1.25.75l-1.33.61c-.89.41-1.77.82-2.68,1.21.77-.61,1.55-1.2,2.33-1.79l1.17-.89c.41-.27.84-.49,1.25-.75l.25-.16.26.16,5,3H724l5-3,.26-.15.26.15,5,3H734l5-3,.27-.16.25.16c.41.26.84.48,1.25.75l1.17.88C742.68,254.67,743.46,255.25,744.23,255.87Z"/><path class="cls-9" d="M797,255.87c-.9-.38-1.79-.79-2.68-1.2l-1.33-.62c-.43-.24-.82-.51-1.25-.75h.51l-5,3-.26.15-.26-.15-5-3h.51l-5,3-.26.15-.26-.15-5-3h.51c-.42.24-.82.52-1.25.75l-1.33.61c-.89.41-1.77.82-2.68,1.21.77-.61,1.55-1.2,2.33-1.79l1.17-.89c.41-.27.84-.49,1.25-.75l.25-.16.26.16,5,3h-.51l5-3,.26-.15.26.15,5,3h-.51l5-3,.26-.16.25.16c.41.26.84.48,1.25.75l1.17.88C795.5,254.67,796.28,255.25,797,255.87Z"/><path class="cls-9" d="M769.41,275.87c-.9-.38-1.79-.79-2.68-1.2l-1.33-.62c-.43-.24-.82-.51-1.25-.75h.51l-5,3-.26.15-.26-.15-5-3h.51l-5,3-.26.15-.26-.15-5-3h.51c-.42.24-.82.52-1.25.75l-1.33.61c-.89.41-1.77.82-2.68,1.21.77-.61,1.55-1.2,2.33-1.79l1.17-.89c.41-.27.84-.49,1.25-.75l.25-.16.26.16,5,3h-.51l5-3,.26-.15.26.15,5,3h-.51l5-3,.27-.16.25.16c.41.26.84.48,1.25.75l1.17.88C767.86,274.67,768.65,275.25,769.41,275.87Z"/><path class="cls-9" d="M723.71,275.87c-.9-.38-1.79-.79-2.68-1.2l-1.33-.62c-.43-.24-.82-.51-1.25-.75H719l-5,3-.26.15-.26-.15-5-3H709l-5,3-.26.15-.26-.15-5-3H699c-.42.24-.82.52-1.25.75l-1.33.61c-.89.41-1.77.82-2.68,1.21.77-.61,1.55-1.2,2.33-1.79l1.17-.89c.41-.27.84-.49,1.25-.75l.25-.16.26.16,5,3h-.51l5-3,.26-.15.26.15,5,3h-.51l5-3,.26-.16.25.16c.41.26.84.48,1.25.75l1.17.88C722.17,274.67,723,275.25,723.71,275.87Z"/><path class="cls-9" d="M742.29,296.14c-.9-.38-1.79-.79-2.68-1.2l-1.33-.62c-.43-.24-.82-.51-1.25-.75h.51l-5,3-.26.15-.26-.15-5-3h.51l-5,3-.26.15-.26-.15-5-3h.51c-.42.24-.82.52-1.25.75l-1.33.61c-.89.41-1.77.82-2.68,1.21.77-.61,1.55-1.2,2.33-1.79l1.17-.89c.41-.27.84-.49,1.25-.75l.25-.16.26.16,5,3H722l5-3,.26-.15.26.15,5,3H732l5-3,.27-.16.25.16c.41.26.84.48,1.25.75l1.17.88C740.75,294.93,741.53,295.52,742.29,296.14Z"/><path class="cls-9" d="M779.21,296.14c-.9-.38-1.79-.79-2.68-1.2l-1.33-.62c-.43-.24-.82-.51-1.25-.75h.51l-5,3-.26.15-.26-.15-5-3h.51l-5,3-.26.15-.26-.15-5-3h.51c-.42.24-.82.52-1.25.75l-1.33.61c-.89.41-1.77.82-2.68,1.21.77-.61,1.55-1.2,2.33-1.79l1.17-.89c.41-.27.84-.49,1.25-.75l.25-.16.26.16,5,3H759l5-3,.26-.15.26.15,5,3H769l5-3,.27-.16.25.16c.41.26.84.48,1.25.75l1.17.88C777.66,294.93,778.45,295.52,779.21,296.14Z"/><path class="cls-9" d="M816.12,296.14c-.9-.38-1.79-.79-2.68-1.2l-1.33-.62c-.43-.24-.82-.51-1.25-.75h.51l-5,3-.26.15-.26-.15-5-3h.51l-5,3-.26.15-.26-.15-5-3h.51c-.42.24-.82.52-1.25.75l-1.33.61c-.89.41-1.77.82-2.68,1.21.77-.61,1.55-1.2,2.33-1.79l1.17-.89c.41-.27.84-.49,1.25-.75l.25-.16.26.16,5,3h-.51l5-3,.26-.15.26.15,5,3h-.51l5-3,.27-.16.25.16c.41.26.84.48,1.25.75l1.17.88C814.58,294.93,815.36,295.52,816.12,296.14Z"/><polygon class="cls-9" points="749.86 170.99 749.86 348.99 587.73 348.99 587.73 170.99 639.86 170.99 639.86 122.99 697.73 122.99 697.73 170.99 749.86 170.99"/><rect class="cls-8" x="645.86" y="126.99" width="20" height="20"/><rect class="cls-8" x="645.86" y="150.99" width="20" height="20"/><rect class="cls-8" x="593.86" y="174.99" width="20" height="20"/><rect class="cls-8" x="619.86" y="174.99" width="20" height="20"/><rect class="cls-8" x="645.86" y="174.99" width="20" height="20"/><rect class="cls-8" x="593.86" y="198.99" width="20" height="20"/><rect class="cls-8" x="619.86" y="198.99" width="20" height="20"/><rect class="cls-8" x="645.86" y="198.99" width="20" height="20"/><rect class="cls-8" x="593.86" y="222.99" width="20" height="20"/><rect class="cls-8" x="619.86" y="222.99" width="20" height="20"/><rect class="cls-8" x="645.86" y="222.99" width="20" height="20"/><rect class="cls-8" x="593.86" y="246.99" width="20" height="20"/><rect class="cls-8" x="619.86" y="246.99" width="20" height="20"/><rect class="cls-8" x="645.86" y="246.99" width="20" height="20"/><rect class="cls-8" x="593.86" y="270.99" width="20" height="20"/><rect class="cls-8" x="619.86" y="270.99" width="20" height="20"/><rect class="cls-8" x="593.86" y="294.99" width="20" height="20"/><rect class="cls-8" x="619.86" y="294.99" width="20" height="20"/><rect class="cls-8" x="619.86" y="318.99" width="20" height="20"/><rect class="cls-8" x="593.86" y="318.99" width="20" height="20"/><rect class="cls-8" x="671.99" y="126.99" width="20" height="20"/><rect class="cls-8" x="671.99" y="150.99" width="20" height="20"/><rect class="cls-8" x="671.99" y="174.99" width="20" height="20"/><rect class="cls-8" x="697.99" y="174.99" width="20" height="20"/><rect class="cls-8" x="723.99" y="174.99" width="20" height="20"/><rect class="cls-8" x="671.99" y="198.99" width="20" height="20"/><rect class="cls-8" x="697.99" y="198.99" width="20" height="20"/><rect class="cls-8" x="723.99" y="198.99" width="20" height="20"/><rect class="cls-8" x="671.99" y="222.99" width="20" height="20"/><rect class="cls-8" x="697.99" y="222.99" width="20" height="20"/><rect class="cls-8" x="723.99" y="222.99" width="20" height="20"/><rect class="cls-8" x="671.99" y="246.99" width="20" height="20"/><rect class="cls-8" x="645.86" y="270.99" width="20" height="20"/><rect class="cls-8" x="671.99" y="270.99" width="20" height="20"/><rect class="cls-8" x="697.99" y="246.99" width="20" height="20"/><rect class="cls-8" x="723.99" y="246.99" width="20" height="20"/><rect class="cls-8" x="645.86" y="294.99" width="46.13" height="54.02"/><rect class="cls-8" x="697.99" y="270.99" width="20" height="20"/><rect class="cls-8" x="723.99" y="270.99" width="20" height="20"/><rect class="cls-8" x="697.99" y="294.99" width="20" height="20"/><rect class="cls-8" x="723.99" y="294.99" width="20" height="20"/><rect class="cls-8" x="697.99" y="318.99" width="20" height="20"/><rect class="cls-8" x="723.99" y="318.99" width="20" height="20"/><polygon class="cls-10" points="1052.59 435.9 1052.59 460.15 1043.94 460.15 1043.94 468.52 1034.41 468.52 1034.41 473.49 1010.16 473.49 1010.16 468.52 1000.63 468.52 1000.63 460.15 991.44 460.15 991.44 435.9 1000.63 435.9 1000.63 425.22 1010.16 425.22 1010.16 417 1034.41 417 1034.41 425.22 1043.94 425.22 1043.94 435.9 1052.59 435.9"/><rect class="cls-11" x="1021.22" y="444.04" width="2.14" height="102.72"/><polygon class="cls-10" points="1021.22 510.81 1021.22 546.76 993.66 546.76 993.66 510.81 997.9 510.81 997.9 492.42 1015.73 492.42 1015.73 510.81 1021.22 510.81"/><rect class="cls-11" x="1005.94" y="505.6" width="2.4" height="41.16"/><rect class="cls-11" x="1008.04" y="517.58" width="9.59" height="1.2"/><rect class="cls-11" x="1022.81" y="457.84" width="11.06" height="1.38"/><rect class="cls-11" x="1011.52" y="449.98" width="11.06" height="1.38"/><rect class="cls-11" x="997.25" y="531.96" width="9.59" height="1.2"/><polygon class="cls-12" points="993.66 527.36 993.66 546.76 978.79 546.76 978.79 527.36 981.07 527.36 981.07 517.44 990.7 517.44 990.7 527.36 993.66 527.36"/><rect class="cls-11" x="985.42" y="524.55" width="1.29" height="22.21"/><rect class="cls-11" x="986.55" y="531.02" width="5.17" height="0.65"/><rect class="cls-11" x="980.73" y="538.77" width="5.17" height="0.65"/><polygon class="cls-12" points="1059.71 500.78 1059.71 546.76 1023.36 546.76 1023.36 500.78 1029.77 500.78 1029.77 477.26 1053.3 477.26 1053.3 500.78 1059.71 500.78"/><polygon class="cls-10" points="1087.51 511.6 1087.51 546.76 1059.71 546.76 1059.71 511.6 1064.62 511.6 1064.62 493.61 1082.61 493.61 1082.61 511.6 1087.51 511.6"/><rect class="cls-11" x="1072.23" y="507.25" width="2.77" height="39.51"/><rect class="cls-11" x="1040.46" y="494.37" width="2.14" height="52.39"/><rect class="cls-11" x="1031.91" y="514.68" width="8.55" height="1.07"/><rect class="cls-11" x="1074.68" y="517.51" width="8.55" height="1.07"/><rect class="cls-11" x="1042.6" y="523.24" width="8.55" height="1.07"/><rect class="cls-11" x="1063.99" y="528.21" width="8.55" height="1.07"/><rect class="cls-11" x="1031.91" y="533.93" width="8.55" height="1.07"/><rect class="cls-11" x="1074.68" y="535.69" width="8.55" height="1.07"/><polygon class="cls-10" points="728.79 429.81 728.79 457.8 718.18 457.8 718.18 467.46 707.18 467.46 707.18 473.2 679.19 473.2 679.19 467.46 668.2 467.46 668.2 457.8 658.21 457.8 658.21 429.81 668.2 429.81 668.2 417.48 679.19 417.48 679.19 408 707.18 408 707.18 417.48 718.18 417.48 718.18 429.81 728.79 429.81"/><rect class="cls-11" x="691.95" y="439.2" width="2.47" height="118.56"/><polygon class="cls-10" points="726.23 516.27 726.23 557.76 694.42 557.76 694.42 516.27 700.76 516.27 700.76 495.05 721.34 495.05 721.34 516.27 726.23 516.27"/><rect class="cls-11" x="709.29" y="510.26" width="2.77" height="47.5" transform="translate(1421.34 1068.02) rotate(-180)"/><rect class="cls-11" x="698.57" y="524.09" width="11.06" height="1.38" transform="translate(1408.21 1049.56) rotate(-180)"/><rect class="cls-11" x="692.82" y="457.14" width="12.77" height="1.6" transform="translate(1398.41 915.88) rotate(-180)"/><rect class="cls-11" x="680.85" y="445.06" width="12.77" height="1.6" transform="translate(1374.47 891.72) rotate(-180)"/><rect class="cls-11" x="711.02" y="540.68" width="11.06" height="1.38" transform="translate(1433.1 1082.74) rotate(-180)"/><polygon class="cls-12" points="691.95 504.7 691.95 557.76 650 557.76 650 504.7 657.4 504.7 657.4 477.55 684.55 477.55 684.55 504.7 691.95 504.7"/><polygon class="cls-10" points="650 517.18 650 557.76 617.91 557.76 617.91 517.18 623.57 517.18 623.57 496.42 644.33 496.42 644.33 517.18 650 517.18"/><rect class="cls-11" x="632.36" y="512.16" width="3.19" height="45.6" transform="translate(1267.9 1069.92) rotate(-180)"/><rect class="cls-11" x="669.74" y="497.29" width="2.47" height="60.47" transform="translate(1341.95 1055.05) rotate(-180)"/><rect class="cls-11" x="672.21" y="520.74" width="9.87" height="1.23" transform="translate(1354.29 1042.71) rotate(-180)"/><rect class="cls-11" x="622.85" y="524.01" width="9.87" height="1.23" transform="translate(1255.56 1049.25) rotate(-180)"/><rect class="cls-11" x="659.87" y="530.61" width="9.87" height="1.23" transform="translate(1329.61 1062.46) rotate(-180)"/><rect class="cls-11" x="635.19" y="536.35" width="9.87" height="1.23" transform="translate(1280.24 1073.93) rotate(-180)"/><rect class="cls-11" x="672.21" y="542.95" width="9.87" height="1.23" transform="translate(1354.29 1087.14) rotate(-180)"/><rect class="cls-11" x="622.85" y="544.99" width="9.87" height="1.23" transform="translate(1255.56 1091.21) rotate(-180)"/><polygon class="cls-12" points="762.13 512.42 762.13 557.76 726.28 557.76 726.28 512.42 732.61 512.42 732.61 489.23 755.8 489.23 755.8 512.42 762.13 512.42"/><rect class="cls-11" x="742.42" y="506.81" width="3.57" height="50.95" transform="translate(1488.41 1064.58) rotate(-180)"/><rect class="cls-11" x="744.8" y="520.05" width="11.03" height="1.38" transform="translate(1500.63 1041.47) rotate(-180)"/><rect class="cls-11" x="732.59" y="533.84" width="11.03" height="1.38" transform="translate(1476.2 1069.05) rotate(-180)"/><rect class="cls-11" x="743.8" y="543.49" width="11.03" height="1.38" transform="translate(1498.63 1088.35) rotate(-180)"/><polygon class="cls-5" points="1234.99 579.75 1172.79 641.97 790.65 641.97 790.65 579.75 1234.99 579.75"/><rect class="cls-7" x="182.53" y="527.62" width="160" height="40"/><polygon class="cls-7" points="402.53 487.61 402.53 527.61 122.53 527.61 122.53 487.61 162.53 487.61 162.53 447.61 322.53 447.61 322.53 487.61 402.53 487.61"/><path class="cls-9" d="M373,511.32q-2.7-1.16-5.36-2.39L365,507.69c-.44-.21-.83-.51-1.25-.76l-1.25-.75h1l-10,6-.51.31-.51-.31-10-6h1l-10,6-.51.31-.51-.31-10-6h1l-1.25.75a14,14,0,0,1-1.25.75l-2.66,1.24q-2.66,1.24-5.36,2.4,2.3-1.83,4.64-3.6L320,506a14.07,14.07,0,0,1,1.25-.75l1.25-.75.51-.31.51.31,10,6h-1l10-6,.51-.31.51.31,10,6h-1l10-6,.51-.31.52.31,1.25.75c.42.25.86.45,1.25.74l2.34,1.76Q370.68,509.48,373,511.32Z"/><path class="cls-9" d="M207.07,511.32q-2.7-1.16-5.36-2.39l-2.65-1.24c-.44-.21-.83-.51-1.25-.76l-1.25-.75h1l-10,6-.51.31-.51-.31-10-6h1l-10,6-.51.31-.51-.31-10-6h1l-1.25.75a14.12,14.12,0,0,1-1.25.75l-2.66,1.24q-2.66,1.24-5.36,2.4,2.3-1.83,4.64-3.6l2.34-1.76a14,14,0,0,1,1.25-.75l1.25-.75.51-.31.51.31,10,6h-1l10-6,.51-.31.51.31,10,6h-1l10-6,.51-.31.52.31,1.25.75c.42.25.86.45,1.25.74l2.35,1.76Q204.78,509.48,207.07,511.32Z"/><path class="cls-9" d="M292.53,511.32q-2.7-1.16-5.36-2.39l-2.65-1.24c-.44-.21-.83-.51-1.25-.76l-1.25-.75h1l-10,6-.51.31-.51-.31-10-6h1l-10,6-.51.31-.51-.31-10-6h1l-1.25.75a14,14,0,0,1-1.25.75l-2.66,1.24q-2.66,1.24-5.36,2.4,2.3-1.83,4.64-3.6l2.34-1.76a14.07,14.07,0,0,1,1.25-.75l1.25-.75.51-.31.51.31,10,6h-1l10-6,.51-.31.51.31,10,6h-1l10-6,.51-.31.52.31,1.25.75c.42.25.86.45,1.25.74l2.34,1.76Q290.24,509.48,292.53,511.32Z"/><path class="cls-9" d="M313.26,550.62q-2.7-1.16-5.36-2.39L305.24,547c-.44-.21-.83-.51-1.25-.76l-1.25-.75h1l-10,6-.51.31-.51-.31-10-6h1l-10,6-.51.31-.51-.31-10-6h1l-1.25.75a14.12,14.12,0,0,1-1.25.75l-2.66,1.24q-2.66,1.24-5.36,2.4,2.3-1.83,4.64-3.6l2.34-1.76a14,14,0,0,1,1.25-.75l1.25-.75.51-.31.51.31,10,6h-1l10-6,.51-.31.51.31,10,6h-1l10-6,.51-.31.52.31,1.25.75c.42.25.86.45,1.25.74l2.34,1.76Q311,548.78,313.26,550.62Z"/><path class="cls-9" d="M259,471.14q-2.7-1.16-5.36-2.39L251,467.51c-.44-.21-.83-.51-1.25-.76l-1.25-.75h1l-10,6-.51.31-.51-.31-10-6h1l-10,6-.51.31-.51-.31-10-6h1l-1.25.75a14.05,14.05,0,0,1-1.25.75l-2.66,1.24q-2.66,1.24-5.36,2.4,2.3-1.83,4.64-3.6l2.34-1.76a14,14,0,0,1,1.25-.75l1.25-.75L209,464l.51.31,10,6h-1l10-6L229,464l.51.31,10,6h-1l10-6L249,464l.51.31,1.25.75c.42.25.86.45,1.25.74l2.34,1.76Q256.74,469.3,259,471.14Z"/><rect class="cls-12" x="245.24" y="518.57" width="46.62" height="46.62"/><rect class="cls-12" x="232.53" y="565.19" width="72.05" height="91.13"/><polygon class="cls-10" points="359.68 586.63 359.68 656.31 304.58 656.31 304.58 586.63 314.31 586.63 314.31 550.98 349.96 550.98 349.96 586.63 359.68 586.63"/><rect class="cls-11" x="329.39" y="578.01" width="5.48" height="78.3"/><rect class="cls-11" x="266.44" y="552.47" width="4.24" height="103.84"/><rect class="cls-11" x="249.48" y="592.74" width="16.95" height="2.12"/><rect class="cls-11" x="334.25" y="598.35" width="16.95" height="2.12"/><rect class="cls-11" x="270.67" y="609.69" width="16.95" height="2.12"/><rect class="cls-11" x="313.06" y="619.54" width="16.95" height="2.12"/><rect class="cls-11" x="249.48" y="630.88" width="16.95" height="2.12"/><rect class="cls-11" x="334.25" y="634.37" width="16.95" height="2.12"/><polygon class="cls-13" points="1100.35 625.92 1100.35 680.12 1057.5 680.12 1057.5 625.92 1065.06 625.92 1065.06 598.2 1092.79 598.2 1092.79 625.92 1100.35 625.92"/><polygon class="cls-10" points="1057.5 638.68 1057.5 680.12 1024.73 680.12 1024.73 638.68 1030.52 638.68 1030.52 617.47 1051.72 617.47 1051.72 638.68 1057.5 638.68"/><polygon class="cls-10" points="1129.34 642.3 1129.34 680.12 1100.35 680.12 1100.35 642.3 1105.78 642.3 1105.78 622.96 1124.54 622.96 1124.54 642.3 1129.34 642.3"/><rect class="cls-11" x="1077.66" y="618.36" width="2.53" height="61.76"/><rect class="cls-11" x="1039.86" y="628" width="2.52" height="52.12"/><rect class="cls-11" x="1067.58" y="642.31" width="10.08" height="1.26"/><rect class="cls-11" x="1042.38" y="645.64" width="10.08" height="1.26"/><rect class="cls-11" x="1080.19" y="652.39" width="10.08" height="1.26"/><rect class="cls-11" x="1029.77" y="658.25" width="10.08" height="1.26"/><rect class="cls-11" x="1067.58" y="664.99" width="10.08" height="1.26"/><rect class="cls-11" x="1113.27" y="636.82" width="2.52" height="43.3"/><rect class="cls-11" x="1115.47" y="649.43" width="10.08" height="1.26"/><rect class="cls-11" x="1104.13" y="664.55" width="10.08" height="1.26"/><rect class="cls-11" x="1042.38" y="667.07" width="10.08" height="1.26"/><polygon class="cls-13" points="870.19 452.68 870.19 493.53 837.89 493.53 837.89 452.68 843.59 452.68 843.59 431.77 864.49 431.77 864.49 452.68 870.19 452.68"/><polygon class="cls-10" points="837.89 462.29 837.89 493.53 813.19 493.53 813.19 462.29 817.55 462.29 817.55 446.3 833.53 446.3 833.53 462.29 837.89 462.29"/><polygon class="cls-10" points="892.04 465.02 892.04 493.53 870.19 493.53 870.19 465.02 874.29 465.02 874.29 450.44 888.43 450.44 888.43 465.02 892.04 465.02"/><rect class="cls-11" x="853.09" y="446.98" width="1.9" height="46.55"/><rect class="cls-11" x="824.59" y="454.24" width="1.9" height="39.29"/><rect class="cls-11" x="845.49" y="465.03" width="7.6" height="0.95"/><rect class="cls-11" x="826.49" y="467.54" width="7.6" height="0.95"/><rect class="cls-11" x="854.99" y="472.63" width="7.6" height="0.95"/><rect class="cls-11" x="816.99" y="477.04" width="7.6" height="0.95"/><rect class="cls-11" x="845.49" y="482.13" width="7.6" height="0.95"/><rect class="cls-11" x="879.93" y="460.89" width="1.9" height="32.64"/><rect class="cls-11" x="881.59" y="470.39" width="7.6" height="0.95"/><rect class="cls-11" x="873.04" y="481.79" width="7.6" height="0.95"/><rect class="cls-11" x="826.49" y="483.69" width="7.6" height="0.95"/><polygon class="cls-13" points="843.36 240.05 843.36 276.23 814.75 276.23 814.75 240.05 819.8 240.05 819.8 221.54 838.31 221.54 838.31 240.05 843.36 240.05"/><polygon class="cls-10" points="814.75 248.56 814.75 276.23 792.87 276.23 792.87 248.56 796.73 248.56 796.73 234.41 810.89 234.41 810.89 248.56 814.75 248.56"/><polygon class="cls-10" points="859.51 250.99 859.51 238.07 846.99 238.07 846.99 250.99 843.36 250.99 843.36 276.23 862.72 276.23 862.72 250.99 859.51 250.99"/><rect class="cls-11" x="828.21" y="235" width="1.69" height="41.23"/><rect class="cls-11" x="802.97" y="241.43" width="1.68" height="34.8"/><rect class="cls-11" x="821.48" y="250.99" width="6.73" height="0.84"/><rect class="cls-11" x="804.65" y="253.22" width="6.73" height="0.84"/><rect class="cls-11" x="829.9" y="257.72" width="6.73" height="0.84"/><rect class="cls-11" x="796.24" y="261.63" width="6.73" height="0.84"/><rect class="cls-11" x="821.48" y="266.14" width="6.73" height="0.84"/><rect class="cls-11" x="851.99" y="247.33" width="1.68" height="28.91"/><rect class="cls-11" x="853.46" y="255.74" width="6.73" height="0.84"/><rect class="cls-11" x="845.88" y="265.84" width="6.73" height="0.84"/><rect class="cls-11" x="804.65" y="267.52" width="6.73" height="0.84"/><polygon class="cls-10" points="362.98 277.3 362.98 296.85 356.01 296.85 356.01 303.6 348.33 303.6 348.33 307.61 328.77 307.61 328.77 303.6 321.09 303.6 321.09 296.85 313.68 296.85 313.68 277.3 321.09 277.3 321.09 268.68 328.77 268.68 328.77 262.06 348.33 262.06 348.33 268.68 356.01 268.68 356.01 277.3 362.98 277.3"/><rect class="cls-11" x="337.69" y="283.86" width="1.72" height="82.83"/><polygon class="cls-10" points="337.69 337.7 337.69 366.69 315.47 366.69 315.47 337.7 319.39 337.7 319.39 322.87 333.77 322.87 333.77 337.7 337.69 337.7"/><rect class="cls-11" x="325.37" y="333.5" width="1.93" height="33.19"/><rect class="cls-11" x="327.06" y="343.16" width="7.73" height="0.97"/><rect class="cls-11" x="338.97" y="294.99" width="8.92" height="1.11"/><rect class="cls-11" x="329.87" y="288.65" width="8.92" height="1.11"/><rect class="cls-11" x="318.37" y="354.75" width="7.73" height="0.97"/><polygon class="cls-12" points="315.47 351.04 315.47 366.69 303.48 366.69 303.48 351.04 305.32 351.04 305.32 343.04 313.08 343.04 313.08 351.04 315.47 351.04"/><rect class="cls-11" x="308.82" y="348.78" width="1.04" height="17.91"/><rect class="cls-11" x="309.73" y="353.99" width="4.17" height="0.52"/><rect class="cls-11" x="305.04" y="360.25" width="4.17" height="0.52"/><polygon class="cls-12" points="368.73 329.61 368.73 366.69 339.41 366.69 339.41 329.61 344.58 329.61 344.58 310.64 363.55 310.64 363.55 329.61 368.73 329.61"/><polygon class="cls-10" points="391.14 338.34 391.14 366.69 368.73 366.69 368.73 338.34 372.68 338.34 372.68 323.83 387.19 323.83 387.19 338.34 391.14 338.34"/><rect class="cls-11" x="378.82" y="334.83" width="2.23" height="31.86"/><rect class="cls-11" x="353.21" y="324.44" width="1.72" height="42.25"/><rect class="cls-11" x="346.31" y="340.82" width="6.9" height="0.86"/><rect class="cls-11" x="380.8" y="343.1" width="6.9" height="0.86"/><rect class="cls-11" x="354.93" y="347.72" width="6.9" height="0.86"/><rect class="cls-11" x="372.17" y="351.73" width="6.9" height="0.86"/><rect class="cls-11" x="346.31" y="356.34" width="6.9" height="0.86"/><rect class="cls-11" x="380.8" y="357.76" width="6.9" height="0.86"/><polygon class="cls-13" points="408.75 421.38 408.75 476.24 365.37 476.24 365.37 421.38 373.03 421.38 373.03 393.32 401.09 393.32 401.09 421.38 408.75 421.38"/><polygon class="cls-10" points="365.37 434.29 365.37 476.24 332.21 476.24 332.21 434.29 338.06 434.29 338.06 412.83 359.52 412.83 359.52 434.29 365.37 434.29"/><rect class="cls-10" x="414.25" y="418.38" width="18.99" height="19.58"/><rect class="cls-10" x="408.75" y="437.96" width="29.34" height="38.27"/><rect class="cls-11" x="385.79" y="413.73" width="2.55" height="62.51"/><rect class="cls-11" x="347.51" y="423.48" width="2.56" height="52.76"/><rect class="cls-11" x="375.58" y="437.97" width="10.21" height="1.28"/><rect class="cls-11" x="350.07" y="441.34" width="10.21" height="1.28"/><rect class="cls-11" x="388.34" y="448.17" width="10.21" height="1.28"/><rect class="cls-11" x="337.31" y="454.1" width="10.21" height="1.28"/><rect class="cls-11" x="375.58" y="460.93" width="10.21" height="1.28"/><rect class="cls-11" x="421.82" y="432.41" width="2.55" height="43.82"/><rect class="cls-11" x="424.06" y="445.17" width="10.21" height="1.28"/><rect class="cls-11" x="412.58" y="460.48" width="10.21" height="1.28"/><rect class="cls-11" x="350.07" y="463.03" width="10.21" height="1.28"/><polygon class="cls-13" points="590.84 324.96 590.84 357.84 564.84 357.84 564.84 324.96 569.43 324.96 569.43 308.13 586.25 308.13 586.25 324.96 590.84 324.96"/><polygon class="cls-12" points="564.84 332.69 564.84 357.84 544.96 357.84 544.96 332.69 548.47 332.69 548.47 319.83 561.33 319.83 561.33 332.69 564.84 332.69"/><polygon class="cls-10" points="608.43 334.9 608.43 357.84 590.84 357.84 590.84 334.9 594.13 334.9 594.13 323.16 605.52 323.16 605.52 334.9 608.43 334.9"/><rect class="cls-11" x="577.07" y="320.37" width="1.53" height="37.47"/><rect class="cls-11" x="554.13" y="326.22" width="1.53" height="31.62"/><rect class="cls-11" x="570.96" y="334.9" width="6.12" height="0.76"/><rect class="cls-11" x="555.66" y="336.92" width="6.12" height="0.76"/><rect class="cls-11" x="578.6" y="341.02" width="6.12" height="0.76"/><rect class="cls-11" x="548.02" y="344.57" width="6.12" height="0.76"/><rect class="cls-11" x="570.96" y="348.66" width="6.12" height="0.76"/><rect class="cls-11" x="598.68" y="331.57" width="1.53" height="26.27"/><rect class="cls-11" x="600.02" y="339.22" width="6.12" height="0.76"/><rect class="cls-11" x="593.13" y="348.39" width="6.12" height="0.76"/><rect class="cls-11" x="555.66" y="349.92" width="6.12" height="0.76"/><rect class="cls-9" x="385.75" y="242.49" width="168" height="452"/><rect class="cls-8" x="398.01" y="250.49" width="40" height="40"/><rect class="cls-8" x="450.01" y="250.49" width="40" height="40"/><rect class="cls-8" x="502.01" y="250.49" width="40" height="40"/><rect class="cls-8" x="398.01" y="298.49" width="40" height="40"/><rect class="cls-8" x="450.01" y="298.49" width="40" height="40"/><rect class="cls-8" x="502.01" y="298.49" width="40" height="40"/><rect class="cls-8" x="398.01" y="346.49" width="40" height="40"/><rect class="cls-8" x="450.01" y="346.49" width="40" height="40"/><rect class="cls-8" x="502.01" y="346.49" width="40" height="40"/><rect class="cls-8" x="398.01" y="394.49" width="40" height="40"/><rect class="cls-8" x="450.01" y="394.49" width="40" height="40"/><rect class="cls-8" x="502.01" y="394.49" width="40" height="40"/><rect class="cls-8" x="398.01" y="442.49" width="40" height="40"/><rect class="cls-8" x="450.01" y="442.49" width="40" height="40"/><rect class="cls-8" x="502.01" y="442.49" width="40" height="40"/><rect class="cls-8" x="398.01" y="490.49" width="40" height="40"/><rect class="cls-8" x="450.01" y="490.49" width="40" height="40"/><rect class="cls-8" x="502.01" y="490.49" width="40" height="40"/><rect class="cls-8" x="398.01" y="538.49" width="40" height="40"/><rect class="cls-8" x="450.01" y="538.49" width="40" height="40"/><rect class="cls-8" x="502.01" y="538.49" width="40" height="40"/><rect class="cls-8" x="398.01" y="586.49" width="40" height="40"/><rect class="cls-8" x="450.01" y="586.49" width="40" height="40"/><rect class="cls-8" x="502.01" y="586.49" width="40" height="40"/><rect class="cls-8" x="398.01" y="635.28" width="40" height="59.21"/><rect class="cls-8" x="450.01" y="634.49" width="40" height="40"/><rect class="cls-8" x="502.01" y="634.49" width="40" height="40"/><rect class="cls-5" x="431.4" y="234.49" width="76.7" height="8"/><rect class="cls-6" x="440.89" y="226.49" width="57.72" height="8"/><rect class="cls-5" x="423.49" y="218.49" width="92.52" height="8"/><rect class="cls-5" x="449.44" y="90.49" width="40.62" height="8"/><rect class="cls-5" x="445.25" y="106.49" width="49" height="8"/><rect class="cls-6" x="454.46" y="98.49" width="30.58" height="8"/><rect class="cls-9" x="359.65" y="114.49" width="220" height="104"/><rect class="cls-8" x="371.75" y="122.49" width="40" height="40"/><rect class="cls-8" x="423.75" y="122.49" width="40" height="40"/><rect class="cls-8" x="475.75" y="122.49" width="40" height="40"/><rect class="cls-8" x="527.75" y="122.49" width="40" height="40"/><rect class="cls-8" x="371.75" y="170.49" width="40" height="40"/><rect class="cls-8" x="423.75" y="170.49" width="40" height="40"/><rect class="cls-8" x="475.75" y="170.49" width="40" height="40"/><rect class="cls-8" x="527.75" y="170.49" width="40" height="40"/><rect class="cls-9" x="890.28" y="322" width="32" height="384.5"/><rect class="cls-9" x="842.28" y="234" width="128" height="64"/><rect class="cls-8" x="842.28" y="246" width="128" height="40"/><rect class="cls-5" x="873.81" y="314" width="63.6" height="8"/><rect class="cls-6" x="881.68" y="306" width="47.86" height="8"/><rect class="cls-5" x="867.26" y="298" width="76.71" height="8"/><rect class="cls-5" x="879.25" y="210" width="52.72" height="8"/><rect class="cls-6" x="885.77" y="218" width="39.68" height="8"/><rect class="cls-5" x="873.81" y="226" width="63.6" height="8"/><polygon class="cls-5" points="1193.79 748.14 1151.96 789.96 1104.13 837.79 324.38 837.79 324.38 748.14 1193.79 748.14"/><rect class="cls-14" x="350.62" y="789.96" width="51.2" height="6"/><rect class="cls-14" x="425.82" y="789.96" width="51.2" height="6"/><rect class="cls-14" x="501.02" y="789.96" width="51.2" height="6"/><rect class="cls-14" x="576.22" y="789.96" width="51.2" height="6"/><rect class="cls-14" x="651.42" y="789.96" width="51.2" height="6"/><rect class="cls-14" x="726.62" y="789.96" width="51.2" height="6"/><rect class="cls-14" x="801.82" y="789.96" width="51.2" height="6"/><rect class="cls-14" x="877.02" y="789.96" width="51.2" height="6"/><rect class="cls-14" x="952.22" y="789.96" width="51.2" height="6"/><rect class="cls-14" x="1027.42" y="789.96" width="51.2" height="6"/><polygon class="cls-14" points="1151.96 789.96 1145.96 795.96 1102.62 795.96 1102.62 789.96 1151.96 789.96"/><polygon class="cls-9" points="652.13 759.28 652.13 771.05 551.51 771.05 551.51 758.85 566.54 758.85 566.54 735.92 637.11 735.92 637.11 759.28 652.13 759.28"/><rect class="cls-15" x="569" y="766.22" width="12.63" height="12.63" transform="translate(714.77 -180.54) rotate(45)"/><rect class="cls-15" x="622.68" y="766.22" width="12.63" height="12.63" transform="translate(730.49 -218.5) rotate(45)"/><rect class="cls-8" x="575.31" y="742.15" width="22.71" height="17.12"/><rect class="cls-8" x="606.29" y="742.15" width="22.71" height="17.12"/><rect class="cls-9" x="908.77" y="769.46" width="152.38" height="47.13"/><rect class="cls-15" x="921.39" y="810.28" width="12.63" height="12.63" transform="translate(849.14 -416.81) rotate(45)"/><rect class="cls-15" x="1036.71" y="811.76" width="12.63" height="12.63" transform="translate(883.96 -497.92) rotate(45)"/><rect class="cls-8" x="908.77" y="776.71" width="24.37" height="24"/><rect class="cls-8" x="939.14" y="776.71" width="24.37" height="24"/><rect class="cls-8" x="969.52" y="776.71" width="24.37" height="24"/><rect class="cls-8" x="999.89" y="776.71" width="24.37" height="24"/><rect class="cls-8" x="1030.26" y="776.71" width="24.37" height="24"/><rect class="cls-9" x="581.95" y="530.49" width="272" height="164"/><rect class="cls-8" x="593.95" y="538.49" width="40" height="40"/><rect class="cls-8" x="645.95" y="538.49" width="40" height="40"/><rect class="cls-8" x="697.95" y="538.49" width="40" height="40"/><rect class="cls-8" x="749.95" y="538.49" width="40" height="40"/><rect class="cls-8" x="801.95" y="538.49" width="40" height="40"/><rect class="cls-8" x="593.95" y="586.49" width="40" height="40"/><rect class="cls-8" x="645.95" y="586.49" width="40" height="40"/><rect class="cls-8" x="697.95" y="586.49" width="40" height="40"/><rect class="cls-8" x="749.95" y="586.49" width="40" height="40"/><rect class="cls-8" x="801.95" y="586.49" width="40" height="40"/><rect class="cls-8" x="593.95" y="634.49" width="40" height="40"/><rect class="cls-8" x="645.95" y="634.49" width="40" height="40"/><rect class="cls-8" x="697.95" y="634.49" width="40" height="40"/><rect class="cls-8" x="749.95" y="634.49" width="40" height="60"/><rect class="cls-8" x="801.95" y="634.49" width="40" height="40"/><rect class="cls-10" x="674.62" y="757.46" width="80" height="24"/><path class="cls-6" d="M717.9,766.2a2.68,2.68,0,0,0-.72-1,2.5,2.5,0,0,0-1-.48,10.41,10.41,0,0,0-2-.14h-2.44v8.58h2.19v-2.83h.83a7.07,7.07,0,0,0,1.57-.12,2.37,2.37,0,0,0,.86-.41,2.15,2.15,0,0,0,.72-1,3.29,3.29,0,0,0,.25-1.35A3.34,3.34,0,0,0,717.9,766.2Zm-2.35,2a2.17,2.17,0,0,1-1.18.24h-.45v-2h.47a2.1,2.1,0,0,1,1.17.23,1.07,1.07,0,0,1,0,1.54Z"/><rect class="cls-10" x="449.46" y="757.46" width="80" height="24"/><path class="cls-6" d="M492.74,766.2a2.68,2.68,0,0,0-.72-1,2.5,2.5,0,0,0-1-.48,10.41,10.41,0,0,0-2-.14h-2.44v8.58h2.19v-2.83h.82a7,7,0,0,0,1.57-.12,2.34,2.34,0,0,0,.87-.41,2.15,2.15,0,0,0,.72-1,3.46,3.46,0,0,0,.25-1.35A3.53,3.53,0,0,0,492.74,766.2Zm-2.35,2a2.17,2.17,0,0,1-1.18.24h-.45v-2h.47a2.1,2.1,0,0,1,1.17.23,1.07,1.07,0,0,1,0,1.54Z"/><polygon class="cls-13" points="603.98 635.03 603.98 722.96 534.45 722.96 534.45 635.03 546.72 635.03 546.72 590.04 591.71 590.04 591.71 635.03 603.98 635.03"/><polygon class="cls-10" points="534.45 655.72 534.45 722.96 481.28 722.96 481.28 655.72 490.66 655.72 490.66 621.31 525.07 621.31 525.07 655.72 534.45 655.72"/><polygon class="cls-10" points="651.02 661.61 651.02 722.96 603.98 722.96 603.98 661.61 612.8 661.61 612.8 630.22 643.23 630.22 643.23 661.61 651.02 661.61"/><rect class="cls-11" x="567.17" y="622.76" width="4.09" height="100.2"/><rect class="cls-11" x="505.82" y="638.4" width="4.09" height="84.56"/><rect class="cls-11" x="550.81" y="661.61" width="16.36" height="2.05"/><rect class="cls-11" x="509.91" y="667.03" width="16.36" height="2.05"/><rect class="cls-11" x="571.26" y="677.97" width="16.36" height="2.05"/><rect class="cls-11" x="489.46" y="687.48" width="16.36" height="2.05"/><rect class="cls-11" x="550.81" y="698.42" width="16.36" height="2.05"/><rect class="cls-11" x="624.95" y="652.71" width="4.09" height="70.25"/><rect class="cls-11" x="628.52" y="673.16" width="16.36" height="2.05"/><rect class="cls-11" x="610.12" y="697.7" width="16.36" height="2.05"/><rect class="cls-11" x="509.91" y="701.79" width="16.36" height="2.05"/><polygon class="cls-13" points="910.47 641.03 910.47 707.77 853.31 707.77 853.31 641.03 863.4 641.03 863.4 606.89 900.39 606.89 900.39 641.03 910.47 641.03"/><polygon class="cls-10" points="853.31 656.73 853.31 707.77 809.6 707.77 809.6 656.73 817.31 656.73 817.31 630.63 845.59 630.63 845.59 656.73 853.31 656.73"/><polygon class="cls-10" points="949.14 661.2 949.14 707.77 910.47 707.77 910.47 661.2 917.72 661.2 917.72 637.38 942.74 637.38 942.74 661.2 949.14 661.2"/><rect class="cls-11" x="880.21" y="631.72" width="3.36" height="76.05"/><rect class="cls-11" x="829.77" y="643.59" width="3.36" height="64.18"/><rect class="cls-11" x="866.76" y="661.21" width="13.45" height="1.55"/><rect class="cls-11" x="833.13" y="665.32" width="13.45" height="1.55"/><rect class="cls-11" x="883.57" y="673.62" width="13.45" height="1.55"/><rect class="cls-11" x="816.32" y="680.84" width="13.45" height="1.55"/><rect class="cls-11" x="866.76" y="689.14" width="13.45" height="1.55"/><rect class="cls-11" x="927.71" y="654.45" width="3.36" height="53.32"/><rect class="cls-11" x="930.65" y="669.97" width="13.45" height="1.55"/><rect class="cls-11" x="915.52" y="688.59" width="13.45" height="1.55"/><rect class="cls-11" x="833.13" y="691.7" width="13.45" height="1.55"/><polygon class="cls-9" points="324.27 520.58 324.27 876.58 0 876.58 0 520.58 104.27 520.58 104.27 371.58 220 371.58 220 520.58 324.27 520.58"/><rect class="cls-8" x="116.27" y="432.58" width="40" height="40"/><rect class="cls-8" x="116.27" y="379.99" width="40" height="40"/><rect class="cls-8" x="168.53" y="379.99" width="40" height="40"/><rect class="cls-8" x="116.27" y="480.58" width="40" height="40"/><rect class="cls-8" x="12.27" y="528.58" width="40" height="40"/><rect class="cls-8" x="64.27" y="528.58" width="40" height="40"/><rect class="cls-8" x="116.27" y="528.58" width="40" height="40"/><rect class="cls-8" x="12.27" y="576.58" width="40" height="40"/><rect class="cls-8" x="64.27" y="576.58" width="40" height="40"/><rect class="cls-8" x="116.27" y="576.58" width="40" height="40"/><rect class="cls-8" x="12.27" y="624.58" width="40" height="40"/><rect class="cls-8" x="64.27" y="624.58" width="40" height="40"/><rect class="cls-8" x="116.27" y="624.58" width="40" height="40"/><rect class="cls-8" x="12.27" y="672.58" width="40" height="40"/><rect class="cls-8" x="64.27" y="672.58" width="40" height="40"/><rect class="cls-8" x="116.27" y="672.58" width="40" height="40"/><rect class="cls-8" x="12.27" y="720.58" width="40" height="40"/><rect class="cls-8" x="64.27" y="720.58" width="40" height="40"/><rect class="cls-8" x="12.27" y="768.58" width="40" height="40"/><rect class="cls-8" x="64.27" y="768.58" width="40" height="40"/><rect class="cls-8" x="64.27" y="816.58" width="40" height="40"/><rect class="cls-8" x="12.27" y="816.58" width="40" height="40"/><rect class="cls-8" x="168.53" y="432.58" width="40" height="40"/><rect class="cls-8" x="168.53" y="480.58" width="40" height="40"/><rect class="cls-8" x="168.53" y="528.58" width="40" height="40"/><rect class="cls-8" x="220.53" y="528.58" width="40" height="40"/><rect class="cls-8" x="272.53" y="528.58" width="40" height="40"/><rect class="cls-8" x="168.53" y="576.58" width="40" height="40"/><rect class="cls-8" x="220.53" y="576.58" width="40" height="40"/><rect class="cls-8" x="272.53" y="576.58" width="40" height="40"/><rect class="cls-8" x="168.53" y="624.58" width="40" height="40"/><rect class="cls-8" x="220.53" y="624.58" width="40" height="40"/><rect class="cls-8" x="272.53" y="624.58" width="40" height="40"/><rect class="cls-8" x="168.53" y="672.58" width="40" height="40"/><rect class="cls-8" x="116.27" y="720.58" width="40" height="40"/><rect class="cls-8" x="168.53" y="720.58" width="40" height="40"/><rect class="cls-8" x="220.53" y="672.58" width="40" height="40"/><rect class="cls-8" x="272.53" y="672.58" width="40" height="40"/><rect class="cls-8" x="116.27" y="768.58" width="92.26" height="108.04"/><rect class="cls-8" x="220.53" y="720.58" width="40" height="40"/><rect class="cls-8" x="272.53" y="720.58" width="40" height="40"/><rect class="cls-8" x="220.53" y="768.58" width="40" height="40"/><rect class="cls-8" x="272.53" y="768.58" width="40" height="40"/><rect class="cls-8" x="220.53" y="816.58" width="40" height="40"/><rect class="cls-8" x="272.53" y="816.58" width="40" height="40"/></g><g id="Layer_11" data-name="Layer 11"><polygon class="cls-4" points="378.77 80 378.77 0 394.77 0 394.77 8 386.77 8 386.77 72 394.77 72 394.77 80 378.77 80"/><polygon class="cls-4" points="402.75 70 402.75 10 414.75 10 414.75 16 408.75 16 408.75 64 414.75 64 414.75 70 402.75 70"/><polygon class="cls-4" points="426.73 60 426.73 20 434.73 20 434.73 24 430.73 24 430.73 56 434.73 56 434.73 60 426.73 60"/><polygon class="cls-4" points="504.77 60 504.77 56 508.77 56 508.77 24 504.77 24 504.77 20 512.77 20 512.77 60 504.77 60"/><polygon class="cls-4" points="524.75 70 524.75 64 530.75 64 530.75 16 524.75 16 524.75 10 536.75 10 536.75 70 524.75 70"/><polygon class="cls-4" points="544.73 80 544.73 72 552.73 72 552.73 8 544.73 8 544.73 0 560.73 0 560.73 80 544.73 80"/><polygon class="cls-4" points="851.99 202.24 851.99 154.24 861.59 154.24 861.59 159.04 856.79 159.04 856.79 197.44 861.59 197.44 861.59 202.24 851.99 202.24"/><polygon class="cls-4" points="866.38 196.24 866.38 160.24 873.58 160.24 873.58 163.84 869.98 163.84 869.98 192.64 873.58 192.64 873.58 196.24 866.38 196.24"/><polygon class="cls-4" points="880.76 190.24 880.76 166.24 885.56 166.24 885.56 168.64 883.16 168.64 883.16 187.84 885.56 187.84 885.56 190.24 880.76 190.24"/><polygon class="cls-4" points="927.59 190.24 927.59 187.84 929.99 187.84 929.99 168.64 927.59 168.64 927.59 166.24 932.39 166.24 932.39 190.24 927.59 190.24"/><polygon class="cls-4" points="939.58 196.24 939.58 192.64 943.18 192.64 943.18 163.84 939.58 163.84 939.58 160.24 946.78 160.24 946.78 196.24 939.58 196.24"/><polygon class="cls-4" points="951.56 202.24 951.56 197.44 956.36 197.44 956.36 159.04 951.56 159.04 951.56 154.24 961.16 154.24 961.16 202.24 951.56 202.24"/><path class="cls-4" d="M733.48,735.78v-7.54H695.77v7.54h3.77V732h30.17v3.77Zm-4.72,9.41v-5.65H700.48v5.65h2.83v-2.82h22.62v2.82Zm-91.65-9.27H566.54v12.22H324.38v89.65h779.75L1152,790l41.83-41.82H637.11Zm-128.8-.14v-7.54h-37.7v7.54h3.77V732h30.16v3.77Zm-4.71,9.41v-5.65H475.32v5.65h2.83v-2.82h22.62v2.82ZM359.68,656.31V586.63H350V551h-7.43V527.62h43.22V694.49h95.53V723H651V694.49H809.6v13.28H949.14V661.2h-6.4V642h82v38.15h104.61V642.3h-4.8V642h48.25l62.2-62.22h-90V552l8.69-8.69-10.61-10.6-10.6,10.6,8.69,8.7v27.69H1055V552l5.29-5.29h27.23V511.6h-4.9v-18h-18v18h-4.91V500.78h-6.41V477.26h-23.53v23.52h-6.41V473.49h11.05v-5h9.53v-8.37h8.65V438h101l10-10h.1l19.9-20,10-10H1077.73v-1.28l-.23.23-25-25H922.28V322h15.13v-8h-7.87v-8H944v-8h26.31V234H937.41v-8h-12v-8H932v-8H908.79V189.33h12.94v-2.95H908.79v-6.66h10.35v-3H908.79v-6.65H916v-3h-7.24v-15.9h-4.43v15.9h-7.24v3h7.24v6.65H894v3h10.35v6.66H891.42v2.95h12.94V210H879.25v8h6.52v8h-12v8H842.28v6h-4V221.54H819.8V240h-5.05v4.32h-3.86v-10H796.73v10H784v-20H749.86V171H697.73V123H639.86v48H587.73V325h-1.48V308.13H569.43V325h-4.59v7.73h-3.51V319.83h-7.58V242.49H508.1v-8h-9.49v-8H516v-8h63.64v-104h-85.4v-8H485v-8h5v-8H473.15v-32h8.25v-4h-8.25v-9h14v-4h-14v-9h6.58v-4h-6.58V7h-6v21.5h-6.57v4h6.57v9h-14v4h14v9h-8.24v4h8.24v32H449.44v8h5v8h-9.21v8h-85.6v104h63.84v8h17.4v8H431.4v8H385.75v81.34H372.68v14.51h-4v-8.73h-5.18v-19h-19v19h-5.17v-22h8.92v-4H356v-6.75h7V277.3h-7v-8.62h-7.68v-6.62H328.77v6.62h-7.68v8.62h-7.41v19.55h7.41v6.75h7.68v4h8.92V337.7h-3.92V322.87H319.39V337.7h-3.92V351h-2.39v-8h-7.76v8h-1.84v15.65h82.27v26.63H373V398H220V371.58H104.27v149H0v356H116.27v0h92.26v0H324.27V656.31ZM875,579.75V552l8.69-8.69-10.61-10.6-10.6,10.6,8.69,8.7v27.69H854V530.49H762.13V512.42H755.8V489.23H732.61v23.19h-6.33v18.07h-.05V516.27h-4.89V495H700.76v21.22h-6.34V473.2h12.76v-5.74h11V457.8h10.61V438h114.8v14.68h-5.7v9.61h-4.36v-16h-16v16h-4.36v31.24h77.09v86.22ZM553.75,438H658.21v19.8h10v9.66h11v5.74H692v31.5h-7.4V477.55H657.4V504.7H650v12.48h-5.67V496.42H623.57v20.76h-5.66v13.31H582V590h-28.2Zm336.53,27h-1.85V450.44H874.29V465h-4.1V452.68h-5.7V438h25.79ZM322.53,487.61v-40H220V438H332.21v38.24h53.54v11.37Zm678.1-27.46v8.37h9.53v5h11.06v37.32h-5.49V492.42H997.9v18.39h-4.24v16.55h-3v-9.92h-9.63v9.92h-2.28v19.4h67.08l5.29,5.3v27.69H965V552.06l8.69-8.7-10.61-10.6-10.6,10.6,8.69,8.7v27.69H922.28V438h69.16v22.15ZM608.43,357.84V349h37.43v0H692v0h57.87V324.37H814v-20h20.33v-20H784v-20h8.83v11.86h49.41V298h25v8h14.42v8h-7.87v8h16.47v50H757.73v26h-6.32V372H553.75V357.84Z"/><g id="Layer_7" data-name="Layer 7"><rect class="cls-16" x="713.68" y="742.35" width="1.89" height="18.85" transform="translate(1466.4 37.16) rotate(90)"/><rect class="cls-16" x="705.2" y="752.72" width="1.89" height="1.89" transform="translate(1459.81 47.53) rotate(90)"/><rect class="cls-16" x="722.16" y="752.72" width="1.89" height="1.89" transform="translate(1476.77 30.56) rotate(90)"/><rect class="cls-16" x="700.48" y="739.54" width="28.28" height="2.83"/><rect class="cls-16" x="700.48" y="742.37" width="2.83" height="2.82"/><rect class="cls-16" x="725.93" y="742.37" width="2.83" height="2.82"/><rect class="cls-16" x="695.77" y="728.24" width="37.71" height="3.77"/><rect class="cls-16" x="695.77" y="732.01" width="3.77" height="3.77"/><rect class="cls-16" x="729.71" y="732.01" width="3.77" height="3.77"/><rect class="cls-16" x="488.52" y="742.35" width="1.89" height="18.85" transform="translate(1241.24 262.32) rotate(90)"/><rect class="cls-16" x="480.04" y="752.72" width="1.89" height="1.89" transform="translate(1234.64 272.69) rotate(90)"/><rect class="cls-16" x="497" y="752.72" width="1.89" height="1.89" transform="translate(1251.61 255.72) rotate(90)"/><rect class="cls-16" x="475.32" y="739.54" width="28.28" height="2.83"/><rect class="cls-16" x="475.32" y="742.37" width="2.83" height="2.82"/><rect class="cls-16" x="500.77" y="742.37" width="2.83" height="2.82"/><rect class="cls-16" x="470.61" y="728.24" width="37.7" height="3.77"/><rect class="cls-16" x="470.61" y="732.01" width="3.77" height="3.77"/><rect class="cls-16" x="504.54" y="732.01" width="3.77" height="3.77"/><path class="cls-17" d="M941,610.86l22.06,22.06,22.06-22.06-20.19-20.19s0,20.2,0,20.19-3.8,0-3.83,0,0-20.16,0-20.15Z"/><rect class="cls-16" x="453.16" y="41.49" width="33.99" height="4"/><rect class="cls-16" x="458.91" y="54.49" width="22.49" height="4"/><rect class="cls-16" x="460.58" y="28.49" width="19.15" height="4"/><rect class="cls-16" x="467.15" y="6.99" width="6" height="83.5"/><rect class="cls-16" x="426.73" y="20" width="4" height="40"/><rect class="cls-16" x="430.73" y="20" width="4" height="4"/><rect class="cls-16" x="430.73" y="56" width="4" height="4"/><rect class="cls-16" x="402.75" y="10" width="6" height="60"/><rect class="cls-16" x="408.75" y="10" width="6" height="6"/><rect class="cls-16" x="408.75" y="64" width="6" height="6"/><rect class="cls-16" x="378.77" width="8" height="80"/><rect class="cls-16" x="386.77" width="8" height="8"/><rect class="cls-16" x="386.77" y="72" width="8" height="8"/><rect class="cls-16" x="508.77" y="20" width="4" height="40"/><rect class="cls-16" x="504.77" y="20" width="4" height="4"/><rect class="cls-16" x="504.77" y="56" width="4" height="4"/><rect class="cls-16" x="530.75" y="10" width="6" height="60"/><rect class="cls-16" x="524.75" y="10" width="6" height="6"/><rect class="cls-16" x="524.75" y="64" width="6" height="6"/><rect class="cls-16" x="552.73" width="8" height="80"/><rect class="cls-16" x="544.73" width="8" height="8"/><rect class="cls-16" x="544.73" y="72" width="8" height="8"/><rect class="cls-16" x="440.89" y="226.49" width="57.72" height="8"/><rect class="cls-16" x="454.46" y="98.49" width="30.58" height="8"/><rect class="cls-16" x="894.01" y="176.76" width="25.13" height="2.96"/><rect class="cls-16" x="891.42" y="186.38" width="30.31" height="2.95"/><rect class="cls-16" x="897.12" y="167.15" width="18.91" height="2.96"/><rect class="cls-16" x="904.36" y="151.25" width="4.43" height="58.75"/><rect class="cls-16" x="880.76" y="166.24" width="2.4" height="24"/><rect class="cls-16" x="883.16" y="166.24" width="2.4" height="2.4"/><rect class="cls-16" x="883.16" y="187.84" width="2.4" height="2.4"/><rect class="cls-16" x="866.38" y="160.24" width="3.6" height="36"/><rect class="cls-16" x="869.98" y="160.24" width="3.6" height="3.6"/><rect class="cls-16" x="869.98" y="192.64" width="3.6" height="3.6"/><rect class="cls-16" x="851.99" y="154.24" width="4.8" height="48"/><rect class="cls-16" x="856.79" y="154.24" width="4.8" height="4.8"/><rect class="cls-16" x="856.79" y="197.44" width="4.8" height="4.8"/><rect class="cls-16" x="929.99" y="166.24" width="2.4" height="24"/><rect class="cls-16" x="927.59" y="166.24" width="2.4" height="2.4"/><rect class="cls-16" x="927.59" y="187.84" width="2.4" height="2.4"/><rect class="cls-16" x="943.18" y="160.24" width="3.6" height="36"/><rect class="cls-16" x="939.58" y="160.24" width="3.6" height="3.6"/><rect class="cls-16" x="939.58" y="192.64" width="3.6" height="3.6"/><rect class="cls-16" x="956.36" y="154.24" width="4.8" height="48"/><rect class="cls-16" x="951.56" y="154.24" width="4.8" height="4.8"/><rect class="cls-16" x="951.56" y="197.44" width="4.8" height="4.8"/><rect class="cls-16" x="881.68" y="306" width="47.86" height="8"/><rect class="cls-16" x="885.77" y="218" width="39.68" height="8"/></g><g id="Layer_8" data-name="Layer 8"><rect class="cls-18" x="871.16" y="550.86" width="3.83" height="56.03"/><polygon class="cls-19" points="883.68 543.36 874.99 552.05 873.07 553.97 871.16 552.06 862.47 543.36 873.07 532.76 883.68 543.36"/><polygon class="cls-18" points="964.99 552.06 964.99 610.86 961.16 610.86 961.16 552.06 963.07 553.97 964.99 552.06"/><polygon class="cls-6" points="973.68 543.36 964.99 552.06 963.07 553.97 961.16 552.06 952.47 543.36 963.07 532.76 973.68 543.36"/><rect class="cls-18" x="1051.16" y="550.86" width="3.83" height="60"/><polygon class="cls-19" points="1063.68 543.36 1054.99 552.05 1053.07 553.97 1051.16 552.06 1045.87 546.76 1042.47 543.36 1053.07 532.76 1059.71 539.39 1063.68 543.36"/><rect class="cls-18" x="1141.16" y="550.86" width="3.83" height="60"/><polygon class="cls-19" points="1153.68 543.36 1144.99 552.05 1143.07 553.97 1141.16 552.06 1132.47 543.36 1143.07 532.76 1153.68 543.36"/><rect class="cls-20" x="970.29" y="606.22" width="4.38" height="13.9"/><rect class="cls-21" x="968.22" y="594.07" width="9.31" height="17.06"/><rect class="cls-14" x="971.19" y="587.95" width="4.12" height="6.12"/><rect class="cls-21" x="971.19" y="587.95" width="7.23" height="1.31"/><rect class="cls-21" x="971.19" y="585.94" width="4.12" height="2.01"/><rect class="cls-20" x="972.48" y="597.61" width="2.19" height="6.59"/><rect class="cls-14" x="972.48" y="604.21" width="2.19" height="2.01"/></g><g id="Layer_9" data-name="Layer 9"><polygon class="cls-16" points="973.68 543.36 964.99 552.06 963.07 553.97 961.16 552.06 952.47 543.36 963.07 532.76 973.68 543.36"/></g></g></g></g></g></svg>