<?xml version="1.0" encoding="UTF-8"?>
<svg width="444px" height="67px" viewBox="0 0 444 67" version="1.1" xmlns="http://www.w3.org/2000/svg" xmlns:xlink="http://www.w3.org/1999/xlink">
    <!-- Generator: Sketch 53 (72520) - https://sketchapp.com -->
    <title>flatzone</title>
    <desc>Created with Sketch.</desc>
    <g id="Page-1" stroke="none" stroke-width="1" fill="none" fill-rule="evenodd">
        <g id="flatzone">
            <path d="M346.679688,19.257813 C349.304688,17.914063 352.289063,17.285156 355.589844,17.285156 C361.207031,17.285156 365.894531,19.207031 369.183594,22.699219 C372.398438,26.113281 374.222656,30.972656 374.222656,36.945313 L374.222656,65.246094 L362.71875,65.246094 L362.71875,37.371094 C362.71875,34.4375 361.933594,32.191406 360.503906,30.714844 C359.066406,29.230469 356.890625,28.445313 354.132813,28.445313 C351.050781,28.445313 348.308594,29.371094 346.464844,31.46875 C344.777344,33.386719 343.753906,36.339844 343.753906,40.539063 L343.753906,65.246094 L332.25,65.246094 L332.25,18.398438 L343.753906,18.398438 L343.753906,21.183594 C344.664063,20.429688 345.636719,19.789063 346.679688,19.257813 Z M423.632813,47.273438 L390.425781,47.273438 C391.238281,49.4375 392.539063,51.1875 394.207031,52.488281 C396.550781,54.3125 399.675781,55.285156 403.265625,55.285156 C405.734375,55.285156 407.859375,54.753906 409.601563,53.871094 C411.484375,52.917969 412.925781,51.550781 413.863281,50.011719 L414.882813,48.339844 L416.589844,49.308594 L422.921875,52.902344 L424.785156,53.960938 L423.617188,55.761719 C421.492188,59.050781 418.5625,61.765625 414.929688,63.628906 C411.542969,65.371094 407.566406,66.359375 403.09375,66.359375 C395.738281,66.359375 389.574219,63.785156 385.195313,59.488281 C380.699219,55.074219 378.125,48.878906 378.125,41.824219 C378.125,34.855469 380.675781,28.652344 385.09375,24.21875 C389.394531,19.902344 395.433594,17.285156 402.578125,17.285156 C409.421875,17.285156 415.113281,20.011719 419.179688,24.320313 C423.480469,28.878906 425.921875,35.203125 425.921875,41.90625 C425.921875,42.496094 425.894531,43.101563 425.847656,43.726563 C425.800781,44.359375 425.726563,44.96875 425.640625,45.554688 L425.375,47.273438 L423.632813,47.273438 Z M410.464844,31.230469 C408.3125,29.292969 405.496094,28.359375 402.578125,28.359375 C399.097656,28.359375 396.171875,29.398438 393.996094,31.222656 C392.328125,32.617188 391.082031,34.488281 390.339844,36.710938 L413.832031,36.710938 C413.121094,34.375 411.941406,32.558594 410.464844,31.230469 Z M170.503906,26.5625 L150.875,54.089844 L171.742188,54.089844 L171.742188,65.246094 L134.734375,65.246094 L134.734375,57.617188 L135.113281,57.085938 L154.664063,29.558594 L135.589844,29.558594 L135.589844,18.398438 L170.886719,18.398438 L170.886719,26.027344 L170.503906,26.5625 Z M178.21875,24.882813 C182.410156,20.46875 188.25,17.652344 194.792969,17.324219 C255.945313,17.289063 305.542969,17.355469 305.542969,17.355469 C311.960938,17.816406 317.695313,20.683594 321.804688,25.097656 C325.851563,29.449219 328.324219,35.292969 328.324219,41.824219 C328.324219,48.351563 325.851563,54.195313 321.804688,58.550781 C317.695313,62.960938 311.960938,65.828125 305.542969,66.289063 L303.371094,66.398438 L196.917969,66.429688 L194.792969,66.324219 C188.253906,65.996094 182.410156,63.179688 178.21875,58.761719 C174.070313,54.386719 171.535156,48.457031 171.535156,41.824219 C171.535156,35.1875 174.070313,29.257813 178.21875,24.882813 Z M196.792969,28.519531 L195.03125,28.652344 C191.59375,28.902344 188.582031,30.417969 186.4375,32.761719 C184.316406,35.085938 183.039063,38.246094 183.039063,41.824219 C183.039063,45.398438 184.316406,48.558594 186.4375,50.882813 C188.582031,53.226563 191.59375,54.738281 195.03125,54.992188 L305.195313,54.953125 C308.554688,54.605469 311.476563,53.058594 313.546875,50.730469 C315.59375,48.421875 316.820313,45.320313 316.820313,41.824219 C316.820313,38.324219 315.59375,35.222656 313.546875,32.914063 C311.476563,30.585938 308.554688,29.042969 305.195313,28.6875 L303.59375,28.519531 L196.792969,28.519531 Z" id="Shape" fill="#00ADB5"></path>
            <path d="M132.199219,20.425781 L132.199219,29.640625 L120.816406,29.640625 L120.816406,50.808594 C120.816406,54.082031 122.355469,54.679688 125.464844,54.679688 C126.691406,54.679688 127.898438,54.625 129.242188,54.5625 L130.085938,54.523438 L132.199219,54.425781 L132.199219,64.988281 L130.433594,65.222656 C123.539063,66.144531 118.390625,65.628906 114.855469,63.371094 C111.117188,60.988281 109.3125,56.902344 109.3125,50.808594 L109.3125,29.640625 L100.839844,29.640625 L100.839844,18.398438 L109.3125,18.398438 L109.3125,9.160156 L110.761719,8.726563 L118.210938,6.5 L120.816406,5.722656 L120.816406,18.398438 L132.199219,18.398438 L132.199219,20.425781 Z M63.550781,51.320313 C65.890625,53.6875 69.179688,55.113281 72.910156,55.113281 C76.679688,55.113281 79.992188,53.6875 82.34375,51.320313 C84.695313,48.957031 86.117188,45.628906 86.117188,41.824219 C86.117188,38.015625 84.695313,34.6875 82.34375,32.324219 C79.992188,29.957031 76.679688,28.53125 72.910156,28.53125 C69.179688,28.53125 65.890625,29.957031 63.550781,32.324219 L63.550781,32.332031 C61.207031,34.699219 59.789063,38.023438 59.789063,41.824219 C59.789063,45.628906 61.207031,48.953125 63.550781,51.320313 Z M86.117188,22.363281 L88.917969,18.398438 L97.621094,18.398438 L97.621094,65.246094 L86.117188,65.246094 L86.117188,61.28125 C84.9375,62.320313 83.640625,63.214844 82.222656,63.960938 C79.269531,65.503906 75.839844,66.359375 71.96875,66.359375 C65.417969,66.359375 59.457031,63.632813 55.152344,59.15625 C50.914063,54.753906 48.285156,48.660156 48.285156,41.824219 C48.285156,34.984375 50.914063,28.890625 55.152344,24.488281 C59.457031,20.011719 65.417969,17.285156 71.96875,17.285156 C75.839844,17.285156 79.269531,18.140625 82.222656,19.6875 C83.640625,20.429688 84.9375,21.328125 86.117188,22.363281 Z M12.304688,4.960938 C15.851563,1.753906 21.015625,0.167969 27.6875,0.167969 C28.53125,0.167969 29.367188,0.1875 30.195313,0.230469 L30.195313,10.960938 C29.363281,10.925781 28.53125,10.898438 27.6875,10.898438 C24.449219,10.898438 22.058594,11.453125 20.570313,12.742188 C19.261719,13.875 18.542969,15.710938 18.433594,18.398438 L32.042969,18.398438 L32.042969,29.640625 L18.417969,29.640625 L18.417969,65.246094 L6.914063,65.246094 L6.914063,29.640625 L0.066406,29.640625 L0.066406,18.398438 L6.925781,18.398438 C7.066406,12.515625 8.890625,8.046875 12.304688,4.960938 Z M45.660156,1.601563 L45.660156,65.050781 L34.160156,65.050781 L34.160156,0.011719 L45.660156,0.011719 L45.660156,1.601563 Z" id="Shape" fill="#F28D52"></path>
            <path d="M424.785156,8.167969 C428.453125,4.5 434.40625,4.5 438.078125,8.167969 C441.101563,11.191406 441.632813,15.761719 439.679688,19.328125 L442.984375,22.632813 C444.011719,23.660156 444.011719,25.34375 442.984375,26.367188 L442.984375,26.371094 C441.957031,27.394531 440.277344,27.394531 439.25,26.367188 L435.945313,23.0625 C432.375,25.019531 427.804688,24.484375 424.785156,21.460938 C421.113281,17.792969 421.113281,11.839844 424.785156,8.167969 Z M427.863281,11.25 C429.832031,9.28125 433.027344,9.28125 434.996094,11.25 C436.964844,13.21875 436.964844,16.414063 434.996094,18.382813 C433.027344,20.351563 429.832031,20.351563 427.863281,18.382813 C425.894531,16.414063 425.894531,13.21875 427.863281,11.25 L427.863281,11.25 Z" id="Shape" fill="#00ADB5"></path>
        </g>
    </g>
</svg>