<svg xmlns="http://www.w3.org/2000/svg" width="395" height="100">
  <path fill="#3CA0FF" fill-rule="nonzero" d="M390.16321 40.175397C393.472414 43.4361562 395 48.2443368 395 54.1631395v22.3174077c0 2.8307317-2.205007 4.9774828-5.006145 4.9774828-2.973881 0-5.009533-2.0621-5.009533-4.3781533v-1.7167236c-3.055171 3.6907866-7.725992 6.6095554-14.601821 6.6095554-8.403414 0-15.875374-4.8928318-15.875374-13.9911286v-.1693021c0-9.7856635 7.556638-14.5904581 18.507157-14.5904581 5.009532 0 8.572769.7720177 12.054716 1.8860258v-1.1140081c0-6.4368672-3.905335-9.8703146-11.119874-9.8703146-3.905336 0-7.129862.6873667-9.934387 1.8013748-.592744.1726882-1.10081.2573392-1.612264.2573392-2.374362 0-4.328723-1.8860258-4.328723-4.2901161 0-1.8894119 1.273552-3.5180984 2.801138-4.117428 4.244046-1.6320726 8.572769-2.6614296 14.432466-2.6614296 6.706473 0 11.712618 1.8013748 14.855854 5.0621339zm-4.924854 24.5454238v-3.088071c-2.631783-1.029357-6.11373-1.8047608-10.185033-1.8047608-6.621796 0-10.527131 2.8341178-10.527131 7.5542614v.1693021c0 4.3781533 3.820657 6.8668947 8.742125 6.8668947 6.791151 0 11.970039-3.9481259 11.970039-9.6976264zm-41.254972-46.7714083c2.885815 0 5.178887 2.3160533 5.178887 5.146785V76.307859c0 2.9187688-2.293072 5.150171-5.178887 5.150171-2.801138 0-5.09421-2.2314022-5.09421-5.150171V23.0961975c0-2.8307317 2.208394-5.146785 5.09421-5.146785zm-34.88721 16.8184743c13.751658 0 23.852013 10.5576812 23.852013 23.5160667v.1726882c0 12.8737345-10.185033 23.6007179-24.021368 23.6007179-13.66698 0-23.770722-10.5576813-23.770722-23.4280297v-.1726882c0-12.9583855 10.18842-23.6887549 23.940077-23.6887549zm13.582302 23.8614431v-.1726882c0-7.9842887-5.686954-14.5904581-13.751657-14.5904581-8.234059 0-13.497624 6.5249043-13.497624 14.4177699v.1726882c0 7.8962517 5.686953 14.5058071 13.666979 14.5058071 8.318737 0 13.582302-6.5249044 13.582302-14.3331189zm-64.260207-23.8614431c13.751657 0 23.852012 10.5576812 23.852012 23.5160667v.1726882c0 12.8737345-10.185033 23.6007179-24.021368 23.6007179-13.666979 0-23.770722-10.5576813-23.770722-23.4280297v-.1726882c0-12.9583855 10.18842-23.6887549 23.940078-23.6887549zm13.582302 23.8614431v-.1726882c0-7.9842887-5.686954-14.5904581-13.751658-14.5904581-8.234059 0-13.497624 6.5249043-13.497624 14.4177699v.1726882c0 7.8962517 5.686954 14.5058071 13.66698 14.5058071 8.318736 0 13.582302-6.5249044 13.582302-14.3331189zm-61.374392-23.8614431c10.527131 0 20.800228 8.4109301 20.800228 23.5160667v.1726882c0 15.0170995-10.18842 23.5160668-20.800228 23.5160668-7.468573 0-12.136007-3.7788237-15.279243-7.9809027v2.3160532c0 2.8307317-2.289685 5.150171-5.178888 5.150171-2.801138 0-5.090823-2.3194393-5.090823-5.150171V23.0961975c0-2.9187689 2.205007-5.146785 5.090823-5.146785 2.889203 0 5.178888 2.2280161 5.178888 5.146785V43.266854c3.312591-4.7201435 7.980026-8.4989672 15.279243-8.4989672zm10.357775 23.6887549v-.1726882c0-8.7529204-5.856309-14.505807-12.816815-14.505807-6.960507 0-13.074236 5.8375376-13.074236 14.505807v.1726882c0 8.6682694 6.113729 14.5058071 13.074236 14.5058071 7.045184 0 12.816815-5.5801984 12.816815-14.5058071zm-62.644557-23.6887549c14.259724 0 21.304908 11.8443774 21.304908 22.3140216 0 2.9187688-2.205008 4.9774828-4.83679 4.9774828h-28.099446c1.104197 7.3815731 6.283085 11.5023871 12.904881 11.5023871 4.328723 0 7.722605-1.5440354 10.608421-3.9481258.765486-.5993295 1.442908-.9447059 2.631783-.9447059 2.293072 0 4.07469 1.8013747 4.07469 4.2054651 0 1.2866962-.592744 2.4040903-1.35823 3.1761081-4.074691 3.6907865-9.165513 6.0068398-16.129407 6.0068398-12.986171 0-23.001848-9.5249382-23.001848-23.5160668v-.1693021c0-12.9617716 9.080835-23.6041039 21.901038-23.6041039zm-11.716005 20.4279958h23.005235c-.680809-6.6975926-4.582757-11.9290286-11.373908-11.9290286-6.283084 0-10.696486 4.8894457-11.631327 11.9290286zm-32.001394-7.8116006l20.034742 25.1481394c.846777 1.114008 1.442908 2.143365 1.442908 3.7754376 0 2.9187688-2.293072 5.150171-5.263566 5.150171-2.039038 0-3.312591-1.029357-4.413401-2.4887414l-19.0999-24.6334609-9.676967 9.4402872v12.443707c0 2.9187688-2.2930719 5.2382081-5.1788877 5.2382081-2.9704934 0-5.2635654-2.3194393-5.2635654-5.2382081V25.7576271c0-2.9187689 2.293072-5.2348221 5.2635654-5.2348221 2.8858158 0 5.1788877 2.3160532 5.1788877 5.2348221v25.4054786l28.180736-28.6662378c1.188875-1.2900823 2.462427-1.9740629 4.328724-1.9740629 2.885816 0 4.840177 2.3160532 4.840177 4.8928317 0 1.6286866-.680809 2.8307318-1.866297 3.9481259L114.621998 47.384282zM29.0196247 62.5097349c-13.8126253 0-24.37362713-16.8320184-24.37362713-38.1505435C4.64599757 3.04405242 13.4457034 0 29.0196247 0c15.5739212 0 23.6115278 3.04405242 23.6115278 24.3591914 0 21.3185251-11.0521324 38.1505435-23.6115278 38.1505435zm27.6963797 19.4562015c1.1346811 1.8860258.4911306 4.3205905-1.4327465 5.4312126-.6469376.3724647-1.3548431.5485389-2.0525873.5485389-1.3853271 0-2.736783-.6975248-3.4921081-1.9537467-1.3040364-2.1602952-2.6385569-3.6975586-4.1424327-5.1027664-1.5038758-1.3984356-3.2109781-2.6512714-5.1653393-4.1106559-.9551643-.7076829-1.9069416-1.3205566-2.8553318-1.8420072.1117746.2031626.2235492.4097112.3387108.6230319 2.7435573 5.1603291 5.5751793 12.3218095 5.5887277 20.4787864 0 2.1873836-1.8121026 3.96167-4.0475937 3.96167-2.2388782 0-4.0509808-1.7742864-4.0509808-3.96167.0135484-6.2032303-2.2083942-12.1694376-4.5522728-16.5916094-.7587121-1.4424542-1.5241984-2.7156063-2.2151684-3.7788237-.6537118 1.0124268-1.3785528 2.214472-2.1033939 3.5688891-2.3811367 4.442488-4.6775957 10.5035045-4.6640473 16.801544 0 2.1873836-1.8121026 3.96167-4.0475937 3.96167s-4.0475937-1.7742864-4.0475937-3.96167c.0135484-8.1569769 2.8417833-15.3184573 5.5887277-20.4787864.1117745-.2133207.2235491-.4198693.3387107-.6230319-.9517772.5214506-1.9001674 1.1343243-2.8553318 1.8420072-1.9577482 1.4593845-3.6648505 2.7122203-5.1653392 4.1106559-1.5038758 1.4052078-2.84178338 2.9424712-4.14581985 5.1061525-1.13468108 1.8860258-3.61743104 2.5124437-5.54130822 1.4018217C.06662795 86.2865269-.57353541 83.8519622.56114567 81.9659364c1.69355386-2.8205736 3.59710839-5.0215014 5.54808243-6.8296482 1.95436115-1.8115328 3.9222707-3.2404429 5.8325995-4.6693529.9043577-.6772086 1.8324253-1.3002404 2.7808154-1.8657096-.9483901-.5654691-1.8764577-1.191887-2.7808154-1.8690955C7.57245863 63.471371 3.77551089 59.0729015.56114567 53.7331121c-1.13468108-1.8894118-.49451772-4.3205905 1.43274656-5.4312125 1.92387718-1.110622 4.40662714-.4842041 5.54130822 1.4018217 2.78420255 4.6287204 5.94437405 8.2111536 9.30777195 10.7168252 3.6072698 2.6715877 7.1501844 3.9955304 10.7947123 4.2054651.3319366-.0101581.6672602-.0203163.9991968-.0203163.3353237 0 .6672602.0101582.9991968.0203163 3.6445279-.2099347 7.1908296-1.5338774 10.7947122-4.2054651 3.363398-2.5056716 6.5269566-6.0881048 9.307772-10.7168252 1.1380682-1.8860258 3.6174311-2.5124437 5.5446954-1.4018217 1.9238771 1.110622 2.5674276 3.5418007 1.4327465 5.4278265-3.2143652 5.3431754-7.0147001 9.7416449-11.384069 13.0024041-.9043578.6772085-1.8324253 1.3036264-2.7774283 1.8690955.945003.5654692 1.8730705 1.188501 2.7774283 1.8657096 1.9137159 1.42891 3.8782383 2.8578201 5.8359866 4.6693529 1.950974 1.8081468 3.8511415 4.0090746 5.5480824 6.8296482zm-33.4036562-33.281414c-2.2354911 0-4.0475937 1.7776724-4.0475937 3.965056 0 2.1941557 1.8121026 3.9684421 4.0475937 3.9684421s4.0475937-1.7742864 4.0475937-3.9684421c0-2.1873836-1.8121026-3.965056-4.0475937-3.965056zm10.6490666 0c-2.2354911 0-4.0475937 1.7776724-4.0475937 3.965056 0 2.1941557 1.8121026 3.9684421 4.0475937 3.9684421s4.0475937-1.7742864 4.0475937-3.9684421c0-2.1873836-1.8121026-3.965056-4.0475937-3.965056z"/>
</svg>