<svg xmlns="http://www.w3.org/2000/svg" height="566.933" width="566.933">
	<defs>
		<clipPath id="a">
			<path d="M0 425.2h425.2V0H0z" />
		</clipPath>
		<clipPath id="b">
			<path d="M62.672 68.316h290.086v290.075H62.672z" />
		</clipPath>
		<clipPath id="c">
			<path d="M0 425.2h425.2V0H0z" />
		</clipPath>
	</defs>
	<path d="M83.563 347.13h258.06V89.077H83.563z" fill="#005ca5" />
	<path d="M338.759 344.267H86.436V91.947h252.323z" fill="#fff" />
	<g clip-path="url(#a)" transform="matrix(1.33333 0 0 -1.33333 0 566.933)">
		<path d="M352.758 164.854c0-53.316-43.215-96.537-96.537-96.537-53.314 0-96.535 43.221-96.535 96.537 0 53.31 43.22 96.535 96.535 96.535 53.322 0 96.537-43.225 96.537-96.535" fill="#005ca5" />
		<path d="M277.418 187.831c-6.712 3.495-14.017 4.81-21.159 4.672-2.164-.044-4.332-.289-6.439-.579l25.92 50.001h-21.874c-9.817-16.995-38.232-73.419-38.232-73.419-.032-.058-.102-.17-.102-.17s-.054-.124-.08-.18l-.11-.21h.003c-11.405-22.404-2.65-49.848 19.688-61.492 22.477-11.699 50.177-2.976 61.88 19.497 11.7 22.477 2.972 50.173-19.495 61.88m2.292-52.915c-6.754-12.968-22.744-18.007-35.708-11.259-12.967 6.758-18.01 22.747-11.25 35.711 6.75 12.978 22.733 18.012 35.697 11.254 12.973-6.748 18.011-22.744 11.261-35.706" fill="#fff" />
		<path d="M132.318 321.129c-2.657-1.765-5.055-2.603-8.791-2.603-6.872 0-10.704 5.647-10.704 11.739 0 6.675 4.221 11.193 10.309 11.193 5.847 0 9.577-3.978 9.577-12.128h-15.515c.69-4.369 3.191-6.627 7.412-6.627 2.657 0 5.157.983 7.712 2.651zm-11.223 22.774l-5.403 6.91h2.437l5.003-4.071 5.007 4.071h2.442l-5.408-6.91zm7.295-11.673c-.149 3.337-2.062 5.448-5.156 5.448-3.341 0-5.35-1.965-5.945-5.448zM151.958 335.32c-2.458 1.62-4.768 2.309-6.387 2.309-1.764 0-2.897-.836-2.897-2.015 0-.983 1.476-2.158 5.356-4.418 3.635-2.406 4.953-3.928 4.953-6.19 0-3.876-3.088-6.48-7.261-6.48-2.705 0-4.815.54-7.66 2.014v4.715c2.845-1.964 5.446-2.9 7.216-2.9 1.769.1 3.239.936 3.239 2.507 0 3.044-10.31 4.666-10.31 10.607 0 3.732 2.85 5.99 7.268 5.99 2.063 0 4.175-.591 6.483-1.817zM164.672 341.017h6.97v-3.928h-6.97v-11.298c0-2.597 1.865-3.337 3.142-3.337 1.572 0 3.19.542 4.959 1.621v-4.077c-1.522-.834-3.88-1.472-5.3-1.472-4.768 0-7.172 2.948-7.172 6.924v11.64h-3.832v.489l8.203 8.002zM189.912 335.32c-2.454 1.62-4.762 2.309-6.38 2.309-1.77 0-2.898-.836-2.898-2.015 0-.983 1.47-2.158 5.356-4.418 3.633-2.406 4.953-3.928 4.953-6.19 0-3.876-3.094-6.48-7.263-6.48-2.703 0-4.815.54-7.664 2.014v4.715c2.85-1.964 5.452-2.9 7.221-2.9 1.77.1 3.238.936 3.238 2.507 0 3.044-10.309 4.666-10.309 10.607 0 3.732 2.845 5.99 7.27 5.99 2.062 0 4.168-.591 6.476-1.817zM201.553 318.968h-4.371v33.49h4.371zm5.745 11.247l11.394-11.247h-5.897l-11.045 11.247 9.769 10.803h5.206z" fill="#005ca5" />
	</g>
	<g clip-path="url(#b)" transform="matrix(1.33333 0 0 -1.33333 0 566.933)">
		<path d="M239.554 320.245c-2.009-1.323-2.843-1.717-4.22-1.717-1.916 0-2.947.688-3.342 2.258-1.913-1.522-3.928-2.258-5.937-2.258-3.239 0-5.403 2.55-5.403 5.399 0 4.37 3.975 5.697 7.514 6.974l3.874 1.377v1.178c0 2.749-1.32 3.88-3.976 3.88-2.406 0-4.857-1.131-6.974-3.634v4.76c1.726 2.016 4.126 2.997 7.321 2.997 4.468 0 8.001-2.258 8.001-7.27v-11.342c0-.833.3-1.128.838-1.128.44 0 1.321.44 2.304 1.179zm-7.514 9.625c-3.73-1.277-6.968-2.552-6.968-5.155 0-1.817 1.324-3.094 3.142-3.094 1.372 0 2.651.69 3.826 1.82zm2.657 21.655l-5.847-7.658h-2.795l3.683 7.657zM93.615 296.872c-2.507 1.67-4.173 2.162-6.092 2.162-3.976 0-6.728-2.998-6.728-7.466 0-4.564 2.95-7.317 7.466-7.317 1.865 0 3.633.493 5.845 1.476v-4.32c-1.474-.69-4.275-1.281-6.583-1.281-6.579 0-11.19 4.57-11.19 11.05 0 7.268 4.22 11.882 10.895 11.882 2.555 0 4.277-.59 6.387-1.522zm-8.867 8.627l-5.402 6.92h2.438l5.007-4.081 5.007 4.08h2.437l-5.407-6.92zM117.723 281.846c-2.015-1.325-2.849-1.72-4.22-1.72-1.92 0-2.95.69-3.342 2.262-1.913-1.524-3.928-2.262-5.943-2.262-3.239 0-5.403 2.555-5.403 5.403 0 4.37 3.981 5.697 7.514 6.974l3.88 1.374v1.18c0 2.747-1.325 3.876-3.976 3.876-2.406 0-4.863-1.129-6.974-3.63v4.761c1.72 2.01 4.126 2.992 7.315 2.992 4.468 0 8.007-2.253 8.007-7.266v-11.34c0-.834.293-1.131.834-1.131.443 0 1.325.44 2.308 1.179zm-7.514 9.625c-3.73-1.277-6.974-2.556-6.974-5.157 0-1.817 1.324-3.094 3.148-3.094 1.372 0 2.645.69 3.826 1.816zm2.651 21.651l-5.84-7.66h-2.802l3.683 7.66zM134.91 296.92c-2.458 1.622-4.768 2.306-6.387 2.306-1.768 0-2.897-.834-2.897-2.01 0-.982 1.476-2.16 5.35-4.42 3.635-2.405 4.965-3.927 4.965-6.187 0-3.88-3.094-6.483-7.267-6.483-2.705 0-4.815.543-7.664 2.015v4.715c2.849-1.963 5.45-2.898 7.219-2.898 1.77.098 3.24.935 3.24 2.505 0 3.042-10.31 4.664-10.31 10.605 0 3.734 2.85 5.99 7.268 5.99 2.063 0 4.175-.59 6.483-1.817zM147.624 302.617h6.97v-3.93h-6.97v-11.292c0-2.603 1.865-3.337 3.142-3.337 1.572 0 3.19.542 4.96 1.62v-4.076c-1.523-.834-3.881-1.476-5.307-1.476-4.762 0-7.166 2.95-7.166 6.926v11.635h-3.832v.49l8.203 8.006zM87.518 273.002c6.954 0 10.12-4.109 10.12-9.144 0-4.99-3.354-8.91-10.724-8.91h-4.762v-13.76h-4.568v31.814zm-5.366-13.949h5.179c3.405 0 5.6 1.817 5.6 4.992 0 2.332-1.26 4.848-5.413 4.848h-5.366zM136.294 242.463c-2.009-1.33-2.843-1.717-4.221-1.717-1.915 0-2.946.683-3.341 2.26-1.913-1.525-3.922-2.26-5.937-2.26-3.245 0-5.403 2.552-5.403 5.398 0 4.37 3.975 5.697 7.514 6.974l3.874 1.374v1.177c0 2.75-1.321 3.882-3.97 3.882-2.412 0-4.863-1.133-6.976-3.634v4.761c1.716 2.015 4.122 2.994 7.311 2.994 4.474 0 8.007-2.258 8.007-7.265v-11.341c0-.836.299-1.131.838-1.131.439 0 1.327.443 2.304 1.18zm-7.514 9.623c-3.731-1.274-6.968-2.555-6.968-5.156 0-1.815 1.324-3.092 3.142-3.092 1.378 0 2.651.687 3.826 1.818zM146.165 260.336h.096c1.673 2.11 4.125 3.337 6.585 3.337 4.318 0 7.508-2.944 7.508-8.986v-13.499h-4.367v13.648c0 3.24-1.671 5.35-4.322 5.35-1.913 0-3.437-.88-5.5-3.189v-15.809h-4.371v33.486h4.37zM185.252 242.463c-2.015-1.33-2.849-1.717-4.22-1.717-1.92 0-2.95.683-3.342 2.26-1.919-1.525-3.928-2.26-5.943-2.26-3.239 0-5.397 2.552-5.397 5.398 0 4.37 3.975 5.697 7.508 6.974l3.88 1.374v1.177c0 2.75-1.325 3.882-3.976 3.882-2.41 0-4.863-1.133-6.974-3.634v4.761c1.72 2.015 4.126 2.994 7.315 2.994 4.47 0 8.001-2.258 8.001-7.265v-11.341c0-.836.3-1.131.84-1.131.443 0 1.325.443 2.308 1.18zm-7.514 9.623c-3.73-1.274-6.974-2.555-6.974-5.156 0-1.815 1.324-3.092 3.142-3.092 1.378 0 2.651.687 3.832 1.818zM111.647 263.674c-2.063 0-4.173-1.62-6.381-5.496h-.102v5.055h-4.367v-22.044h4.367v11.538c0 3.778 2.358 6.776 5.356 6.776.96 0 2.52-.78 3.804-1.923v5.424c-.886.449-1.77.67-2.677.67" fill="#005ca5" />
	</g>
	<g clip-path="url(#c)" transform="matrix(1.33333 0 0 -1.33333 0 566.933)">
		<path d="M106.773 318.967h-4.554v24.685h-.09l-9.764-12.274h-.742l-9.76 12.274h-.095v-24.685h-4.554v31.701h4.275l10.503-13.016 10.554 13.016h4.227z" fill="#005ca5" />
	</g>
</svg>
