<?xml version="1.0" encoding="UTF-8"?>
<svg width="416px" height="74px" viewBox="0 0 416 74" version="1.1" xmlns="http://www.w3.org/2000/svg" xmlns:xlink="http://www.w3.org/1999/xlink">
    <!-- Generator: Sketch 53 (72520) - https://sketchapp.com -->
    <title>veeam</title>
    <desc>Created with Sketch.</desc>
    <g id="Page-1" stroke="none" stroke-width="1" fill="none" fill-rule="evenodd">
        <g id="veeam" fill="#00B336" fill-rule="nonzero">
            <path d="M407.761719,2.214844 C403.269531,1.085938 398.796875,3.117188 396.640625,7.257813 L369.273438,60.511719 C368.128906,62.707031 366.105469,62.945313 365.289063,62.945313 C364.472656,62.945313 362.449219,62.707031 361.304688,60.511719 L333.9375,7.257813 C331.78125,3.117188 327.308594,1.085938 322.816406,2.214844 C318.320313,3.339844 315.300781,7.242188 315.300781,11.925781 L315.300781,67.929688 C315.300781,70.585938 317.429688,72.742188 320.058594,72.742188 C322.683594,72.742188 324.816406,70.585938 324.816406,67.929688 L324.816406,11 C324.816406,10.808594 324.761719,10.507813 325.046875,10.4375 C325.332031,10.363281 325.433594,10.65625 325.523438,10.824219 L352.890625,64.277344 C355.320313,68.945313 360.074219,71.84375 365.289063,71.84375 C370.503906,71.84375 375.253906,68.945313 377.6875,64.277344 L405.054688,10.824219 C405.144531,10.65625 405.246094,10.363281 405.53125,10.4375 C405.816406,10.507813 405.761719,10.808594 405.761719,11 L405.761719,67.929688 C405.761719,70.585938 407.894531,72.742188 410.519531,72.742188 C413.148438,72.742188 415.277344,70.585938 415.277344,67.929688 L415.277344,11.925781 C415.277344,7.242188 412.257813,3.339844 407.761719,2.214844" id="Path"></path>
            <path d="M79.957031,2.5 C77.632813,1.261719 74.757813,2.160156 73.53125,4.511719 L43.65625,62.246094 C43.074219,63.363281 42.222656,64.003906 41.324219,64.003906 C40.421875,64.003906 39.574219,63.363281 38.988281,62.246094 L9.113281,4.511719 C7.890625,2.160156 5.011719,1.257813 2.6875,2.5 C0.363281,3.738281 -0.527344,6.648438 0.699219,9 L30.488281,65.847656 C32.738281,70.164063 36.757813,72.742188 41.238281,72.742188 C45.71875,72.742188 49.738281,70.164063 51.988281,65.847656 L81.945313,9 C83.171875,6.648438 82.28125,3.738281 79.957031,2.5" id="Path"></path>
            <path d="M89.972656,33.316406 C92.203125,20.699219 103.050781,9.816406 116.054688,9.816406 C129.058594,9.816406 139.984375,20.699219 142.214844,33.316406 L89.972656,33.316406 Z M116.054688,0.601563 C96.238281,0.601563 80.113281,17.042969 80.113281,37.257813 C80.113281,57.46875 96.238281,73.914063 116.054688,73.914063 C127.355469,73.914063 138.136719,68.386719 144.894531,59.132813 C146.449219,57 146.015625,53.984375 143.925781,52.398438 C141.835938,50.808594 138.878906,51.25 137.324219,53.382813 C132.265625,60.3125 124.511719,64.691406 116.054688,64.691406 C103.050781,64.691406 92.203125,54.6875 89.972656,42.070313 L147.273438,42.070313 C149.878906,42.070313 151.992188,39.914063 151.992188,37.257813 C151.992188,17.042969 135.871094,0.601563 116.054688,0.601563 L116.054688,0.601563 Z" id="Shape"></path>
            <path d="M168,33.316406 C170.230469,20.699219 181.078125,9.816406 194.078125,9.816406 C207.082031,9.816406 218.007813,20.699219 220.242188,33.316406 L168,33.316406 Z M194.078125,0.601563 C174.261719,0.601563 158.140625,17.042969 158.140625,37.257813 C158.140625,57.46875 174.261719,73.914063 194.078125,73.914063 C205.378906,73.914063 216.164063,68.386719 222.917969,59.132813 C224.476563,57 224.042969,53.984375 221.953125,52.398438 C219.863281,50.808594 216.90625,51.25 215.351563,53.382813 C210.289063,60.3125 202.539063,64.691406 194.078125,64.691406 C181.078125,64.691406 170.230469,54.6875 168,42.070313 L225.300781,42.070313 C227.90625,42.070313 230.019531,39.914063 230.019531,37.257813 C230.019531,17.042969 213.898438,0.601563 194.078125,0.601563 L194.078125,0.601563 Z" id="Shape"></path>
            <path d="M278.414063,8.640625 C276.230469,4.445313 272.324219,1.941406 267.96875,1.941406 C263.609375,1.941406 259.703125,4.445313 257.519531,8.640625 L227.75,65.683594 C226.523438,68.035156 227.414063,70.945313 229.738281,72.183594 C230.449219,72.5625 231.207031,72.742188 231.953125,72.742188 C233.664063,72.742188 235.316406,71.808594 236.167969,70.171875 L244.527344,54.15625 L278.957031,54.15625 C281.542969,54.15625 283.636719,52.035156 283.636719,49.421875 C283.636719,46.804688 281.339844,44.890625 278.753906,44.890625 L249.339844,44.929688 L265.867188,11.984375 C266.382813,10.992188 267.121094,10.425781 267.894531,10.425781 C268.671875,10.425781 269.410156,10.992188 269.929688,11.984375 L299.808594,70.171875 C301.035156,72.523438 303.910156,73.425781 306.234375,72.183594 C308.5625,70.945313 309.214844,67.644531 307.988281,65.292969 L278.414063,8.640625 Z" id="Path"></path>
        </g>
    </g>
</svg>