<svg id="Layer_1" data-name="Layer 1" xmlns="http://www.w3.org/2000/svg" viewBox="0 0 525 120">
	<defs>
		<style>
			.cls-2{fill:#6b6b6b}
		</style>
	</defs>
	<path d="M45 0C22 0 0 42.48 0 75a45 45 0 0 0 90 0C90 42.48 68 0 45 0zm0 97.5A22.5 22.5 0 0 1 22.5 75c0-16.7 11.4-37.5 22.5-37.5S67.5 58.3 67.5 75A22.5 22.5 0 0 1 45 97.5z" fill="#00bc87" />
	<path class="cls-2" d="M170.59 96.35h-9.34l-.79-5.4q-5.4 6.52-15.53 6.53-9.24 0-14.58-4.9A16.49 16.49 0 0 1 125 79.8a16.79 16.79 0 0 1 5.52-12.94q5.5-5.07 14.74-5.07 8.79 0 13.74 5v-4.88c0-4.66-1.17-8.18-3.49-10.59s-5.59-3.6-9.8-3.6a30.29 30.29 0 0 0-7.48.9 21.85 21.85 0 0 0-5.12 1.8l-1.69.9-3-9.11a21.47 21.47 0 0 1 2.19-1.35 33.75 33.75 0 0 1 6.39-2.09 42.49 42.49 0 0 1 10.64-1.29q10.8 0 16.88 6.13t6.08 17.51zm-14.24-10.13a8.95 8.95 0 0 0 0-13.73 12.76 12.76 0 0 0-8.5-2.7 12.21 12.21 0 0 0-8.22 2.7 9.06 9.06 0 0 0 0 13.73 12.21 12.21 0 0 0 8.22 2.7 12.76 12.76 0 0 0 8.5-2.7zM178.7 38.6h12.38l12.72 41.2 12.72-41.2h11.71l-19.48 57.75h-10.69zM235.77 60.44q0-10.47 6.47-16.71T259 37.48q10.35 0 16.66 6.08t6.3 16.54v14.41q0 10.59-6.47 16.78t-16.83 6.19q-10.35 0-16.6-6t-6.25-16.61zm11.48 14.07q0 6 3.16 9.35a11 11 0 0 0 8.44 3.37 10.86 10.86 0 0 0 8.33-3.37q3.15-3.37 3.15-9.35V60.44q0-5.85-3.15-9.28a10.77 10.77 0 0 0-8.33-3.44 10.89 10.89 0 0 0-8.44 3.44q-3.16 3.42-3.16 9.28zM330.22 74.18h11.14v1.23q0 10-6.25 16t-16.15 6q-10 0-16.1-5.91t-6.08-16.16V59.88q0-10.25 6.31-16.32t16.21-6.08q9.9 0 16 5.85t6.08 16v1h-11.16v-.68a12.32 12.32 0 0 0-3-8.66 10.2 10.2 0 0 0-7.93-3.27 10.36 10.36 0 0 0-8.04 3.28c-2 2.17-3 5.14-3 8.89v15.2q0 5.63 3 8.89a11.5 11.5 0 0 0 16 .06 12.15 12.15 0 0 0 3-8.62zM356.22 60.44q0-10.47 6.47-16.71t16.72-6.25q10.35 0 16.66 6.08t6.3 16.54v14.41q0 10.59-6.47 16.78t-16.83 6.19q-10.35 0-16.6-6t-6.25-16.61zm11.48 14.07q0 6 3.15 9.35a11 11 0 0 0 8.44 3.37 10.88 10.88 0 0 0 8.34-3.37q3.15-3.37 3.15-9.35V60.44q0-5.85-3.15-9.28a10.79 10.79 0 0 0-8.34-3.44 10.91 10.91 0 0 0-8.44 3.44q-3.15 3.42-3.15 9.28zM463.38 96.35h-10.13l-.56-6.75q-5.07 7.88-15.53 7.88-9.35 0-14.64-5.57t-5.29-15.6V59.09q0-10.12 5.46-15.87t14.8-5.74q9.35 0 14.3 6.53V17.52h11.59zm-11.59-35.91q0-5.85-3.15-9.28a10.77 10.77 0 0 0-8.33-3.44 10.93 10.93 0 0 0-8.45 3.44q-3.15 3.42-3.15 9.28v14.07q0 6 3.15 9.35a11 11 0 0 0 8.45 3.37 10.86 10.86 0 0 0 8.33-3.37q3.15-3.37 3.15-9.35zM524.77 78.12c-.07.52-.18 1.22-.33 2.08a27.59 27.59 0 0 1-1.58 4.61 21.37 21.37 0 0 1-3.55 5.91 19 19 0 0 1-6.69 4.67 24.67 24.67 0 0 1-10.47 2.09q-10.36 0-16.61-6t-6.24-16.63V60.44q0-10.47 6.47-16.71t16.72-6.25q10.13 0 16.32 6.08T525 60.1v8.34h-34.22v6.07q0 6 3.15 9.35a11 11 0 0 0 8.44 3.37 11.55 11.55 0 0 0 5.35-1.18 8.34 8.34 0 0 0 3.38-2.87 26.56 26.56 0 0 0 1.8-3.32 9 9 0 0 0 .84-2.87l.12-1.13zm-34-17.34h23.08v-1.46q0-5.87-3.16-9.29a10.76 10.76 0 0 0-8.33-3.43 10.9 10.9 0 0 0-8.43 3.4q-3.15 3.44-3.15 9.29z" />
</svg>
