<svg xmlns="http://www.w3.org/2000/svg" width="99.06347mm" height="52.02076mm" viewBox="0 0 280.80983 147.46044">
  <title>avrar</title>
  <polygon points="155.098 97.784 167.587 97.784 185.07 62.573 203.049 97.784 215.611 97.784 184.931 37.702 155.098 97.784" fill="#0e447d"/>
  <polygon points="26.762 97.784 39.251 97.784 56.734 62.573 74.714 97.784 87.275 97.784 56.595 37.702 26.762 97.784" fill="#0e447d"/>
  <path d="M225.56079,36.99877H189.9482l5.71228,11.18664h29.90031a6.68006,6.68006,0,0,1,6.67241,6.67241v.20756a6.68006,6.68006,0,0,1-6.67241,6.67241h-22.98L220.987,97.78364h15.35182L221.31375,72.92445h4.247a17.87893,17.87893,0,0,0,17.8591-17.85905v-.20756A17.87892,17.87892,0,0,0,225.56079,36.99877Z" fill="#0e447d"/>
  <path d="M159.67537,55.0654v-.20756a17.87892,17.87892,0,0,0-17.859-17.85907H112.15561l-2.92047,5.93661L94.48837,72.91231,76.50911,37.70158H63.94795l30.68,60.08208,24.4899-49.59824h22.69852a6.68006,6.68006,0,0,1,6.67241,6.67241v.20756a6.68006,6.68006,0,0,1-6.67241,6.67241h-22.98l18.40619,36.04585h15.35181L137.56929,72.92445h4.247A17.87893,17.87893,0,0,0,159.67537,55.0654Z" fill="#188acb"/>
  <path d="M35.18524,108.27051l-.07568-.63672h-.03219a1.97477,1.97477,0,0,1-1.60107.751,1.46762,1.46762,0,0,1-1.59547-1.32751q-.00561-.06119-.00608-.1227c0-1.22168,1.12549-1.88965,3.14844-1.87891v-.10449a1.05668,1.05668,0,0,0-1.18994-1.169,2.6812,2.6812,0,0,0-1.36328.376l-.21631-.60547a3.338,3.338,0,0,1,1.72021-.44922,1.81846,1.81846,0,0,1,1.99072,2.06738v1.88867a6.86866,6.86866,0,0,0,.08643,1.21094Zm-.14062-2.57812c-1.03857-.02051-2.21777.15625-2.21777,1.1377a.82871.82871,0,0,0,.89795.877,1.3,1.3,0,0,0,1.26563-.8457.91981.91981,0,0,0,.0542-.292Z" fill="#1e1e1c"/>
  <path d="M38.45282,107.331a2.55643,2.55643,0,0,0,1.25488.36523c.69238,0,1.0166-.334,1.0166-.752,0-.4375-.27051-.67773-.97363-.92871-.94092-.32324-1.38477-.82422-1.38477-1.42969,0-.81445.68164-1.48242,1.80664-1.48242a2.688,2.688,0,0,1,1.2876.31348l-.23779.668a2.096,2.096,0,0,0-1.07129-.292c-.5625,0-.87646.3125-.87646.68848,0,.418.314.60547.99561.85645.90869.334,1.374.77148,1.374,1.52344,0,.88672-.71436,1.51367-1.9585,1.51367a3.06992,3.06992,0,0,1-1.47119-.34473Z" fill="#1e1e1c"/>
  <path d="M48.6867,105.70313a2.51244,2.51244,0,0,1-2.60693,2.68164,2.44151,2.44151,0,0,1-2.5138-2.367q-.00348-.11585.004-.23162a2.50872,2.50872,0,0,1,2.59619-2.68262,2.43172,2.43172,0,0,1,2.52051,2.59961Zm-4.15381.05176a1.62361,1.62361,0,1,0,3.18018-.02051c0-.85645-.44336-1.94141-1.56836-1.94141S44.53289,104.79492,44.53289,105.75489Z" fill="#1e1e1c"/>
  <path d="M54.70237,108.082a3.60239,3.60239,0,0,1-1.50391.293,2.44261,2.44261,0,0,1-2.60742-2.57812,2.61516,2.61516,0,0,1,2.8125-2.68262,3.289,3.289,0,0,1,1.32031.26074l-.2168.71a2.273,2.273,0,0,0-1.10352-.24023,1.90117,1.90117,0,0,0-.03223,3.7998,2.7723,2.7723,0,0,0,1.168-.251Z" fill="#1e1e1c"/>
  <path d="M57.95819,101.7998a.58994.58994,0,0,1-1.17871,0,.56986.56986,0,0,1,.56494-.57475q.0149-.00013.02979.00053a.55422.55422,0,0,1,.58355.52325Q57.95915,101.77429,57.95819,101.7998Zm-1.05957,6.4707v-5.05176h.95215v5.05176Z" fill="#1e1e1c"/>
  <path d="M63.41229,108.27051l-.07617-.63672h-.03223a1.97434,1.97434,0,0,1-1.60156.751,1.46731,1.46731,0,0,1-1.59456-1.32792q-.00556-.061-.006-.12228c0-1.22168,1.125-1.88965,3.14746-1.87891v-.10449a1.056,1.056,0,0,0-1.18945-1.169,2.6812,2.6812,0,0,0-1.36328.376l-.2168-.60547a3.34246,3.34246,0,0,1,1.7207-.44922,1.81834,1.81834,0,0,1,1.99023,2.06738v1.88867a6.81989,6.81989,0,0,0,.08691,1.21094Zm-.14062-2.57812c-1.03906-.02051-2.21777.15625-2.21777,1.1377a.82858.82858,0,0,0,.89746.877,1.3,1.3,0,0,0,1.26563-.8457.93443.93443,0,0,0,.05469-.292Z" fill="#1e1e1c"/>
  <path d="M70.54118,108.082a3.6024,3.6024,0,0,1-1.50391.293,2.44261,2.44261,0,0,1-2.60742-2.57812,2.61516,2.61516,0,0,1,2.8125-2.68262,3.28905,3.28905,0,0,1,1.32031.26074l-.2168.71a2.273,2.273,0,0,0-1.10352-.24023,1.90117,1.90117,0,0,0-.03223,3.7998,2.77229,2.77229,0,0,0,1.168-.251Z" fill="#1e1e1c"/>
  <path d="M73.20329,105.91113a1.65021,1.65021,0,0,0,1.7959,1.75391,3.56494,3.56494,0,0,0,1.44922-.26074l.16211.65723a4.36246,4.36246,0,0,1-1.74121.31348,2.38779,2.38779,0,0,1-2.5752-2.54687,2.48621,2.48621,0,0,1,2.23626-2.71322q.10959-.01055.21979-.01139a2.16478,2.16478,0,0,1,2.16309,2.37988,3.3503,3.3503,0,0,1-.03223.42773Zm2.791-.65723a1.32162,1.32162,0,0,0-1.32031-1.49219,1.5443,1.5443,0,0,0-1.46,1.49219Z" fill="#1e1e1c"/>
  <path d="M82.91717,103.21875l1.02832,2.83887a12.788,12.788,0,0,1,.42188,1.294h.03223c.11914-.417.27051-.835.44336-1.294l1.01758-2.83887h.99512L84.8,108.27051h-.90918l-1.99023-5.05176Z" fill="#1e1e1c"/>
  <path d="M89.89568,101.7998a.58994.58994,0,0,1-1.17871,0,.56986.56986,0,0,1,.56493-.57475q.0149-.00013.02979.00053a.55423.55423,0,0,1,.58356.52325Q89.89664,101.77429,89.89568,101.7998Zm-1.05957,6.4707v-5.05176h.95215v5.05176Z" fill="#1e1e1c"/>
  <path d="M92.44936,104.79492c0-.59473-.01074-1.10645-.044-1.57617h.833l.0332.99121h.043a1.5635,1.5635,0,0,1,1.44922-1.10645,1.0325,1.0325,0,0,1,.27051.03223v.86621a1.43663,1.43663,0,0,0-.32422-.03125,1.31562,1.31562,0,0,0-1.27637,1.17871,2.507,2.507,0,0,0-.044.42773v2.69336h-.94044Z" fill="#1e1e1c"/>
  <path d="M98.47479,101.76758v1.45117h1.36328v.69922H98.47479v2.72461c0,.626.18359.98047.71387.98047a2.195,2.195,0,0,0,.55176-.0625l.043.68848a2.39747,2.39747,0,0,1-.84375.126,1.34305,1.34305,0,0,1-1.02734-.38672,1.82327,1.82327,0,0,1-.36816-1.31445V103.918h-.81152v-.69922h.81152v-1.21094Z" fill="#1e1e1c"/>
  <path d="M106.37225,106.89258c0,.52148.01074.98145.044,1.37793h-.84375l-.05469-.8252h-.02148a1.98215,1.98215,0,0,1-1.73047.93945c-.82227,0-1.80762-.43848-1.80762-2.21191v-2.9541h.95215v2.79688c0,.96094.30371,1.60742,1.169,1.60742a1.37448,1.37448,0,0,0,1.25488-.835,1.30967,1.30967,0,0,0,.08594-.46973v-3.09961h.95215Z" fill="#1e1e1c"/>
  <path d="M111.93377,108.27051l-.07617-.63672h-.03223a1.97434,1.97434,0,0,1-1.60156.751,1.46731,1.46731,0,0,1-1.59457-1.32791q-.00556-.061-.006-.12229c0-1.22168,1.125-1.88965,3.14746-1.87891v-.10449a1.056,1.056,0,0,0-1.18945-1.169,2.6812,2.6812,0,0,0-1.36328.376l-.2168-.60547a3.34247,3.34247,0,0,1,1.7207-.44922,1.81834,1.81834,0,0,1,1.99023,2.06738v1.88867a6.8199,6.8199,0,0,0,.08691,1.21094Zm-.14062-2.57812c-1.03906-.02051-2.21777.15625-2.21777,1.1377a.82858.82858,0,0,0,.89746.877,1.3,1.3,0,0,0,1.26563-.8457.93443.93443,0,0,0,.05469-.292Zm.47559-4.65527-1.31934,1.49316h-.68164l.95117-1.49316Z" fill="#1e1e1c"/>
  <path d="M115.33122,100.86035h.95215v7.41016h-.95215Z" fill="#1e1e1c"/>
  <path d="M118.966,104.58594c0-.52148-.01074-.94922-.044-1.36719h.84375l.05469.835h.02148a1.93693,1.93693,0,0,1,1.73145-.9502c.72461,0,1.84961.418,1.84961,2.15039v3.0166h-.95215V105.3584c0-.81445-.31348-1.49219-1.21191-1.49219a1.34531,1.34531,0,0,0-1.27637.93945,1.28,1.28,0,0,0-.06445.42773v3.03711H118.966Z" fill="#1e1e1c"/>
  <path d="M127.98845,101.03711l-1.32031,1.49316h-.68164l.95215-1.49316Zm-1.93652,7.2334v-5.05176h.95215v5.05176Z" fill="#1e1e1c"/>
  <path d="M135.94061,108.27051l-.07617-.63672h-.03223a1.97434,1.97434,0,0,1-1.60156.751,1.46731,1.46731,0,0,1-1.59456-1.32793q-.00556-.061-.006-.12228c0-1.22168,1.125-1.88965,3.14746-1.87891v-.10449a1.056,1.056,0,0,0-1.18945-1.169,2.68118,2.68118,0,0,0-1.36328.376l-.2168-.60547a3.34247,3.34247,0,0,1,1.7207-.44922,1.81834,1.81834,0,0,1,1.99023,2.06738v1.88867a6.81917,6.81917,0,0,0,.08691,1.21094ZM135.8,105.69239c-1.03906-.02051-2.21777.15625-2.21777,1.1377a.82858.82858,0,0,0,.89746.877,1.3,1.3,0,0,0,1.26563-.8457.93443.93443,0,0,0,.05469-.292Z" fill="#1e1e1c"/>
  <path d="M142.71307,104.79492c0-.59473-.01074-1.10645-.04395-1.57617h.833l.0332.99121h.043a1.56352,1.56352,0,0,1,1.44922-1.10645,1.03246,1.03246,0,0,1,.27051.03223v.86621a1.43668,1.43668,0,0,0-.32422-.03125,1.31562,1.31562,0,0,0-1.27637,1.17871,2.50627,2.50627,0,0,0-.04395.42773v2.69336h-.94043Z" fill="#1e1e1c"/>
  <path d="M151.96307,105.70313a2.51279,2.51279,0,0,1-2.60742,2.68164,2.44151,2.44151,0,0,1-2.51379-2.367q-.00348-.11584.004-.23161a2.50853,2.50853,0,0,1,2.59668-2.68262,2.43169,2.43169,0,0,1,2.52051,2.59961Zm-4.1543.05176a1.62381,1.62381,0,1,0,3.18066-.02051c0-.85645-.44336-1.94141-1.56836-1.94141-1.126,0-1.61232,1.00195-1.61232,1.96191Z" fill="#1e1e1c"/>
  <path d="M153.57437,107.73828l2.37012-2.97461c.22656-.27148.44336-.51172.68066-.7832V103.96h-2.834v-.74121h3.99222l-.01074.57422-2.33691,2.93262c-.2168.28223-.43262.53223-.6709.793V107.54h3.06155v.73047h-4.252Z" fill="#1e1e1c"/>
  <path d="M159.75212,107.331a2.55485,2.55485,0,0,0,1.25488.36523c.69238,0,1.0166-.334,1.0166-.752,0-.4375-.27051-.67773-.97363-.92871-.94141-.32324-1.38477-.82422-1.38477-1.42969,0-.81445.68164-1.48242,1.80664-1.48242a2.68588,2.68588,0,0,1,1.28711.31348l-.2373.668a2.096,2.096,0,0,0-1.07129-.292c-.5625,0-.876.3125-.876.68848,0,.418.31348.60547.99512.85645.9082.334,1.374.77148,1.374,1.52344,0,.88672-.71387,1.51367-1.958,1.51367a3.07333,3.07333,0,0,1-1.47168-.34473Zm1.18945-4.80078-1.03809-1.49316h.73535l.63867.99219h.02148l.63867-.99219h.71387l-1.01758,1.49316Z" fill="#1e1e1c"/>
  <path d="M167.18475,101.03711l-1.32031,1.49316h-.68164l.95215-1.49316Zm-1.93652,7.2334v-5.05176h.95215v5.05176Z" fill="#1e1e1c"/>
  <path d="M169.69548,102.53027l-1.03906-1.49316h.73633l.6377.99219h.02148l.63867-.99219h.71387l-1.0166,1.49316Zm-.833,2.26465c0-.59473-.01074-1.10645-.04395-1.57617h.833l.0332.99121h.043a1.56352,1.56352,0,0,1,1.44922-1.10645,1.03246,1.03246,0,0,1,.27051.03223v.86621a1.43667,1.43667,0,0,0-.32422-.03125,1.31562,1.31562,0,0,0-1.27637,1.17871,2.5135,2.5135,0,0,0-.043.42773v2.69336h-.94141Z" fill="#1e1e1c"/>
  <path d="M173.9035,105.91113a1.64992,1.64992,0,0,0,1.79492,1.75391,3.56671,3.56671,0,0,0,1.4502-.26074l.16211.65723a4.36249,4.36249,0,0,1-1.74121.31348,2.38784,2.38784,0,0,1-2.5752-2.54687,2.4862,2.4862,0,0,1,2.23625-2.71322q.10959-.01055.2198-.01139a2.16478,2.16478,0,0,1,2.16309,2.37988,3.3517,3.3517,0,0,1-.03223.42773Zm2.791-.65723a1.32162,1.32162,0,0,0-1.32031-1.49219,1.54429,1.54429,0,0,0-1.46,1.49219Z" fill="#1e1e1c"/>
  <path d="M179.87518,104.58594c0-.52148-.01074-.94922-.04395-1.36719h.84375l.05469.835h.02148a1.93693,1.93693,0,0,1,1.73145-.9502c.72461,0,1.84961.418,1.84961,2.15039v3.0166h-.95215V105.3584c0-.81445-.31348-1.49219-1.21191-1.49219a1.34532,1.34532,0,0,0-1.27637.93945,1.27978,1.27978,0,0,0-.06445.42773v3.03711h-.95215Z" fill="#1e1e1c"/>
  <path d="M187.49237,105.91113a1.65021,1.65021,0,0,0,1.7959,1.75391,3.565,3.565,0,0,0,1.44922-.26074l.16211.65723a4.36249,4.36249,0,0,1-1.74121.31348,2.38784,2.38784,0,0,1-2.5752-2.54687,2.4862,2.4862,0,0,1,2.23625-2.71322q.10959-.01055.2198-.01139a2.16478,2.16478,0,0,1,2.16309,2.37988,3.35168,3.35168,0,0,1-.03223.42773Zm2.791-.65723a1.32162,1.32162,0,0,0-1.32031-1.49219,1.54429,1.54429,0,0,0-1.46,1.49219Zm.22656-4.2168-1.31934,1.49316H188.509l.95215-1.49316Z" fill="#1e1e1c"/>
  <path d="M196.83905,104.79492c0-.59473-.01074-1.10645-.04395-1.57617h.833l.0332.99121h.043a1.56352,1.56352,0,0,1,1.44922-1.10645,1.03246,1.03246,0,0,1,.27051.03223v.86621a1.43667,1.43667,0,0,0-.32422-.03125,1.31562,1.31562,0,0,0-1.27637,1.17871,2.5135,2.5135,0,0,0-.043.42773v2.69336H196.839Z" fill="#1e1e1c"/>
  <path d="M201.881,105.91113a1.65021,1.65021,0,0,0,1.7959,1.75391,3.565,3.565,0,0,0,1.44922-.26074l.16211.65723a4.36249,4.36249,0,0,1-1.74121.31348,2.38784,2.38784,0,0,1-2.5752-2.54687,2.4862,2.4862,0,0,1,2.23625-2.71322q.10959-.01055.2198-.01139a2.16478,2.16478,0,0,1,2.16309,2.37988,3.35168,3.35168,0,0,1-.03223.42773Zm2.791-.65723a1.32162,1.32162,0,0,0-1.32031-1.49219,1.54429,1.54429,0,0,0-1.46,1.49219Z" fill="#1e1e1c"/>
  <path d="M210.75212,108.27051l-.07617-.63672h-.03223a1.97434,1.97434,0,0,1-1.60156.751,1.46731,1.46731,0,0,1-1.59456-1.32793q-.00556-.061-.006-.12228c0-1.22168,1.125-1.88965,3.14746-1.87891v-.10449a1.056,1.056,0,0,0-1.18945-1.169,2.68118,2.68118,0,0,0-1.36328.376l-.2168-.60547a3.34247,3.34247,0,0,1,1.7207-.44922,1.81833,1.81833,0,0,1,1.99023,2.06738v1.88867a6.81918,6.81918,0,0,0,.08691,1.21094Zm-.14062-2.57812c-1.03906-.02051-2.21777.15625-2.21777,1.1377a.82858.82858,0,0,0,.89746.877,1.3,1.3,0,0,0,1.26563-.8457.93443.93443,0,0,0,.05469-.292Z" fill="#1e1e1c"/>
  <path d="M214.14958,100.86035h.95215v7.41016h-.95215Z" fill="#1e1e1c"/>
  <path d="M218.84393,101.7998a.58994.58994,0,0,1-1.17871,0,.56987.56987,0,0,1,.56494-.57475q.0149-.00013.02979.00053a.55423.55423,0,0,1,.58356.52325Q218.84488,101.77429,218.84393,101.7998Zm-1.05957,6.4707v-5.05176h.95215v5.05176Z" fill="#1e1e1c"/>
  <path d="M222.54411,101.76758v1.45117h1.36325v.69922h-1.36328v2.72461c0,.626.18359.98047.71387.98047a2.195,2.195,0,0,0,.55176-.0625l.043.68848a2.39749,2.39749,0,0,1-.84375.126,1.34305,1.34305,0,0,1-1.02734-.38672,1.82327,1.82327,0,0,1-.36816-1.31445V103.918h-.81152v-.69922h.81152v-1.21094Z" fill="#1e1e1c"/>
  <path d="M226.50311,103.21875l1.14648,2.98535c.11914.334.249.73047.33594,1.0332h.02148c.09766-.30273.20605-.68945.335-1.05469l1.03906-2.96387h1.00586l-1.42773,3.60059a7.63081,7.63081,0,0,1-1.7959,3.16309,2.61958,2.61958,0,0,1-1.168.59473l-.23828-.77246a2.55123,2.55123,0,0,0,.833-.44922,2.8,2.8,0,0,0,.80078-1.02246.643.643,0,0,0,.0752-.21973.77862.77862,0,0,0-.06445-.23926l-1.93652-4.65527Z" fill="#1e1e1c"/>
</svg>
