<svg xmlns="http://www.w3.org/2000/svg" width="253.33333" height="49.333332">
  <defs>
    <clipPath id="a">
      <path d="M.06 36.659h189.454V.06H.06z"/>
    </clipPath>
    <clipPath id="b">
      <path d="M.06 36.659h189.454V.06H.06z"/>
    </clipPath>
  </defs>
  <path fill="#231f20" d="M92.3439977.62933422h1.3333333V49.037333h-1.3333333zM107.23466399.64666755h3.58266657l2.6546666 8.45999979h.03066667l2.6546666-8.45999979h3.58266658v11.16266639h-2.14399995V2.59733417h-.03066667l-3.00666659 9.21199977h-2.14133328l-3.00799992-9.21199977-.032.032v9.17999977h-2.14266661V.64666755M122.9466636.64666755h2.2386666v11.16266639h-2.2386666zM128.27466346.64666755h2.7506666l4.25333322 8.3479998h.03066667V.64666754h2.14399995v11.16266639h-2.7346666l-4.26933323-8.3479998h-.03333333v8.3479998h-2.14133328V.64666755M140.54666315.64666755h2.23866661v11.16266639h-2.2386666zM151.98132953 2.69333417c-.70266665-.30266666-1.48666663-.48-2.26933327-.48-.76666665 0-1.75866663.336-1.75866663 1.55199997 0 1.93466662 4.89333322 1.11866664 4.89333322 4.86133321 0 2.4466666-1.93466662 3.37333325-4.19066657 3.37333325-1.21466663 0-1.75733329-.16-2.86133326-.43066666l.208-2.01466661c.76666664.41466665 1.64533329.68666665 2.52533327.68666665.84799998 0 1.98399995-.43066666 1.98399995-1.43866663 0-2.12799995-4.89333321-1.24799997-4.89333321-4.94133321 0-2.4946666 1.93466661-3.40666658 3.90266657-3.40666658.9573333 0 1.85333328.128 2.66933326.39999999l-.20933333 1.83866662M157.7133294 2.40533417h-3.19733326V.64666755h8.63333311v1.75866662H159.951996v9.40399977h-2.2386666V2.40533417M167.42399581 5.41200076h.73599999c1.10266664 0 2.36799994-.16 2.36799994-1.55066662 0-1.34399997-1.24799997-1.45599997-2.36799994-1.45599997h-.73599999zM165.18666254.64666755h2.4146666c2.39866661 0 5.25999987-.08 5.25999987 3.0226666 0 1.31066663-.87999998 2.3986666-2.30133327 2.5906666v.032c.60666665.048.95866664.65599998 1.18266663 1.15066663l1.79066662 4.36666656h-2.4946666l-1.34399997-3.48666658c-.31999999-.83199998-.60666665-1.15066664-1.55066662-1.15066664h-.71999999v4.63733322h-2.23733327V.64666755M178.91199553 7.39466738L174.8346623.64666755h2.6226666l2.6386666 4.68533322 2.6866666-4.68533322h2.36533327l-3.99733323 6.74799983v4.41466656h-2.23866661V7.39466738M112.1599972 28.90933351c2.2866666 0 3.13466658-2.03199995 3.13466658-4.04666656 0-1.96799996-.91199997-3.98266657-3.13466658-3.98266657-2.22266662 0-3.13333326 2.01466661-3.13333326 3.98266657 0 2.01466661.84533331 4.04666656 3.13333326 4.04666656zm0-9.78799975c3.50133324 0 5.4693332 2.3666666 5.4693332 5.74133319 0 3.37466658-1.93466663 5.80399985-5.4693332 5.80399985-3.58133325 0-5.4693332-2.3826666-5.4693332-5.80399985 0-3.42266659 1.91866662-5.7413332 5.4693332-5.7413332M120.48266365 19.31333375h6.20533318v1.75866662h-3.96666656v2.7506666h3.77333323v1.75999996h-3.77333323v4.8933332h-2.23866662V19.31333376M136.57866325 24.07866696h.73333332c1.1053333 0 2.36799994-.16 2.36799994-1.55066662 0-1.34399997-1.24799997-1.45599997-2.36799994-1.45599997h-.73333332zm-2.23999994-4.7653332h2.4146666c2.39866661 0 5.26266654-.08 5.26266654 3.02266658 0 1.31066664-.88133331 2.3986666-2.30399994 2.5906666v.032c.60799998.048.95999997.65599999 1.18399997 1.15066664l1.79066662 4.36666656h-2.49333327l-1.34399997-3.48666658c-.32133332-.83199998-.60799998-1.15066664-1.55199996-1.15066664h-.71866665v4.63733322h-2.23999994V19.31333375M145.10666304 19.31333375h6.58799983v1.75866662h-4.34933322v2.7506666h3.98133323v1.75999996h-3.98133323v3.13333325h4.38133322v1.75999996h-6.61999983V19.31333375M163.51866258 21.47200036c-.86533331-.39999999-1.98533329-.59199998-2.87999993-.59199998-2.6066666 0-4.04533323 1.75999995-4.04533323 4.04666656 0 2.27199995 1.40666663 3.98266657 3.78933324 3.98266657.60799998 0 1.0893333-.06533333 1.47199996-.16133333v-2.90933326h-2.36799994v-1.75999996h4.51066655v6.01199985c-1.18399997.32133333-2.41333327.57599999-3.61466657.57599999-3.61333325 0-6.12533318-1.80666662-6.12533318-5.57999986 0-3.82266657 2.33599994-5.96533318 6.12533318-5.96533318 1.29599996 0 2.3186666.176 3.27866658.46399998l-.14266666 1.88666662M166.96399583 19.31333375h2.23733327v11.16266639h-2.23733327zM177.32799557 28.90933351c2.2866666 0 3.13333325-2.03199995 3.13333325-4.04666656 0-1.96799996-.91199998-3.98266657-3.13333325-3.98266657-2.22399995 0-3.1346666 2.01466661-3.1346666 3.98266657 0 2.01466661.84666665 4.04666656 3.1346666 4.04666656zm0-9.78799975c3.50133324 0 5.4693332 2.3666666 5.4693332 5.74133319 0 3.37466658-1.93599996 5.80399985-5.4693332 5.80399985-3.58266658 0-5.47066653-2.3826666-5.47066653-5.80399985 0-3.42266659 1.91999995-5.7413332 5.47066653-5.7413332M185.53866203 19.31333375h2.7506666l4.25199989 8.3479998h.03333333v-8.3479998h2.14133328v11.16266639h-2.7346666l-4.26799989-8.3479998h-.032v8.3479998h-2.14266661V19.31333375M202.43199494 21.55200036h-.03333333l-1.61466663 4.60533322h3.26266659zm-1.23199997-2.2386666h2.5266666l4.38266656 11.16266638h-2.4786666l-.96133331-2.5586666h-4.52666656l-.9733333 2.5586666h-2.31733328l4.34799989-11.16266639M210.3546614 19.31333375h2.23866662v9.40266643h4.33333322v1.75999996h-6.57199983V19.31333375M109.4733306 47.38266638h1.24799997c1.86933328 0 3.67733324-1.39066663 3.67733324-3.82133324 0-2.4306666-1.80799996-3.82133323-3.67733324-3.82133323h-1.24799997zm-2.23866661-9.40399976h3.05466659c3.42133324 0 6.44533317 1.1533333 6.44533317 5.58266652 0 4.42933323-3.02399993 5.5813332-6.44533317 5.5813332h-3.0546666V37.97866662M119.58533034 37.97866662h6.58933317v1.76133329h-4.34933322v2.74933326h3.98133323v1.75999996h-3.98133323v3.13333325h4.37999989v1.75999996h-6.61999984V37.97866662M128.14666346 37.97866662h2.39866661l2.86399993 8.76533311h.03066666l2.8306666-8.76533311h2.22266661l-3.75866657 11.16399972h-2.7506666l-3.83733324-11.16399972M140.75466315 37.97866662h6.58799983v1.76133329h-4.35066655v2.74933326h3.98133323v1.75999996h-3.98133323v3.13333325h4.38266655v1.75999996h-6.61999983V37.97866662"/>
  <g fill="#231f20" clip-path="url(#a)" transform="matrix(1.33333 0 0 -1.33333 0 49.333333)">
    <path d="M112.838 8.516h1.679V1.463h3.251V.143h-4.93v8.373M123.132 1.318c1.715 0 2.35 1.524 2.35 3.035 0 1.475-.683 2.987-2.35 2.987s-2.351-1.512-2.351-2.987c0-1.511.635-3.035 2.351-3.035zm0 7.34c2.626 0 4.101-1.774 4.101-4.305 0-2.531-1.451-4.353-4.101-4.353-2.687 0-4.103 1.787-4.103 4.353 0 2.567 1.44 4.305 4.103 4.305"/>
  </g>
  <path fill="#231f20" d="M174.54532897 43.14533315h.78266665c1.11999997 0 2.12799994-.36799999 2.12799994-1.66399995 0-1.2933333-.97599997-1.7413333-2.12799994-1.7413333h-.78266665zm-2.23866661-5.16666653h2.82933326c2.43199994 0 4.65466655.70533331 4.65466655 3.37599991 0 2.6066666-1.90266662 3.54933325-4.30133322 3.54933325h-.94399998v4.23866656h-2.23866661V37.97866662M182.19466211 37.97866662h3.58133325l2.6546666 8.46133312h.03333333l2.65333327-8.46133312h3.58266657v11.16399972h-2.14266661v-9.21199977h-.03333333l-3.00533326 9.21199977h-2.14399995l-3.00533326-9.21199977-.032.03333333v9.17866644h-2.1426666V37.97866662M198.09866171 37.97866662h6.58933317v1.76133329H200.335995v2.74933326h3.98133324v1.75999996h-3.98133324v3.13333325h4.38266656v1.75999996h-6.61999984V37.97866662M207.68266147 37.97866662h2.74933327l4.2559999 8.34933312h.03066666v-8.34933312h2.14266661v11.16399972h-2.73333326l-4.27066656-8.3479998h-.032v8.3479998h-2.14266662V37.97866662"/>
  <g clip-path="url(#b)" transform="matrix(1.33333 0 0 -1.33333 0 49.333333)">
    <path fill="#231f20" d="M166.633 7.195h-2.399v1.321h6.477V7.195h-2.398V.143h-1.68v7.052M182.41.264C181.799.119 181.139 0 180.504 0c-2.711 0-4.594 1.355-4.594 4.185 0 2.867 1.75 4.473 4.594 4.473.551 0 1.283-.107 1.894-.348l-.119-1.414c-.636.36-1.213.444-1.812.444-1.727 0-2.807-1.32-2.807-3.035 0-1.704 1.057-2.987 2.844-2.987.658 0 1.439.145 1.834.348l.072-1.402M183.709 1.511l3.934 5.684h-3.778v1.321h5.565V7.147l-3.969-5.684h4.053V.143h-5.805v1.368"/>
    <path fill="#254aa5" fill-rule="evenodd" d="M26.281 22.916c-3.989-.066-8.002-.846-12.082-1.765-1.935-.436-3.783-.831-5.566-1.687-2.914-1.398-6.776-4.012-6.676-8.789C2.201-.854 27.246 1.324 33.361 2.43c4.199.758 9.766 2.062 14.124 3.984 3.622 1.596 6.755 3.257 8.454 4.812-2.202-.441-6.471-2.212-10.984-3.088-2.988-.581-6.172-.958-8.743-.898-5.805.135-17.824 1.037-16.759 8.095.629 4.159 4.89 6.01 6.828 7.581"/>
    <path fill="#fff200" fill-rule="evenodd" d="M21.873 11.755c6.035.338 14.013 2.466 20.723 5.598 3.687 1.721 7.045 3.788 9.597 6.117 4.559 4.158 1.68 8.441-.668 11.257 2.342-.385 5.632-3.179 6.707-5.448 1.377-2.907 1.813-6.548.528-9.633-1.01-2.422-2.838-4.653-5.145-6.412-.935-.715-1.286-1.088-2.358-1.627-1.317-.66-2.405-1.159-3.488-1.541-4.122-1.454-10.23-1.674-14.534-1.306-5.202.445-7.33 1.187-11.362 2.995"/>
    <path fill="#00a650" fill-rule="evenodd" d="M42.444 18.947c-2.856 4.298-8.807 5.452-15.534 5.341-4.269-.068-8.943-.702-13.291-1.75-2.277-.55-4.409-1.102-6.467-1.985C4.648 19.478 1.727 18.355 0 17.898c3.549 3.727 12.74 11.166 26.285 14.139 10.171 2.23 28.467 2.824 26.586-4.76-.72-2.905-6.012-6.198-10.427-8.33"/>
  </g>
  <path fill="#fff200" fill-rule="evenodd" d="M16.32133293 25.4493336l-4.64666656.68799998 4.0959999.82799998-.9413333 2.5066666 3.41066657-1.99466661 4.06533324.85999997-1.99066662-2.05999994 3.45599991-1.97333329-4.63999988.71999998-1.93199995-2.08266661-.87733331 2.50799994M13.297333 35.57466668l-4.11733323.49866665 3.60266658.97999998-.87866665 2.43999994 3.04933326-1.83866662 3.57333324 1.01066664-1.71733329-2.11599995 3.08799993-1.81733329-4.11333323.53066666-1.66399996-2.13199995-.82266665 2.44399994M24.59866605 40.81199988l-3.54666658.10933333 3.0466666 1.11199997-.85333332 2.01733329 2.6866666-1.3373333 3.02133326 1.13466663-1.3853333-1.93599995 2.7186666-1.31466663-3.54133325.13866666-1.3413333-1.94799995-.8053333 2.02399995"/>
  <path fill="#fff" fill-rule="evenodd" d="M68.02133163 16.71733382c-.07466666-.06133334-.07866666-.052-.15333333-.112-2.3026666-1.86533329-5.50399986-3.49066658-8.54533312-4.43466656l-1.74399995 2.30799994c2.11599994.76666665 4.61599988 2.00399995 6.7026665 3.49733325.32266665.232.70666665.56533332 1.0173333.85599998.05733334.05333333.04266667.044.09466667.09333333.87199998-.63466665 2.15866661-1.69599996 2.62799993-2.20799994M53.25866534 10.6466673c-4.1199999-.61866665-7.8759998-.75866665-13.12799968-.09733333l-1.30266663 2.10266661c4.05733323-.37599999 8.98799977-.31866665 12.76399968.288l1.66666663-2.29333328M33.45999916 11.6760006l-1.0173333 1.69466663c-1.7813333.31866666-6.06399985 1.18799997-9.66399976 1.94133329-1.4373333.30133332-2.18266661.49999998-3.13333326.73333331 2.41999994-1.1893333 9.71466643-3.60933324 13.81466632-4.36933322"/>
  <path fill="#00a650" fill-rule="evenodd" d="M56.71333192 32.04666677c-.31466666.57999998-.15333333.9533333.11333333 1.60399996.47866665 1.15999997-.32933333 1.99333328-1.1733333 2.22399994-1.45999997.39999999-3.86933324.168-5.04266655-1.4293333l-2.57333327 1.0653333-3.6399999-.57733331c2.11333327-.10133333 8.31599979-1.21599997 9.75999975-2.02266662l-5.14399987.82933332c-.60666665-.148-1.3253333-.44-1.6933333-.99599998-1.28399996-1.78799995 3.68266658-2.6506666 5.7013332-1.61066662 1.48666663.7693333 2.7626666.9173333 3.6919999.9133333M67.68266497 26.22800024c-.16933332.51066666-.00666666.76133332.268 1.19599997.48933332.77599999.41866665 1.94799996-.172 2.38666661-1.41466663 1.05466664-3.30933325.55866665-4.36666656-.39333332l-2.38799994 1.74133329-2.18399994.01733333c1.56399996-.54933332 6.05199985-2.78533326 7.03466649-3.7199999l-3.7359999 1.77866662c-.46933333.02266666-1.39466664-.13733333-1.7333333-.47866666-1.16266663-1.0733333 2.43599994-2.83733326 4.0599999-2.49733327 1.19599997.25066666 2.52133327.18 3.21733325-.03066667M73.3693315 20.12266706c.10266666.412.31066666.58266666.76933331.82799998.72799999.38933333 1.21599997 1.1893333.93733331 1.81066662-.61333331 1.37466664-2.36799994 1.09866664-3.65733324.61466666l-1.11199997 1.79066662-1.7413333.46933332c.99733332-.73333332 3.56933325-3.32666658 3.92266658-4.2279999l-2.17333328 2.10133329c-.36666666.116-1.18399997.19066666-1.61199996.01066666-1.4293333-.55199998.64133332-2.61199993 2.10266661-2.6986666 1.07733331-.06533333 2.10666662-.39866665 2.56399994-.69866665"/>
</svg>
