<?xml version="1.0" encoding="UTF-8"?>
<svg xmlns="http://www.w3.org/2000/svg" xmlns:xlink="http://www.w3.org/1999/xlink" width="169.726pt" height="90.5625pt" viewBox="0 0 169.726 90.5625" version="1.1">
<g id="surface1">
<path style=" stroke:none;fill-rule:nonzero;fill:rgb(9.306335%,27.600098%,54.544067%);fill-opacity:1;" d="M 15.015625 63.28125 L 11.359375 54.84375 L 9.320313 65.472656 L 10.46875 65.472656 L 11.761719 58.671875 L 11.789063 58.671875 L 15.015625 65.886719 L 18.253906 58.671875 L 18.28125 58.671875 L 19.574219 65.472656 L 20.722656 65.472656 L 18.679688 54.84375 Z M 15.015625 63.28125 "/>
<path style=" stroke:none;fill-rule:nonzero;fill:rgb(9.306335%,27.600098%,54.544067%);fill-opacity:1;" d="M 23.414063 65.46875 L 22.296875 65.46875 L 22.296875 55.414063 L 23.414063 55.414063 Z M 23.414063 65.46875 "/>
<path style=" stroke:none;fill-rule:nonzero;fill:rgb(9.306335%,27.600098%,54.544067%);fill-opacity:1;" d="M 25.789063 54.988281 L 33.632813 63.203125 L 33.632813 55.417969 L 34.75 55.417969 L 34.75 65.925781 L 26.910156 57.722656 L 26.910156 65.46875 L 25.789063 65.46875 Z M 25.789063 54.988281 "/>
<path style=" stroke:none;fill-rule:nonzero;fill:rgb(9.306335%,27.600098%,54.544067%);fill-opacity:1;" d="M 38.257813 65.46875 L 37.136719 65.46875 L 37.136719 55.414063 L 38.257813 55.414063 Z M 38.257813 65.46875 "/>
<path style=" stroke:none;fill-rule:nonzero;fill:rgb(9.306335%,27.600098%,54.544067%);fill-opacity:1;" d="M 45.125 57.378906 C 44.726563 56.683594 44.246094 56.28125 43.390625 56.28125 C 42.5 56.28125 41.722656 56.921875 41.722656 57.84375 C 41.722656 58.710938 42.617188 59.109375 43.296875 59.417969 L 43.964844 59.710938 C 45.269531 60.28125 46.378906 60.9375 46.378906 62.535156 C 46.378906 64.296875 44.964844 65.644531 43.21875 65.644531 C 41.605469 65.644531 40.40625 64.605469 40.085938 63.042969 L 41.179688 62.734375 C 41.324219 63.765625 42.113281 64.605469 43.191406 64.605469 C 44.273438 64.605469 45.257813 63.777344 45.257813 62.644531 C 45.257813 61.472656 44.339844 61.070313 43.40625 60.644531 L 42.792969 60.378906 C 41.617188 59.84375 40.605469 59.242188 40.605469 57.804688 C 40.605469 56.242188 41.925781 55.242188 43.417969 55.242188 C 44.539063 55.242188 45.484375 55.816406 46.019531 56.804688 Z M 45.125 57.378906 "/>
<path style=" stroke:none;fill-rule:nonzero;fill:rgb(9.306335%,27.600098%,54.544067%);fill-opacity:1;" d="M 50.285156 65.46875 L 49.164063 65.46875 L 49.164063 56.457031 L 46.738281 56.457031 L 46.738281 55.417969 L 52.738281 55.417969 L 52.738281 56.457031 L 50.285156 56.457031 Z M 50.285156 65.46875 "/>
<path style=" stroke:none;fill-rule:nonzero;fill:rgb(9.306335%,27.600098%,54.544067%);fill-opacity:1;" d="M 54.152344 55.414063 L 59.367188 55.414063 L 59.367188 56.457031 L 55.273438 56.457031 L 55.273438 59.441406 L 59.246094 59.441406 L 59.246094 60.484375 L 55.273438 60.484375 L 55.273438 64.429688 L 59.367188 64.429688 L 59.367188 65.472656 L 54.152344 65.472656 Z M 54.152344 55.414063 "/>
<path style=" stroke:none;fill-rule:nonzero;fill:rgb(9.306335%,27.600098%,54.544067%);fill-opacity:1;" d="M 62.660156 65.46875 L 61.539063 65.46875 L 61.539063 55.417969 L 62.992188 55.417969 C 64.898438 55.417969 66.671875 55.921875 66.671875 58.191406 C 66.671875 59.738281 65.699219 60.828125 64.152344 60.960938 L 67.351563 65.46875 L 65.980469 65.46875 L 62.941406 61.058594 L 62.660156 61.058594 Z M 62.660156 60.070313 L 63.007813 60.070313 C 64.273438 60.070313 65.554688 59.828125 65.554688 58.269531 C 65.554688 56.617188 64.339844 56.457031 62.992188 56.457031 L 62.660156 56.457031 Z M 62.660156 60.070313 "/>
<path style=" stroke:none;fill-rule:nonzero;fill:rgb(9.306335%,27.600098%,54.544067%);fill-opacity:1;" d="M 73.59375 57.378906 C 73.195313 56.683594 72.714844 56.28125 71.859375 56.28125 C 70.96875 56.28125 70.191406 56.921875 70.191406 57.84375 C 70.191406 58.710938 71.089844 59.109375 71.765625 59.417969 L 72.433594 59.710938 C 73.738281 60.28125 74.847656 60.9375 74.847656 62.535156 C 74.847656 64.296875 73.433594 65.644531 71.6875 65.644531 C 70.074219 65.644531 68.875 64.605469 68.554688 63.042969 L 69.644531 62.734375 C 69.792969 63.765625 70.582031 64.605469 71.660156 64.605469 C 72.742188 64.605469 73.726563 63.777344 73.726563 62.644531 C 73.726563 61.472656 72.808594 61.070313 71.875 60.644531 L 71.261719 60.378906 C 70.085938 59.84375 69.074219 59.242188 69.074219 57.804688 C 69.074219 56.242188 70.394531 55.242188 71.886719 55.242188 C 73.007813 55.242188 73.953125 55.816406 74.488281 56.804688 Z M 73.59375 57.378906 "/>
<path style=" stroke:none;fill-rule:nonzero;fill:rgb(9.306335%,27.600098%,54.544067%);fill-opacity:1;" d="M 78.753906 65.46875 L 77.632813 65.46875 L 77.632813 56.457031 L 75.207031 56.457031 L 75.207031 55.417969 L 81.207031 55.417969 L 81.207031 56.457031 L 78.753906 56.457031 Z M 78.753906 65.46875 "/>
<path style=" stroke:none;fill-rule:nonzero;fill:rgb(9.306335%,27.600098%,54.544067%);fill-opacity:1;" d="M 85.101563 63.085938 L 87.96875 55.417969 L 89.183594 55.417969 L 85.101563 66.070313 L 81.023438 55.417969 L 82.234375 55.417969 Z M 85.101563 63.085938 "/>
<path style=" stroke:none;fill-rule:nonzero;fill:rgb(9.306335%,27.600098%,54.544067%);fill-opacity:1;" d="M 100.183594 60.457031 C 100.183594 63.351563 97.808594 65.644531 94.945313 65.644531 C 92.074219 65.644531 89.703125 63.351563 89.703125 60.457031 C 89.703125 57.574219 92.074219 55.242188 94.945313 55.242188 C 97.808594 55.242188 100.183594 57.574219 100.183594 60.457031 M 90.824219 60.441406 C 90.824219 62.710938 92.664063 64.601563 94.945313 64.601563 C 97.222656 64.601563 99.0625 62.710938 99.0625 60.441406 C 99.0625 58.164063 97.25 56.28125 94.945313 56.28125 C 92.636719 56.28125 90.824219 58.164063 90.824219 60.441406 "/>
<path style=" stroke:none;fill-rule:nonzero;fill:rgb(9.306335%,27.600098%,54.544067%);fill-opacity:1;" d="M 11.175781 80.507813 L 10.054688 80.507813 L 10.054688 70.453125 L 11.707031 70.453125 C 12.574219 70.453125 13.46875 70.480469 14.203125 70.988281 C 14.949219 71.507813 15.335938 72.390625 15.335938 73.277344 C 15.335938 74.09375 15 74.917969 14.375 75.441406 C 13.695313 76 12.828125 76.109375 11.988281 76.109375 L 11.175781 76.109375 Z M 11.175781 75.070313 L 11.921875 75.070313 C 13.160156 75.070313 14.214844 74.695313 14.214844 73.253906 C 14.214844 71.613281 12.894531 71.492188 11.589844 71.492188 L 11.175781 71.492188 Z M 11.175781 75.070313 "/>
<path style=" stroke:none;fill-rule:nonzero;fill:rgb(9.306335%,27.600098%,54.544067%);fill-opacity:1;" d="M 18.148438 80.507813 L 17.027344 80.507813 L 17.027344 70.453125 L 18.480469 70.453125 C 20.390625 70.453125 22.164063 70.960938 22.164063 73.226563 C 22.164063 74.773438 21.1875 75.867188 19.640625 76 L 22.839844 80.507813 L 21.46875 80.507813 L 18.429688 76.09375 L 18.148438 76.09375 Z M 18.148438 75.109375 L 18.496094 75.109375 C 19.761719 75.109375 21.042969 74.867188 21.042969 73.308594 C 21.042969 71.652344 19.828125 71.492188 18.480469 71.492188 L 18.148438 71.492188 Z M 18.148438 75.109375 "/>
<path style=" stroke:none;fill-rule:nonzero;fill:rgb(9.306335%,27.600098%,54.544067%);fill-opacity:1;" d="M 25.28125 76.441406 C 25.28125 77.1875 25.257813 78.042969 25.722656 78.679688 C 26.164063 79.296875 27.015625 79.640625 27.75 79.640625 C 28.46875 79.640625 29.257813 79.308594 29.722656 78.75 C 30.253906 78.105469 30.214844 77.226563 30.214844 76.441406 L 30.214844 70.453125 L 31.335938 70.453125 L 31.335938 76.75 C 31.335938 77.839844 31.257813 78.707031 30.457031 79.535156 C 29.761719 80.28125 28.761719 80.679688 27.75 80.679688 C 26.800781 80.679688 25.828125 80.324219 25.148438 79.65625 C 24.269531 78.8125 24.164063 77.894531 24.164063 76.75 L 24.164063 70.453125 L 25.28125 70.453125 Z M 28.949219 68.988281 C 28.949219 69.640625 28.441406 70.160156 27.789063 70.160156 C 27.136719 70.160156 26.617188 69.640625 26.617188 68.988281 C 26.617188 68.347656 27.136719 67.828125 27.789063 67.828125 C 28.429688 67.828125 28.949219 68.347656 28.949219 68.988281 M 27.214844 68.988281 C 27.214844 69.296875 27.484375 69.558594 27.789063 69.558594 C 28.09375 69.558594 28.347656 69.296875 28.347656 68.988281 C 28.347656 68.679688 28.09375 68.425781 27.789063 68.425781 C 27.484375 68.425781 27.214844 68.679688 27.214844 68.988281 "/>
<path style=" stroke:none;fill-rule:nonzero;fill:rgb(9.306335%,27.600098%,54.544067%);fill-opacity:1;" d="M 38.21875 78.324219 L 34.5625 69.882813 L 32.523438 80.507813 L 33.671875 80.507813 L 34.964844 73.707031 L 34.992188 73.707031 L 38.21875 80.921875 L 41.457031 73.707031 L 41.484375 73.707031 L 42.777344 80.507813 L 43.925781 80.507813 L 41.882813 69.882813 Z M 38.21875 78.324219 "/>
<path style=" stroke:none;fill-rule:nonzero;fill:rgb(9.306335%,27.600098%,54.544067%);fill-opacity:1;" d="M 43.898438 70.453125 L 45.191406 70.453125 L 47.75 74.933594 L 50.3125 70.453125 L 51.605469 70.453125 L 48.3125 76.1875 L 48.3125 80.507813 L 47.191406 80.507813 L 47.191406 76.1875 Z M 43.898438 70.453125 "/>
<path style=" stroke:none;fill-rule:nonzero;fill:rgb(9.306335%,27.600098%,54.544067%);fill-opacity:1;" d="M 56.871094 72.414063 C 56.472656 71.722656 55.992188 71.320313 55.136719 71.320313 C 54.246094 71.320313 53.472656 71.960938 53.472656 72.882813 C 53.472656 73.75 54.367188 74.148438 55.046875 74.453125 L 55.710938 74.75 C 57.019531 75.320313 58.125 75.976563 58.125 77.574219 C 58.125 79.335938 56.710938 80.683594 54.964844 80.683594 C 53.351563 80.683594 52.152344 79.640625 51.832031 78.082031 L 52.925781 77.773438 C 53.074219 78.800781 53.859375 79.640625 54.941406 79.640625 C 56.019531 79.640625 57.007813 78.8125 57.007813 77.683594 C 57.007813 76.507813 56.085938 76.105469 55.152344 75.683594 L 54.539063 75.414063 C 53.367188 74.882813 52.351563 74.28125 52.351563 72.84375 C 52.351563 71.28125 53.671875 70.28125 55.164063 70.28125 C 56.285156 70.28125 57.234375 70.851563 57.765625 71.839844 Z M 56.871094 72.414063 "/>
<path style=" stroke:none;fill-rule:nonzero;fill:rgb(9.306335%,27.600098%,54.544067%);fill-opacity:1;" d="M 61.152344 79.46875 L 63.925781 79.46875 L 63.925781 80.507813 L 60.03125 80.507813 L 60.03125 70.453125 L 61.152344 70.453125 Z M 61.152344 79.46875 "/>
<path style=" stroke:none;fill-rule:nonzero;fill:rgb(9.306335%,27.600098%,54.544067%);fill-opacity:1;" d="M 66.0625 76.441406 C 66.0625 77.1875 66.03125 78.042969 66.5 78.679688 C 66.941406 79.296875 67.792969 79.640625 68.527344 79.640625 C 69.246094 79.640625 70.035156 79.308594 70.5 78.75 C 71.03125 78.105469 70.992188 77.226563 70.992188 76.441406 L 70.992188 70.453125 L 72.113281 70.453125 L 72.113281 76.75 C 72.113281 77.839844 72.035156 78.707031 71.234375 79.535156 C 70.539063 80.28125 69.539063 80.679688 68.527344 80.679688 C 67.578125 80.679688 66.605469 80.324219 65.925781 79.65625 C 65.046875 78.8125 64.941406 77.894531 64.941406 76.75 L 64.941406 70.453125 L 66.0625 70.453125 Z M 66.0625 76.441406 "/>
<path style=" stroke:none;fill-rule:nonzero;fill:rgb(9.306335%,27.600098%,54.544067%);fill-opacity:1;" d="M 80.246094 77.65625 L 79.035156 80.507813 L 77.808594 80.507813 L 82.449219 69.972656 L 86.96875 80.507813 L 85.726563 80.507813 L 84.542969 77.65625 Z M 82.421875 72.589844 L 80.703125 76.617188 L 84.101563 76.617188 Z M 82.421875 72.589844 "/>
<path style=" stroke:none;fill-rule:nonzero;fill:rgb(9.306335%,27.600098%,54.544067%);fill-opacity:1;" d="M 102.675781 75.492188 C 102.675781 78.386719 100.304688 80.683594 97.4375 80.683594 C 94.570313 80.683594 92.195313 78.386719 92.195313 75.492188 C 92.195313 72.613281 94.570313 70.28125 97.4375 70.28125 C 100.304688 70.28125 102.675781 72.613281 102.675781 75.492188 M 93.316406 75.480469 C 93.316406 77.75 95.15625 79.640625 97.4375 79.640625 C 99.71875 79.640625 101.558594 77.75 101.558594 75.480469 C 101.558594 73.199219 99.742188 71.320313 97.4375 71.320313 C 95.128906 71.320313 93.316406 73.199219 93.316406 75.480469 "/>
<path style=" stroke:none;fill-rule:nonzero;fill:rgb(9.306335%,27.600098%,54.544067%);fill-opacity:1;" d="M 104.464844 70.453125 L 106.117188 70.453125 C 107.945313 70.453125 109.476563 71.121094 109.476563 73.175781 C 109.476563 73.988281 109.171875 74.679688 108.492188 75.136719 C 109.691406 75.429688 110.398438 76.507813 110.398438 77.707031 C 110.398438 79.707031 108.785156 80.507813 106.796875 80.507813 L 104.464844 80.507813 Z M 105.585938 74.882813 L 106.011719 74.882813 C 107.277344 74.882813 108.359375 74.734375 108.359375 73.175781 C 108.359375 71.652344 107.398438 71.492188 106.023438 71.492188 L 105.585938 71.492188 Z M 105.585938 79.46875 L 106.703125 79.46875 C 107.957031 79.46875 109.277344 79.160156 109.277344 77.628906 C 109.277344 76.066406 107.785156 75.839844 106.558594 75.839844 L 105.585938 75.839844 Z M 105.585938 79.46875 "/>
<path style=" stroke:none;fill-rule:nonzero;fill:rgb(9.306335%,27.600098%,54.544067%);fill-opacity:1;" d="M 119.972656 72.65625 C 119.171875 71.828125 118.066406 71.320313 116.90625 71.320313 C 114.664063 71.320313 112.851563 73.265625 112.851563 75.480469 C 112.851563 77.695313 114.679688 79.640625 116.933594 79.640625 C 118.066406 79.640625 119.171875 79.109375 119.972656 78.308594 L 119.972656 79.691406 C 119.105469 80.324219 118.039063 80.679688 116.972656 80.679688 C 114.132813 80.679688 111.730469 78.375 111.730469 75.519531 C 111.730469 72.640625 114.089844 70.28125 116.972656 70.28125 C 118.09375 70.28125 119.078125 70.601563 119.972656 71.265625 Z M 119.972656 72.65625 "/>
<path style=" stroke:none;fill-rule:nonzero;fill:rgb(9.306335%,27.600098%,54.544067%);fill-opacity:1;" d="M 128.121094 74.535156 L 128.121094 70.453125 L 129.238281 70.453125 L 129.238281 80.507813 L 128.121094 80.507813 L 128.121094 75.574219 L 122.972656 75.574219 L 122.972656 80.507813 L 121.851563 80.507813 L 121.851563 70.453125 L 122.972656 70.453125 L 122.972656 74.535156 Z M 128.121094 74.535156 "/>
<path style=" stroke:none;fill-rule:nonzero;fill:rgb(9.306335%,27.600098%,54.544067%);fill-opacity:1;" d="M 141.425781 75.492188 C 141.425781 78.386719 139.054688 80.683594 136.1875 80.683594 C 133.320313 80.683594 130.949219 78.386719 130.949219 75.492188 C 130.949219 72.613281 133.320313 70.28125 136.1875 70.28125 C 139.054688 70.28125 141.425781 72.613281 141.425781 75.492188 M 132.066406 75.480469 C 132.066406 77.75 133.90625 79.640625 136.1875 79.640625 C 138.46875 79.640625 140.308594 77.75 140.308594 75.480469 C 140.308594 73.199219 138.492188 71.320313 136.1875 71.320313 C 133.882813 71.320313 132.066406 73.199219 132.066406 75.480469 "/>
<path style=" stroke:none;fill-rule:nonzero;fill:rgb(9.306335%,27.600098%,54.544067%);fill-opacity:1;" d="M 143.214844 70.453125 L 145.109375 70.453125 C 146.617188 70.453125 147.84375 70.652344 149.027344 71.667969 C 150.175781 72.652344 150.695313 74 150.695313 75.492188 C 150.695313 76.960938 150.164063 78.253906 149.054688 79.242188 C 147.855469 80.308594 146.65625 80.507813 145.082031 80.507813 L 143.214844 80.507813 Z M 145.148438 79.46875 C 146.375 79.46875 147.402344 79.296875 148.324219 78.429688 C 149.148438 77.652344 149.578125 76.601563 149.578125 75.480469 C 149.578125 74.335938 149.136719 73.226563 148.269531 72.46875 C 147.347656 71.652344 146.335938 71.492188 145.148438 71.492188 L 144.335938 71.492188 L 144.335938 79.46875 Z M 145.148438 79.46875 "/>
<path style=" stroke:none;fill-rule:nonzero;fill:rgb(9.306335%,27.600098%,54.544067%);fill-opacity:1;" d="M 153.617188 76.441406 C 153.617188 77.1875 153.589844 78.042969 154.054688 78.679688 C 154.496094 79.296875 155.347656 79.640625 156.082031 79.640625 C 156.804688 79.640625 157.589844 79.308594 158.058594 78.75 C 158.589844 78.105469 158.550781 77.226563 158.550781 76.441406 L 158.550781 70.457031 L 159.671875 70.457031 L 159.671875 76.75 C 159.671875 77.839844 159.589844 78.707031 158.789063 79.535156 C 158.097656 80.28125 157.097656 80.679688 156.082031 80.679688 C 155.136719 80.679688 154.164063 80.324219 153.484375 79.65625 C 152.601563 78.8125 152.496094 77.894531 152.496094 76.75 L 152.496094 70.457031 L 153.617188 70.457031 Z M 153.617188 76.441406 "/>
<path style=" stroke:none;fill-rule:nonzero;fill:rgb(18.411255%,59.146118%,85.604858%);fill-opacity:1;" d="M 79.921875 43.652344 C 79.707031 33.847656 73 24.574219 66.582031 19.488281 C 59.089844 13.554688 53.023438 11.175781 46.027344 10.105469 C 52.570313 11.425781 58.949219 13.425781 67.058594 20.308594 C 72.164063 24.636719 78.71875 31.742188 79.921875 43.652344 "/>
<path style=" stroke:none;fill-rule:nonzero;fill:rgb(70.646667%,7.588196%,11.340332%);fill-opacity:1;" d="M 17.730469 23.21875 C 15.523438 25.996094 13.523438 29.675781 12.066406 33.484375 C 10.410156 37.804688 9.875 42.242188 10.011719 46.359375 L 10.402344 46.359375 C 10.375 42.507813 10.914063 38.605469 12.101563 35 C 15.25 25.46875 20.8125 18.40625 30.703125 13.082031 C 25.273438 16.019531 21.238281 18.988281 17.730469 23.21875 "/>
<path style=" stroke:none;fill-rule:nonzero;fill:rgb(89.752197%,10.43396%,13.946533%);fill-opacity:1;" d="M 68.773438 19.703125 C 67.222656 18.449219 63.925781 16.261719 53.730469 14.417969 C 43.375 12.546875 34.257813 12.824219 32.339844 12.453125 L 31.644531 12.726563 C 33.144531 13.339844 38.988281 12.917969 46.445313 13.824219 C 53.902344 14.726563 65.203125 16.570313 69.523438 20.425781 Z M 68.773438 19.703125 "/>
<path style=" stroke:none;fill-rule:nonzero;fill:rgb(13.729858%,12.159729%,12.548828%);fill-opacity:1;" d="M 75.703125 28.707031 C 73.960938 26.660156 67.699219 24.265625 46.984375 23.652344 C 25.949219 23.027344 19.402344 24.121094 17.53125 23.5 C 17.53125 23.5 18.011719 22.890625 18.175781 22.722656 C 18.175781 23.195313 31.414063 22.378906 41.441406 22.59375 C 51.210938 22.804688 71.507813 23.433594 75.148438 27.734375 C 75.402344 28.144531 75.703125 28.707031 75.703125 28.707031 "/>
<path style=" stroke:none;fill-rule:nonzero;fill:rgb(70.646667%,7.588196%,11.340332%);fill-opacity:1;" d="M 57.230469 12.429688 C 57.171875 12.402344 57.128906 12.386719 57.128906 12.386719 C 57.128906 12.386719 57.171875 12.402344 57.230469 12.429688 "/>
<path style=" stroke:none;fill-rule:nonzero;fill:rgb(70.646667%,7.588196%,11.340332%);fill-opacity:1;" d="M 58.132813 12.8125 C 57.921875 12.71875 57.441406 12.515625 57.230469 12.429688 C 57.46875 12.535156 58.066406 12.84375 58.066406 13.324219 C 58.066406 15.859375 49.871094 19.4375 33.4375 28.988281 C 21.664063 35.828125 14.238281 41.648438 11.539063 46.363281 L 12.351563 46.363281 C 17.316406 39.132813 31.355469 31.292969 40.519531 26.042969 C 53.292969 18.722656 58.949219 15.761719 58.949219 13.753906 C 58.949219 13.28125 58.402344 12.929688 58.132813 12.8125 "/>
<path style=" stroke:none;fill-rule:nonzero;fill:rgb(74.977112%,90.21759%,97.573853%);fill-opacity:1;" d="M 26.011719 45.929688 C 26.011719 46.074219 26.015625 46.21875 26.015625 46.363281 L 26.996094 46.363281 C 26.96875 45.527344 26.953125 44.691406 26.953125 43.855469 C 26.953125 27.941406 31.777344 13.8125 37.546875 10.84375 C 37.546875 10.84375 37.246094 10.859375 36.953125 11.03125 C 31.320313 14.34375 26.011719 25.769531 26.011719 45.929688 "/>
<path style=" stroke:none;fill-rule:nonzero;fill:rgb(31.710815%,73.291016%,92.932129%);fill-opacity:1;" d="M 13.421875 38.570313 C 12.785156 41.054688 12.394531 43.683594 12.277344 46.363281 L 12.796875 46.363281 C 13.03125 42.855469 13.695313 38.714844 15.164063 34.378906 C 18.1875 25.644531 25.058594 15.523438 33.65625 12.023438 C 24.390625 15.726563 16.539063 26.394531 13.421875 38.570313 "/>
<path style=" stroke:none;fill-rule:nonzero;fill:rgb(31.710815%,73.291016%,92.932129%);fill-opacity:1;" d="M 33.65625 12.023438 C 34.246094 11.789063 34.839844 11.578125 35.4375 11.402344 C 34.835938 11.578125 34.242188 11.785156 33.65625 12.023438 "/>
<path style=" stroke:none;fill-rule:nonzero;fill:rgb(31.710815%,73.291016%,92.932129%);fill-opacity:1;" d="M 56.621094 12.203125 C 54.308594 11.699219 48.367188 12.332031 40.71875 13.691406 C 33.003906 15.0625 22.917969 18.015625 20.269531 20.507813 C 21.796875 18.875 24.789063 16.632813 37.648438 13.855469 C 48.21875 11.578125 54.0625 11.5 55.636719 11.875 C 56.085938 12.003906 56.621094 12.203125 56.621094 12.203125 "/>
<path style=" stroke:none;fill-rule:nonzero;fill:rgb(18.411255%,59.146118%,85.604858%);fill-opacity:1;" d="M 61.472656 14.371094 C 65.554688 16.78125 68.976563 20.433594 68.976563 27.398438 C 68.976563 32.734375 67.027344 38.667969 62.914063 46.363281 L 64.085938 46.363281 C 67.367188 40.015625 69.746094 33.722656 69.746094 28.621094 C 69.746094 22.421875 67.644531 17.699219 61.472656 14.371094 "/>
<path style=" stroke:none;fill-rule:nonzero;fill:rgb(13.729858%,12.159729%,12.548828%);fill-opacity:1;" d="M 11.648438 34.777344 C 11.71875 34.542969 11.777344 34.378906 11.777344 34.378906 C 11.777344 34.378906 11.703125 34.523438 11.648438 34.777344 "/>
<path style=" stroke:none;fill-rule:nonzero;fill:rgb(13.729858%,12.159729%,12.548828%);fill-opacity:1;" d="M 12.710938 37.890625 C 11.503906 36.539063 11.527344 35.363281 11.648438 34.777344 C 11.550781 35.109375 11.414063 35.582031 11.34375 35.949219 C 11.289063 37.507813 11.769531 39.691406 17.84375 42.652344 C 20.546875 43.96875 23.859375 45.191406 27.5 46.363281 L 31.394531 46.363281 C 21.984375 43.554688 15.558594 41.082031 12.710938 37.890625 "/>
<path style=" stroke:none;fill-rule:nonzero;fill:rgb(18.411255%,59.146118%,85.604858%);fill-opacity:1;" d="M 27.125 15.058594 C 27.125 15.058594 25.890625 15.777344 24.996094 16.472656 C 22.394531 18.484375 18.90625 22.414063 18.90625 28.246094 C 18.90625 32.238281 20.128906 38.035156 25.496094 46.363281 L 27.40625 46.363281 C 22.425781 39.027344 19.960938 32.707031 19.960938 27.394531 C 19.960938 20.894531 23.828125 16.988281 27.125 15.058594 "/>
<path style=" stroke:none;fill-rule:nonzero;fill:rgb(9.306335%,27.600098%,54.544067%);fill-opacity:1;" d="M 65.246094 16.78125 C 65.757813 17.199219 66.449219 17.859375 66.449219 18.796875 C 66.449219 22.324219 58.964844 27.714844 43.386719 37.453125 C 37.960938 40.847656 33.5 43.785156 29.839844 46.363281 L 31.953125 46.363281 C 35.15625 44.148438 38.929688 41.671875 43.386719 38.898438 C 65.589844 25.066406 67.179688 21.667969 67.179688 19.320313 C 67.179688 18.253906 66.394531 17.519531 65.246094 16.78125 "/>
<path style=" stroke:none;fill-rule:nonzero;fill:rgb(70.646667%,7.588196%,11.340332%);fill-opacity:1;" d="M 37.648438 10.824219 C 38.300781 10.746094 38.636719 10.832031 39.871094 11.089844 C 43.167969 11.777344 52.289063 13.8125 61.027344 17.652344 C 67.613281 20.542969 74.023438 25.003906 76.144531 29.546875 C 74.933594 26.929688 71.230469 20.78125 56.738281 15.472656 C 47.6875 12.160156 41.410156 11.09375 38.382813 10.699219 C 38.382813 10.699219 37.808594 10.769531 37.648438 10.824219 "/>
<path style=" stroke:none;fill-rule:nonzero;fill:rgb(18.411255%,59.146118%,85.604858%);fill-opacity:1;" d="M 41.613281 10.222656 C 43.765625 10.160156 50.292969 12.527344 58.949219 21.5 C 65.574219 28.367188 71.511719 37.019531 74.011719 46.363281 L 75.003906 46.363281 C 73.660156 40.808594 70.921875 34.980469 66.429688 28.75 C 59.257813 18.800781 47.296875 9.832031 41.613281 10.222656 "/>
<path style=" stroke:none;fill-rule:nonzero;fill:rgb(13.729858%,12.159729%,12.548828%);fill-opacity:1;" d="M 33.929688 17.535156 C 31.507813 22.929688 28.171875 33.765625 27.59375 46.363281 L 30.542969 46.363281 C 31.042969 36.082031 33.390625 25.851563 35.085938 20.023438 C 36.746094 14.316406 38.585938 10.542969 39.707031 10.457031 C 39.523438 10.476563 39.105469 10.507813 38.859375 10.59375 C 37.320313 11.25 35.496094 14.042969 33.929688 17.535156 "/>
<path style=" stroke:none;fill-rule:nonzero;fill:rgb(13.729858%,12.159729%,12.548828%);fill-opacity:1;" d="M 69.570313 20.484375 C 67.921875 19.105469 62.246094 18.714844 49.683594 19.320313 C 38.921875 19.839844 19.539063 22.597656 16.664063 24.679688 C 16.664063 24.679688 17.136719 24.054688 17.390625 23.761719 C 22.265625 21.152344 41.976563 19.140625 46.390625 18.804688 C 54.019531 18.222656 66.167969 17.796875 68.894531 19.785156 C 69.257813 20.085938 69.570313 20.484375 69.570313 20.484375 "/>
<path style=" stroke:none;fill-rule:nonzero;fill:rgb(89.752197%,10.43396%,13.946533%);fill-opacity:1;" d="M 38.003906 17.40625 C 36.550781 14.601563 36.441406 13.164063 36.441406 12.511719 C 36.441406 12.125 36.59375 11.074219 37.648438 10.820313 C 36.113281 11.144531 35.328125 12.078125 35.328125 13.480469 C 35.328125 15.492188 35.902344 17.878906 39.957031 25.023438 C 42.996094 30.382813 48.203125 38.121094 52.855469 46.363281 L 55.746094 46.363281 C 53.933594 43.089844 51.738281 39.449219 49.082031 35.378906 C 47.332031 32.695313 40.925781 23.046875 38.003906 17.40625 "/>
<path style=" stroke:none;fill-rule:nonzero;fill:rgb(31.710815%,73.291016%,92.932129%);fill-opacity:1;" d="M 43.226563 34.601563 C 19.746094 28.382813 17.746094 25.800781 17.746094 23.9375 C 17.746094 23.625 17.800781 23.261719 18.339844 22.5625 C 18.070313 22.796875 17.53125 23.5 17.53125 23.5 C 17.339844 23.820313 17.125 24.292969 17.125 24.695313 C 17.125 27.671875 21.875 29.988281 43.238281 35.824219 C 57.609375 39.75 67.617188 43.101563 73.347656 46.363281 L 75.386719 46.363281 C 69.144531 41.910156 56.367188 38.082031 43.226563 34.601563 "/>
<path style=" stroke:none;fill-rule:nonzero;fill:rgb(9.306335%,27.600098%,54.544067%);fill-opacity:1;" d="M 53.933594 12.113281 C 49.921875 10.367188 46.003906 9.972656 44.347656 10.070313 C 52.417969 10.371094 61.070313 16.117188 67.660156 24.21875 C 73.109375 30.917969 76.375 38.765625 77.320313 46.363281 L 78.582031 46.363281 C 77.5625 32.871094 67.648438 18.082031 53.933594 12.113281 "/>
<path style=" stroke:none;fill-rule:nonzero;fill:rgb(13.729858%,12.159729%,12.548828%);fill-opacity:1;" d="M 47.367188 10.160156 C 48.570313 10.34375 50.902344 10.726563 50.902344 13.339844 C 50.902344 15.492188 49.40625 19.335938 37.648438 34.550781 C 34.167969 39.054688 31.433594 42.960938 29.28125 46.359375 L 30.714844 46.359375 C 32.839844 43.078125 35.273438 39.65625 37.910156 36.140625 C 47.488281 23.378906 51.65625 17.449219 51.65625 13.472656 C 51.65625 10.921875 48.996094 10.28125 47.367188 10.160156 "/>
<path style=" stroke:none;fill-rule:nonzero;fill:rgb(31.710815%,73.291016%,92.932129%);fill-opacity:1;" d="M 75.867188 34.34375 C 74.40625 35.1875 69.777344 37.078125 56.804688 40.917969 C 51.71875 42.421875 44.933594 44.429688 38.464844 46.363281 L 50.273438 46.363281 C 56.359375 44.558594 62.65625 42.648438 65.683594 41.585938 C 70.839844 39.777344 74.953125 38.40625 76.757813 37.296875 C 77.917969 36.585938 78.550781 36.179688 78.5 35.46875 C 78.222656 34.523438 77.5625 32.734375 77.5625 32.734375 C 77.597656 33.351563 77.179688 33.589844 75.867188 34.34375 "/>
</g>
</svg>
