<svg xmlns="http://www.w3.org/2000/svg" viewBox="0 0 102.05 102.05">
	<defs>
		<style>
			.cls-1{fill:#ed1b2e}.cls-2{fill:#ffdf1c}
		</style>
	</defs>
	<g id="_Vrstva_2" data-name="&lt;Vrstva&gt;">
		<path class="cls-1" d="M15.59 15.59h34.75v70.87H15.59zM51.71 15.59h34.74v70.87H51.71z" />
		<path class="cls-2" d="M27.16 23.18a3.53 3.53 0 0 0-2.43-.73 12 12 0 0 0-2.1.17h-.13v8.5h1.39v-3.28a5.52 5.52 0 0 0 .71.05 3.67 3.67 0 0 0 2.66-1A2.69 2.69 0 0 0 28 25a2.37 2.37 0 0 0-.84-1.82zm-2.53 3.53a3.67 3.67 0 0 1-.74-.06v-3a6.78 6.78 0 0 1 .86-.06c.68 0 1.81.19 1.81 1.49 0 1.05-.7 1.63-1.93 1.63zM36.14 28.68A2.45 2.45 0 0 0 35.06 27a2.31 2.31 0 0 0 1.43-2.13 2.23 2.23 0 0 0-.71-1.7 3.59 3.59 0 0 0-2.53-.73 11 11 0 0 0-2.09.19h-.12v8.49h1.38v-3.58h.86c.88 0 1.3.41 1.53 1.5a9.53 9.53 0 0 0 .56 2v.07h1.46l-.12-.22a16.66 16.66 0 0 1-.57-2.21zm-1-3.69c0 .87-.68 1.43-1.72 1.43h-.95v-2.75a4.85 4.85 0 0 1 .91-.07c.75 0 1.71.24 1.71 1.4zM42.41 22.51l-2.93 8.64h1.44s.8-2.42.86-2.62h2.73c.07.19.89 2.62.89 2.62h1.48l-3-8.64zm1.78 4.87h-2.08c.11-.34.75-2.21.75-2.21.11-.34.19-.68.27-1 .08.29.3 1.05.3 1.05zM57.05 27.24h3.72v3.91h1.4v-8.64h-1.4V26h-3.72v-3.49h-1.4v8.64h1.4zM68.4 22.51l-2.94 8.64h1.44s.8-2.42.86-2.62h2.74c.06.19.89 2.62.89 2.62h1.47l-3-8.64zm1.77 4.87h-2.08c.12-.34.75-2.21.75-2.21.12-.34.19-.69.28-1l.29 1.05zM27.16 38.74a3.58 3.58 0 0 0-2.43-.74 11 11 0 0 0-2.1.18h-.13v8.5h1.39V43.4a5.52 5.52 0 0 0 .71.05 3.67 3.67 0 0 0 2.66-1A2.67 2.67 0 0 0 28 40.6a2.37 2.37 0 0 0-.84-1.86zm-2.53 3.53a3.67 3.67 0 0 1-.74-.06v-3a6.78 6.78 0 0 1 .86-.06c.68 0 1.81.19 1.81 1.49 0 1.05-.7 1.63-1.93 1.63zM36.14 44.23a2.45 2.45 0 0 0-1.08-1.66 2.31 2.31 0 0 0 1.43-2.13 2.24 2.24 0 0 0-.71-1.7 3.59 3.59 0 0 0-2.53-.74 11 11 0 0 0-2.09.19h-.12v8.49h1.38V43.1h.86c.88 0 1.3.41 1.53 1.5a9.53 9.53 0 0 0 .56 2v.07h1.46l-.12-.22a16.5 16.5 0 0 1-.57-2.22zm-1-3.68c0 .87-.68 1.43-1.72 1.43h-.95v-2.75a4.85 4.85 0 0 1 .91-.07c.75 0 1.71.24 1.71 1.39zM42.41 38.07l-2.93 8.64h1.44l.86-2.62h2.73c.07.19.89 2.62.89 2.62h1.48l-3-8.64zm1.78 4.87h-2.08c.11-.34.75-2.21.75-2.21.11-.34.19-.68.27-1 .08.29.3 1 .3 1zM59.25 43.2h1.68v2.22a3.71 3.71 0 0 1-1.28.18 2.91 2.91 0 0 1-3.06-3.21 3 3 0 0 1 3.2-3.2 4 4 0 0 1 1.78.35l.16.07.36-1.17-.09-.06a5.43 5.43 0 0 0-2.16-.4 4.32 4.32 0 0 0-4.66 4.46 4.06 4.06 0 0 0 4.43 4.36 7.7 7.7 0 0 0 2.63-.47h.1V42h-3.09zM66 38.06v5.07c0 2.39 1.12 3.71 3.14 3.71s3.31-1.36 3.31-3.75v-5h-1.38v5.11c0 1.62-.65 2.49-1.88 2.49s-1.78-.89-1.78-2.49v-5.14zM77.91 45.5v-2.7h3.22v-1.2h-3.22v-2.32h3.42v-1.21h-4.82v8.64h5V45.5zM27.16 54.3a3.53 3.53 0 0 0-2.43-.73 11.09 11.09 0 0 0-2.1.17h-.13v8.5h1.39V59a5.65 5.65 0 0 0 .71 0 3.67 3.67 0 0 0 2.66-1 2.65 2.65 0 0 0 .7-1.88 2.37 2.37 0 0 0-.8-1.82zm-2.53 3.53a3.67 3.67 0 0 1-.74-.06v-3a5.29 5.29 0 0 1 .86-.06c.68 0 1.81.19 1.81 1.49 0 1.04-.7 1.63-1.93 1.63zM36.14 59.79a2.42 2.42 0 0 0-1.08-1.66A2.32 2.32 0 0 0 36.49 56a2.23 2.23 0 0 0-.71-1.7 3.59 3.59 0 0 0-2.53-.73 12 12 0 0 0-2.09.18h-.12v8.49h1.38v-3.58h.86c.88 0 1.3.41 1.53 1.5a9.16 9.16 0 0 0 .56 2v.08h1.46l-.12-.22a16.5 16.5 0 0 1-.57-2.23zm-1-3.68c0 .87-.68 1.42-1.72 1.42h-.95v-2.75a6.44 6.44 0 0 1 .91-.06c.75 0 1.71.28 1.71 1.39zM42.41 53.63l-2.93 8.64h1.44l.86-2.62h2.73c.07.19.89 2.62.89 2.62h1.48l-3-8.64zm1.78 4.87h-2.08c.11-.34.75-2.21.75-2.21.11-.34.19-.69.27-1 .08.29.3 1 .3 1zM59.25 58.76h1.68V61a3.71 3.71 0 0 1-1.28.18A2.91 2.91 0 0 1 56.59 58a3 3 0 0 1 3.2-3.2 4.16 4.16 0 0 1 1.78.34l.16.08.36-1.22-.09-.06a5.3 5.3 0 0 0-2.16-.4A4.32 4.32 0 0 0 55.15 58a4 4 0 0 0 4.43 4.35 7.78 7.78 0 0 0 2.63-.46h.1v-4.31h-3.06zM68.37 53.63l-2.93 8.64h1.44l.86-2.62h2.74c.06.19.89 2.62.89 2.62h1.47l-3-8.64zm1.78 4.87h-2.08c.11-.34.75-2.21.75-2.21.11-.33.2-.67.28-1 .09.3.29 1 .29 1zM27.16 69.85a3.58 3.58 0 0 0-2.43-.73 11.11 11.11 0 0 0-2.1.18h-.13v8.51h1.39v-3.3a4.24 4.24 0 0 0 .71 0 3.67 3.67 0 0 0 2.66-1 2.66 2.66 0 0 0 .7-1.89 2.4 2.4 0 0 0-.8-1.77zm-2.53 3.54a3.67 3.67 0 0 1-.74-.06v-3a5.29 5.29 0 0 1 .86-.06c.68 0 1.81.19 1.81 1.49 0 1.04-.7 1.63-1.93 1.63zM36.14 75.35a2.42 2.42 0 0 0-1.08-1.66 2.32 2.32 0 0 0 1.43-2.14 2.26 2.26 0 0 0-.71-1.7 3.64 3.64 0 0 0-2.53-.73 11.92 11.92 0 0 0-2.09.19h-.12v8.49h1.38v-3.58h.86c.88 0 1.3.4 1.53 1.5a9.56 9.56 0 0 0 .56 2v.08h1.46l-.12-.23a15.8 15.8 0 0 1-.57-2.22zm-1-3.69c0 .87-.68 1.43-1.72 1.43h-.95v-2.75a4.85 4.85 0 0 1 .91-.07c.75 0 1.71.25 1.71 1.39zM42.41 69.18l-2.93 8.65h1.44l.86-2.62h2.73c.07.19.89 2.62.89 2.62h1.48l-3-8.65zm1.78 4.88h-2.08c.11-.35.75-2.21.75-2.21.11-.34.19-.69.27-1l.3 1zM59.25 74.31h1.68v2.23a3.75 3.75 0 0 1-1.28.17 2.91 2.91 0 0 1-3.06-3.2 3 3 0 0 1 3.2-3.2 4.16 4.16 0 0 1 1.78.34l.16.08.36-1.17-.09-.06a5.26 5.26 0 0 0-2.16-.4 4.32 4.32 0 0 0-4.66 4.46 4 4 0 0 0 4.43 4.35 7.78 7.78 0 0 0 2.63-.46h.1v-4.31h-3.09z" />
	</g>
</svg>
